<svg width="16" height="16" viewBox="0 0 16 16" fill="none" xmlns="http://www.w3.org/2000/svg">
<path d="M15.3333 7.99984C15.3333 8.19433 15.2561 8.38086 15.1185 8.51838C14.981 8.65591 14.7945 8.73317 14.6 8.73317H8.73334V14.5998C8.73334 14.7943 8.65608 14.9809 8.51855 15.1184C8.38102 15.2559 8.1945 15.3332 8 15.3332C7.80551 15.3332 7.61899 15.2559 7.48146 15.1184C7.34393 14.9809 7.26667 14.7943 7.26667 14.5998V8.73317H1.40001C1.20551 8.73317 1.01899 8.65591 0.88146 8.51838C0.743933 8.38086 0.666672 8.19433 0.666672 7.99984C0.666672 7.80534 0.743933 7.61882 0.88146 7.48129C1.01899 7.34377 1.20551 7.2665 1.40001 7.2665H7.26667V1.39984C7.26667 1.20535 7.34393 1.01882 7.48146 0.881292C7.61899 0.743766 7.80551 0.666504 8 0.666504C8.1945 0.666504 8.38102 0.743766 8.51855 0.881292C8.65608 1.01882 8.73334 1.20535 8.73334 1.39984V7.2665H14.6C14.7945 7.2665 14.981 7.34377 15.1185 7.48129C15.2561 7.61882 15.3333 7.80534 15.3333 7.99984Z" fill="white"/>
</svg>
