<svg width="72" height="72" viewBox="0 0 72 72" fill="none" xmlns="http://www.w3.org/2000/svg">
<path d="M65.8344 17.4453L18.5628 9.0582C16.4912 8.6876 14.4787 10.1292 14.1195 12.1786L11.0749 29.5511H6.72582C4.6713 29.5511 3 31.214 3 33.257V59.294C3 61.3371 4.6713 63 6.72582 63H54.9417C56.9962 63 58.6675 61.3371 58.6675 59.294V50.1387C60.0487 50.3839 61.382 50.6729 62.6589 49.9132C63.617 49.343 64.3042 48.3599 64.4963 47.2645L68.9417 21.8967C69.3074 19.8102 67.9134 17.8133 65.8344 17.4453ZM16.2171 12.5423C16.3768 11.6322 17.2646 10.9784 18.1891 11.1425L65.4608 19.5296C66.3885 19.6943 67.0091 20.5927 66.8446 21.5325L66.1112 25.7202L15.4815 16.738L16.2171 12.5423ZM56.5385 59.294C56.5385 60.1697 55.8221 60.8823 54.9417 60.8823H6.72582C5.84546 60.8823 5.12904 60.1697 5.12904 59.294V33.257C5.12904 32.3814 5.84546 31.6688 6.72582 31.6688H54.9417C55.8221 31.6688 56.5385 32.3814 56.5385 33.257V59.294ZM62.3992 46.9008C62.0681 48.7839 59.9657 48.218 58.6675 47.9877V33.257C58.6675 31.214 56.9962 29.5511 54.9417 29.5511H13.2364L15.1158 18.8239L18.1998 19.3708L65.745 27.8061L62.3992 46.9008Z" fill="#01C4DE"/>
<path d="M27.3592 58.6468H20.6818C20.0408 58.6468 19.5205 58.1266 19.5205 57.4855C19.5205 56.8445 20.0408 56.3242 20.6818 56.3242H27.3592C28.0002 56.3242 28.5205 56.8445 28.5205 57.4855C28.5205 58.1266 28.0008 58.6468 27.3592 58.6468Z" fill="#01C4DE"/>
<path d="M14.6737 58.6468H7.99625C7.35522 58.6468 6.83496 58.1266 6.83496 57.4855C6.83496 56.8445 7.35522 56.3242 7.99625 56.3242H14.6737C15.3147 56.3242 15.835 56.8445 15.835 57.4855C15.835 58.1266 15.3147 58.6468 14.6737 58.6468Z" fill="#01C4DE"/>
<path d="M40.0458 58.6468H33.3683C32.7273 58.6468 32.207 58.1266 32.207 57.4855C32.207 56.8445 32.7273 56.3242 33.3683 56.3242H40.0458C40.6868 56.3242 41.2071 56.8445 41.2071 57.4855C41.2071 58.1266 40.6874 58.6468 40.0458 58.6468Z" fill="#01C4DE"/>
<path d="M52.7313 58.6468H46.0539C45.4128 58.6468 44.8926 58.1266 44.8926 57.4855C44.8926 56.8445 45.4128 56.3242 46.0539 56.3242H52.7313C53.3723 56.3242 53.8926 56.8445 53.8926 57.4855C53.8926 58.1266 53.3723 58.6468 52.7313 58.6468Z" fill="#01C4DE"/>
<path d="M17.6738 52.6222H9.2626C7.66176 52.6222 6.35938 51.3198 6.35938 49.7189V46.3837C6.35938 44.7829 7.66176 43.4805 9.2626 43.4805H17.6738C19.2747 43.4805 20.577 44.7829 20.577 46.3837V49.7189C20.577 51.3192 19.2741 52.6222 17.6738 52.6222ZM9.2626 45.8025C8.94266 45.8025 8.68195 46.0626 8.68195 46.3831V49.7183C8.68195 50.0389 8.94266 50.299 9.2626 50.299H17.6738C17.9938 50.299 18.2545 50.0389 18.2545 49.7183V46.3831C18.2545 46.0626 17.9938 45.8025 17.6738 45.8025H9.2626Z" fill="#01C4DE"/>
</svg>
