<svg width="24" height="24" viewBox="0 0 24 24" fill="none" xmlns="http://www.w3.org/2000/svg">
<path d="M2.0744 22.9998C1.86191 22.9998 1.65419 22.9368 1.4775 22.8188C1.30081 22.7008 1.1631 22.533 1.08178 22.3367C1.00046 22.1404 0.979187 21.9243 1.02065 21.7159C1.06212 21.5075 1.16446 21.3161 1.31473 21.1659L21.1659 1.31467C21.3674 1.11319 21.6407 1 21.9256 1C22.2106 1 22.4838 1.11319 22.6853 1.31467C22.8868 1.51615 23 1.78941 23 2.07434C23 2.35927 22.8868 2.63254 22.6853 2.83402L2.83408 22.6852C2.73441 22.7851 2.61599 22.8643 2.48562 22.9183C2.35525 22.9723 2.2155 23 2.0744 22.9998Z" fill="#141ED2"/>
<path d="M21.9256 22.9998C21.7845 23 21.6448 22.9723 21.5144 22.9183C21.384 22.8643 21.2656 22.7851 21.1659 22.6852L1.31473 2.83402C1.11325 2.63254 1.00006 2.35927 1.00006 2.07434C1.00006 1.78941 1.11325 1.51615 1.31473 1.31467C1.51621 1.11319 1.78947 1 2.0744 1C2.35934 1 2.6326 1.11319 2.83408 1.31467L22.6853 21.1659C22.8356 21.3161 22.9379 21.5075 22.9794 21.7159C23.0208 21.9243 22.9996 22.1404 22.9182 22.3367C22.8369 22.533 22.6992 22.7008 22.5225 22.8188C22.3458 22.9368 22.1381 22.9998 21.9256 22.9998Z" fill="#141ED2"/>
</svg>
