<svg width="10" height="19" viewBox="0 0 10 19" fill="none" xmlns="http://www.w3.org/2000/svg">
<path d="M9.18359 10.375H6.54688V18.25H3.03125V10.375H0.183594V7.10547H3.03125V4.64453C3.03125 3.70703 3.20703 2.91016 3.55859 2.25391C3.91016 1.59766 4.40234 1.10547 5.03516 0.777344C5.69141 0.425781 6.44141 0.25 7.28516 0.25C7.66016 0.25 8.05859 0.273438 8.48047 0.320312C8.90234 0.34375 9.23047 0.378906 9.46484 0.425781L9.81641 0.460938V3.23828H8.41016C7.75391 3.23828 7.27344 3.41406 6.96875 3.76562C6.6875 4.09375 6.54688 4.50391 6.54688 4.99609V7.10547H9.67578L9.18359 10.375Z" fill="white"/>
</svg>
