<svg width="48" height="48" viewBox="0 0 48 48" fill="none" xmlns="http://www.w3.org/2000/svg">
<path d="M36.8333 2H11.1667C6.10483 2 2 6.10483 2 11.1667V36.8333C2 41.8952 6.10483 46 11.1667 46H36.8333C41.897 46 46 41.8952 46 36.8333V11.1667C46 6.10483 41.897 2 36.8333 2ZM16.6667 36.8333H11.1667V16.6667H16.6667V36.8333ZM13.9167 14.342C12.1457 14.342 10.7083 12.8937 10.7083 11.108C10.7083 9.32233 12.1457 7.874 13.9167 7.874C15.6877 7.874 17.125 9.32233 17.125 11.108C17.125 12.8937 15.6895 14.342 13.9167 14.342ZM38.6667 36.8333H33.1667V26.5593C33.1667 20.3847 25.8333 20.8522 25.8333 26.5593V36.8333H20.3333V16.6667H25.8333V19.9025C28.3927 15.1615 38.6667 14.8113 38.6667 24.4418V36.8333Z" fill="white"/>
</svg>
