<svg width="32" height="32" viewBox="0 0 32 32" fill="none" xmlns="http://www.w3.org/2000/svg">
<path d="M30.3752 22.914C29.7783 21.7879 28.4049 21.3042 27.2425 21.8268C23.5194 23.4113 22.6133 24.1523 20.6678 24.37C20.7582 24.0954 20.8086 23.8152 20.8086 23.5098C20.8086 22.038 19.6256 20.8411 18.1723 20.8411H15.277C14.9017 20.8411 14.5535 20.6348 14.3467 20.2888C13.0984 18.1994 10.2497 18.7624 9.59735 18.6715C7.65683 18.6715 6.25497 19.6384 5.86982 21.1542H2.20249C1.72268 21.1542 1.3335 21.5484 1.3335 22.0339V29.7852C1.3335 30.2714 1.72268 30.6649 2.20249 30.6649C3.45731 30.6649 18.6622 30.6658 19.2664 30.666C20.9858 30.666 22.6795 30.2027 24.1653 29.3267L29.4551 26.2072C30.5936 25.5358 30.9973 24.0897 30.3752 22.914ZM5.76262 28.9056H3.07126V22.9135H5.76262V28.9056ZM28.5805 24.6874L23.2907 27.8068C22.0701 28.5263 20.6788 28.9069 19.2664 28.9069H7.50039V22.0339C7.50039 20.5867 8.96715 20.4306 9.59735 20.4306C10.6351 20.4669 12.2701 20.2129 12.8603 21.1995C13.3846 22.0767 14.2883 22.6002 15.277 22.6002H18.1723C18.7054 22.6002 19.1109 23.0705 19.0684 23.5714C19.0616 23.7701 18.849 24.4194 18.1723 24.4194C17.1892 24.4194 14.1858 24.4194 13.2235 24.4194C12.7439 24.4194 12.3547 24.8133 12.3547 25.2988C12.3547 25.785 12.7439 26.1785 13.2235 26.1785H19.7803C21.1497 26.1785 22.4785 25.8935 23.7302 25.3305L27.9474 23.4348C28.2786 23.2857 28.6721 23.4224 28.8435 23.7456C29.0214 24.0816 28.9062 24.495 28.5805 24.6874Z" fill="#5BC5F2"/>
<path d="M17.0002 17.9993C21.2277 17.9993 24.6668 14.5604 24.6668 10.3328C24.6668 6.10522 21.2277 2.66602 17.0002 2.66602C12.7731 2.66602 9.3335 6.10522 9.3335 10.3328C9.3335 14.5604 12.7731 17.9993 17.0002 17.9993ZM17.0002 4.39553C20.2743 4.39553 22.9373 7.05861 22.9373 10.3328C22.9373 13.6063 20.2743 16.2701 17.0002 16.2701C13.7267 16.2701 11.063 13.6063 11.063 10.3328C11.063 7.05861 13.7267 4.39553 17.0002 4.39553Z" fill="#5BC5F2"/>
<path d="M16.6272 11.1621H18.0396C18.2018 11.1621 18.3336 11.293 18.3336 11.4543C18.3336 11.6156 18.2018 11.7464 18.0396 11.7464H15.5197C15.0592 11.7464 14.6865 12.1177 14.6865 12.575C14.6865 13.0329 15.0592 13.4034 15.5197 13.4034H16.7227V13.8381C16.7227 14.2956 17.0961 14.6667 17.5559 14.6667C18.0164 14.6667 18.3892 14.2956 18.3892 13.8381V13.3724C19.3039 13.2079 19.9998 12.4103 19.9998 11.4543C19.9998 10.3794 19.1205 9.50516 18.0396 9.50516H16.6272C16.465 9.50516 16.3328 9.3735 16.3328 9.21239C16.3328 9.05107 16.465 8.92004 16.6272 8.92004H19.1666C19.6271 8.92004 19.9998 8.54896 19.9998 8.09166C19.9998 7.63372 19.6271 7.26306 19.1666 7.26306H18.3892V6.82838C18.3892 6.37109 18.0164 6 17.5559 6C17.0961 6 16.7227 6.37109 16.7227 6.82838V7.26306H16.6272C15.5463 7.26306 14.6665 8.13754 14.6665 9.21239C14.6665 10.2872 15.5463 11.1621 16.6272 11.1621Z" fill="#5BC5F2"/>
<path d="M4.2056 8.53936H4.79495V9.12873C4.79495 9.61028 5.18529 10.0007 5.66683 10.0007C6.14859 10.0007 6.53894 9.61028 6.53894 9.12873V8.53936H7.12828C7.60981 8.53936 8.00016 8.14899 8.00016 7.66743C8.00016 7.18565 7.60981 6.79528 7.12828 6.79528H6.53894V6.20591C6.53894 5.72435 6.14859 5.33398 5.66683 5.33398C5.18529 5.33398 4.79495 5.72435 4.79495 6.20591V6.79528H4.2056C3.72407 6.79528 3.3335 7.18565 3.3335 7.66743C3.3335 8.14899 3.72407 8.53936 4.2056 8.53936Z" fill="#5BC5F2"/>
<path d="M28.5389 16.1275V15.5381C28.5389 15.0566 28.1484 14.666 27.6668 14.666C27.1853 14.666 26.7947 15.0566 26.7947 15.5381V16.1275H26.2056C25.7238 16.1275 25.3335 16.5178 25.3335 16.9993C25.3335 17.4809 25.7238 17.8715 26.2056 17.8715H26.7947V18.4608C26.7947 18.9423 27.1853 19.3327 27.6668 19.3327C28.1484 19.3327 28.5389 18.9423 28.5389 18.4608V17.8715H29.1281C29.6098 17.8715 30.0002 17.4809 30.0002 16.9993C30.0002 16.5178 29.6098 16.1275 29.1281 16.1275H28.5389Z" fill="#5BC5F2"/>
<path d="M25.5386 5.20544H26.128V5.79456C26.128 6.27609 26.5183 6.66667 26.9998 6.66667C27.4816 6.66667 27.8719 6.27609 27.8719 5.79456V5.20544H28.4613C28.9428 5.20544 29.3332 4.81487 29.3332 4.33333C29.3332 3.8518 28.9428 3.46122 28.4613 3.46122H27.8719V2.87211C27.8719 2.39035 27.4816 2 26.9998 2C26.5183 2 26.128 2.39035 26.128 2.87211V3.46122H25.5386C25.0571 3.46122 24.6665 3.8518 24.6665 4.33333C24.6665 4.81487 25.0571 5.20544 25.5386 5.20544Z" fill="#5BC5F2"/>
</svg>
