<svg width="26" height="26" viewBox="0 0 26 26" fill="none" xmlns="http://www.w3.org/2000/svg">
<path d="M22.2084 5.14579H9.15419C8.73538 5.14579 8.39586 5.48531 8.39586 5.90412C8.39586 6.32294 8.73538 6.66246 9.15419 6.66246H22.2084C22.6272 6.66246 22.9667 6.32294 22.9667 5.90412C22.9667 5.48531 22.6272 5.14579 22.2084 5.14579Z" fill="#141ED2"/>
<path d="M17.1166 19.2833H4.06247C3.64366 19.2833 3.30414 19.6228 3.30414 20.0416C3.30414 20.4604 3.64366 20.7999 4.06247 20.7999H17.1166C17.5355 20.7999 17.875 20.4604 17.875 20.0416C17.875 19.6228 17.5355 19.2833 17.1166 19.2833Z" fill="#141ED2"/>
<path d="M24.1584 12.2417H1.84169C1.42288 12.2417 1.08336 12.5812 1.08336 13C1.08336 13.4188 1.42288 13.7584 1.84169 13.7584H24.1584C24.5772 13.7584 24.9167 13.4188 24.9167 13C24.9167 12.5812 24.5772 12.2417 24.1584 12.2417Z" fill="#141ED2"/>
</svg>
