<svg width="36" height="36" viewBox="0 0 36 36" fill="none" xmlns="http://www.w3.org/2000/svg">
<path d="M34.4878 28.6608C34.4284 28.1169 34.1565 27.6311 33.7222 27.2945L27.3622 22.3787C26.2811 21.5444 24.8225 21.4454 23.6424 22.1279L22.4728 22.8037C21.76 23.2143 20.8782 23.1601 20.2261 22.6559C19.2809 21.9285 17.8698 20.7775 16.5194 19.4257C15.1795 18.0845 14.0495 16.6999 13.338 15.7745C12.8391 15.1264 12.7836 14.2459 13.1955 13.5318L13.8713 12.3595C14.5538 11.1768 14.4561 9.71548 13.6218 8.63833L8.70463 2.27835C8.36945 1.8441 7.88634 1.57222 7.34116 1.5115C6.79597 1.44814 6.264 1.6105 5.8429 1.95896C4.76311 2.84996 3.37572 4.01426 2.89396 4.49737C1.91711 5.47423 1.5 6.75339 1.5 8.77833C1.5 11.1399 5.83504 19.9235 11.0558 24.9264C16.0759 30.1669 24.8595 34.5007 27.2236 34.5007C29.2473 34.5007 30.5264 34.0836 31.5006 33.1067C32.022 32.5866 33.3157 31.0343 34.039 30.1578C34.3888 29.7353 34.5472 29.2046 34.4878 28.6608ZM33.0226 29.3168C31.8148 30.7807 30.9211 31.8222 30.5686 32.1747C30.0472 32.6974 29.2802 33.1805 27.2223 33.1805C25.4099 33.1805 16.8956 29.1161 11.9877 23.9931C6.88576 19.1023 2.82003 10.5907 2.82003 8.77833C2.82003 6.72039 3.30314 5.95347 3.82724 5.43072C4.1757 5.0822 5.18956 4.21099 6.68382 2.97675C6.8079 2.87381 6.95969 2.81967 7.11813 2.81967C7.14321 2.81967 7.16963 2.82102 7.19471 2.8236C7.38086 2.84474 7.54587 2.93711 7.66067 3.08626L12.5778 9.44489C13.0821 10.0983 13.1415 10.9827 12.7283 11.6995L12.0525 12.8717C11.3727 14.0491 11.4664 15.5051 12.2914 16.5784C13.0267 17.5354 14.1949 18.9676 15.5863 20.3589C16.9868 21.7595 18.4455 22.9515 19.421 23.7013C20.4928 24.5302 21.9515 24.6305 23.1329 23.9481C23.1329 23.9468 23.1329 23.9468 23.1329 23.9468L24.3025 23.2709C25.018 22.8578 25.9037 22.9198 26.5558 23.4241L32.9144 28.3386C33.0623 28.4535 33.1547 28.6198 33.1758 28.8059C33.1968 28.9921 33.1427 29.1729 33.0226 29.3168Z" fill="white"/>
<path d="M24.4018 4.09943C27.8946 5.3746 30.6271 8.10709 31.9009 11.5999C31.9986 11.8679 32.252 12.0342 32.5213 12.0342C32.5966 12.0342 32.6718 12.021 32.7458 11.9933C33.089 11.8679 33.2659 11.4903 33.1405 11.1472C31.7346 7.28867 28.7143 4.26715 24.8533 2.85998C24.5153 2.7359 24.1325 2.91277 24.0071 3.25336C23.8817 3.59518 24.0586 3.974 24.4018 4.09943Z" fill="white"/>
<path d="M22.5941 9.0623C24.5926 9.78436 26.2149 11.408 26.9357 13.4052C27.0347 13.6745 27.2868 13.8408 27.5574 13.8408C27.6326 13.8408 27.7079 13.8289 27.7818 13.8025C28.125 13.6784 28.3032 13.3009 28.1791 12.9577C27.325 10.5961 25.4057 8.67549 23.0428 7.82143C22.7022 7.69599 22.322 7.87422 22.1967 8.21746C22.0727 8.56069 22.2509 8.93822 22.5941 9.0623Z" fill="white"/>
<path d="M20.7893 14.0274C21.3425 14.2254 21.7754 14.6584 21.9734 15.2128C22.0712 15.4834 22.3246 15.6511 22.5952 15.6511C22.6678 15.6511 22.7431 15.6392 22.8169 15.6115C23.1615 15.4887 23.3397 15.1112 23.2169 14.768C22.8856 13.84 22.1622 13.1166 21.2329 12.7853C20.891 12.6612 20.5135 12.8421 20.3894 13.1839C20.2666 13.5271 20.4448 13.9046 20.7893 14.0274Z" fill="white"/>
</svg>
