<svg width="100" height="70" viewBox="0 0 100 70" fill="none" xmlns="http://www.w3.org/2000/svg">
<g opacity="0.05">
<path d="M95.7999 79.6141C95.6348 78.1034 94.8795 76.7539 93.6731 75.8189L76.0065 62.1639C73.0035 59.8465 68.9516 59.5715 65.6736 61.4673L62.4247 63.3446C60.4446 64.485 57.9953 64.3346 56.1838 62.9338C53.5584 60.9135 49.6387 57.716 45.8874 53.9612C42.1657 50.2357 39.0268 46.3894 37.0504 43.8189C35.6644 42.0186 35.5104 39.5728 36.6544 37.5891L38.5317 34.3329C40.4275 31.0475 40.156 26.9883 37.8386 23.9962L24.1799 6.32962C23.2488 5.12337 21.9068 4.36814 20.3924 4.19947C18.878 4.02347 17.4003 4.47449 16.2306 5.44243C13.2312 7.91743 9.37732 11.1516 8.03911 12.4936C5.32562 15.2071 4.16699 18.7603 4.16699 24.3851C4.16699 30.9449 16.2088 55.3438 30.7108 69.2409C44.6556 83.7979 69.0544 95.8361 75.6216 95.8361C81.2428 95.8361 84.7959 94.6775 87.502 91.964C88.9503 90.5192 92.5439 86.2072 94.5531 83.7725C95.5248 82.5988 95.9648 81.1247 95.7999 79.6141ZM91.7297 81.4364C88.3747 85.5028 85.8922 88.3959 84.9131 89.3749C83.4648 90.827 81.3343 92.169 75.6178 92.169C70.5833 92.169 46.9325 80.8791 33.2995 66.6482C19.1274 53.0629 7.83374 29.4194 7.83374 24.3851C7.83374 18.6686 9.17571 16.5383 10.6316 15.0862C11.5995 14.1181 14.4158 11.6981 18.5665 8.26962C18.9112 7.98368 19.3328 7.83327 19.7729 7.83327C19.8426 7.83327 19.916 7.83703 19.9856 7.8442C20.5027 7.90293 20.9611 8.1595 21.28 8.57382L34.9387 26.2367C36.3394 28.0517 36.5045 30.5084 35.3568 32.4994L33.4795 35.7555C31.5911 39.0261 31.8514 43.0707 34.1432 46.0518C36.1856 48.7102 39.4307 52.6887 43.2955 56.5534C47.1859 60.4438 51.2378 63.755 53.9475 65.8377C56.9249 68.1404 60.9768 68.419 64.2584 66.5234C64.2584 66.5197 64.2584 66.5197 64.2584 66.5197L67.5072 64.6423C69.4947 63.4946 71.955 63.6669 73.7664 65.0678L91.4293 78.7192C91.84 79.0382 92.0966 79.5002 92.1553 80.0173C92.2137 80.5344 92.0633 81.0368 91.7297 81.4364Z" fill="white"/>
<path d="M67.7816 11.3851C77.4839 14.9273 85.0741 22.5175 88.6125 32.2198C88.8838 32.9641 89.5878 33.4263 90.3359 33.4263C90.5448 33.4263 90.7539 33.3896 90.9593 33.3126C91.9127 32.9643 92.4041 31.9155 92.0556 30.9622C88.1506 20.2441 79.7609 11.851 69.0357 7.94221C68.0969 7.59754 67.0335 8.08885 66.6853 9.03495C66.3369 9.98444 66.8283 11.0367 67.7816 11.3851Z" fill="white"/>
<path d="M62.7622 25.1757C68.3136 27.1814 72.8201 31.6914 74.8222 37.2393C75.0973 37.9873 75.7975 38.4493 76.5493 38.4493C76.7583 38.4493 76.9674 38.4163 77.1726 38.3429C78.126 37.9983 78.6209 36.9496 78.2763 35.9961C75.9039 29.4363 70.5723 24.1012 64.0088 21.7288C63.0627 21.3804 62.0066 21.8754 61.6584 22.8289C61.3139 23.7823 61.809 24.831 62.7622 25.1757Z" fill="white"/>
<path d="M57.75 38.9675C59.2864 39.5175 60.4891 40.7202 61.0392 42.2602C61.3106 43.0118 62.0146 43.4775 62.7663 43.4775C62.9679 43.4775 63.177 43.4446 63.3822 43.3676C64.3392 43.0265 64.8343 41.9778 64.4932 41.0246C63.5729 38.4468 61.5634 36.4375 58.9821 35.517C58.0324 35.1724 56.9837 35.6748 56.639 36.6244C56.2979 37.5777 56.793 38.6264 57.75 38.9675Z" fill="white"/>
</g>
</svg>
