<svg width="16" height="16" viewBox="0 0 16 16" fill="none"
  xmlns="http://www.w3.org/2000/svg">
  <path d="M9.65886 10.8258C9.51198 10.9736 9.28101 10.9997 9.1216 10.8868C8.4549 10.4142 7.69513 9.86139 7.11609 9.2821C6.37872 8.5444 5.56731 7.55245 5.09653 6.92716C4.96311 6.74996 4.9779 6.51028 5.13175 6.35719C5.84605 5.64641 6.58897 4.90352 7.02387 4.46892L3.2226 0.666016L1.3559 2.5335C0.823851 3.06577 0.598619 3.7928 0.686477 4.69439C0.966556 7.56928 4.46517 11.723 7.55704 13.7989C9.0724 14.8163 10.4488 15.3327 11.5712 15.3327C12.3439 15.3327 12.9962 15.0879 13.4905 14.5934L15.3346 12.7486L11.5333 8.94563C11.3836 9.09562 10.481 9.99899 9.65886 10.8258ZM14.1189 12.7485L12.8826 13.9853C12.5583 14.3098 12.1081 14.4693 11.5612 14.4693C10.6217 14.4692 9.39704 13.9985 8.03607 13.0848C5.16737 11.1588 1.79482 7.205 1.54207 4.61097C1.48038 3.97765 1.62225 3.48331 1.96377 3.14162L3.2226 1.88229L5.80785 4.46861C5.46332 4.81276 4.9642 5.31094 4.52554 5.74743C4.07135 6.19935 4.02164 6.92896 4.40989 7.4446C4.89738 8.09209 5.73942 9.12111 6.50825 9.89025C7.13474 10.517 7.92919 11.0955 8.62463 11.5885C9.13048 11.9471 9.82183 11.8815 10.2684 11.4324C10.6242 11.0745 11.073 10.6241 11.5337 10.1623L14.1189 12.7485Z" fill="#141ED2"/>
  <path d="M15.0566 6.55854C15.0566 3.45587 12.5324 0.931641 9.42969 0.931641V1.86946C12.0152 1.86946 14.1188 3.97298 14.1188 6.55854H15.0566Z" fill="#141ED2"/>
  <path d="M12.2431 6.55986H13.181C13.181 4.49141 11.4981 2.80859 9.42969 2.80859V3.74641C10.981 3.74641 12.2431 5.00853 12.2431 6.55986Z" fill="#141ED2"/>
  <path d="M9.42969 5.62141C9.9468 5.62141 10.3675 6.04212 10.3675 6.55923H11.3053C11.3053 5.525 10.4639 4.68359 9.42969 4.68359V5.62141Z" fill="#141ED2"/>
</svg>
