<svg width="36" height="36" viewBox="0 0 36 36" fill="none" xmlns="http://www.w3.org/2000/svg">
<path d="M17.9998 24.5996C17.6356 24.5996 17.3398 24.8953 17.3398 25.2596C17.3398 25.6239 17.6356 25.9196 17.9998 25.9196C18.3641 25.9196 18.6598 25.6239 18.6598 25.2596C18.6598 24.8953 18.3641 24.5996 17.9998 24.5996Z" fill="white"/>
<path d="M17.9997 26.5814C18.7287 26.5814 19.3197 25.9904 19.3197 25.2614C19.3197 24.5324 18.7287 23.9414 17.9997 23.9414C17.2707 23.9414 16.6797 24.5324 16.6797 25.2614C16.6797 25.9904 17.2707 26.5814 17.9997 26.5814Z" fill="white"/>
<path d="M18 1.5C8.90122 1.5 1.5 8.90122 1.5 18C1.5 27.0988 8.90122 34.5 18 34.5C27.0988 34.5 34.5 27.0988 34.5 18C34.5 8.90122 27.0988 1.5 18 1.5ZM18 33.18C9.62986 33.18 2.82 26.3701 2.82 18C2.82 9.62986 9.62986 2.82 18 2.82C26.3701 2.82 33.18 9.62986 33.18 18C33.18 26.3701 26.3701 33.18 18 33.18Z" fill="white"/>
<path d="M22.5446 13.2084C22.2185 11.3485 20.6913 9.82126 18.8315 9.4939C17.46 9.25368 16.0766 9.62061 15.0299 10.501C13.9818 11.3828 13.3799 12.6725 13.3799 14.0413C13.3799 14.4055 13.6756 14.7013 14.0399 14.7013C14.4042 14.7013 14.6999 14.4055 14.6999 14.0413C14.6999 13.0631 15.1302 12.1418 15.88 11.5135C16.6402 10.8759 17.6092 10.6198 18.6045 10.7954C19.9271 11.0277 21.0135 12.1154 21.2471 13.438C21.4979 14.8689 20.8485 16.2418 19.5905 16.9334C18.1807 17.7109 17.3399 19.0533 17.3399 20.6413V21.9613C17.3399 22.3255 17.6357 22.6213 17.9999 22.6213C18.3642 22.6213 18.6599 22.3255 18.6573 21.9613V20.5251C18.6573 19.5404 19.2447 18.6296 20.2254 18.0884C21.9585 17.1354 22.8904 15.1739 22.5446 13.2084Z" fill="white"/>
</svg>
