<svg width="120" height="70" viewBox="0 0 120 70" fill="none" xmlns="http://www.w3.org/2000/svg">
<g opacity="0.1">
<path d="M60 5C29.6707 5 5 29.6707 5 60C5 90.3293 29.6707 115 60 115C90.3293 115 115 90.3293 115 60C115 29.6707 90.3293 5 60 5ZM60 110.6C32.0995 110.6 9.4 87.9005 9.4 60C9.4 32.0995 32.0995 9.4 60 9.4C87.9005 9.4 110.6 32.0995 110.6 60C110.6 87.9005 87.9005 110.6 60 110.6Z" fill="white"/>
<path d="M75.1496 44.0241C74.0628 37.8245 68.972 32.7336 62.7725 31.6424C58.2008 30.8417 53.5897 32.0648 50.1006 34.9996C46.607 37.9388 44.6006 42.2377 44.6006 46.8003C44.6006 48.0146 45.5863 49.0003 46.8006 49.0003C48.0149 49.0003 49.0006 48.0146 49.0006 46.8003C49.0006 43.5398 50.4351 40.4686 52.9342 38.3743C55.4685 36.2491 58.6982 35.3955 62.0158 35.9808C66.4246 36.7551 70.0458 40.3808 70.8246 44.7896C71.6606 49.5591 69.4958 54.1353 65.3027 56.4408C60.6034 59.0324 57.8008 63.5072 57.8008 68.8003V73.2003C57.8008 74.4146 58.7865 75.4003 60.0008 75.4003C61.2151 75.4003 62.2008 74.4146 62.192 73.2003V68.4132C62.192 65.1308 64.1501 62.0948 67.4191 60.2908C73.1959 57.1141 76.3023 50.5757 75.1496 44.0241Z" fill="white"/>
</g>
</svg>
