<svg width="72" height="72" viewBox="0 0 72 72" fill="none" xmlns="http://www.w3.org/2000/svg">
<path d="M55.5911 3.00001C55.0934 3.00153 54.5957 3.34689 54.5558 4.03324V10.2206C54.5558 11.5969 56.6203 11.5969 56.6203 10.2206V4.03324C56.5852 3.34088 56.0887 2.99848 55.5911 3.00001ZM59.6939 7.1269C59.1876 7.14249 58.688 7.49873 58.6828 8.15815V15.3747C58.714 16.7402 60.7145 16.7596 60.7452 15.3747V8.15815C60.7141 7.4419 60.2002 7.11272 59.6939 7.1269ZM29.8082 10.2186C29.3037 10.2201 28.8011 10.5643 28.781 11.2478V17.4371C28.781 18.7819 30.8137 18.8343 30.8435 17.4371V11.2478C30.8201 10.5579 30.3127 10.217 29.8082 10.2186ZM45.2767 11.1491C37.3134 11.1491 30.8435 17.6497 30.8435 25.6365C30.8435 33.6233 37.3134 40.122 45.2767 40.122C53.2401 40.122 59.718 33.6233 59.718 25.6365C59.718 17.6497 53.2401 11.1491 45.2767 11.1491ZM45.2767 13.2136C52.1213 13.2136 57.6556 18.7602 57.6556 25.6365C57.6556 32.5129 52.1213 38.0595 45.2767 38.0595C38.4322 38.0595 32.9079 32.5129 32.9079 25.6365C32.9079 18.7602 38.4322 13.2136 45.2767 13.2136ZM25.6833 14.3455C25.1792 14.3476 24.6762 14.6924 24.6561 15.3747V22.5912C24.7095 23.9688 26.6692 23.9769 26.7185 22.5912V15.3747C26.6913 14.6839 26.1873 14.3433 25.6833 14.3455ZM45.2808 16.4099C44.7755 16.4069 44.2683 16.7467 44.2455 17.4391V18.426C42.2252 18.8811 40.6906 20.6411 40.6906 22.8007C40.6906 24.3211 41.458 25.1901 42.3804 25.6405C43.3029 26.0909 44.2848 26.1562 45.174 26.2488C46.0633 26.3416 46.8633 26.4608 47.2747 26.6617C47.5293 26.8032 47.8085 26.94 47.8085 27.6426C47.8085 28.9593 46.7242 30.0584 45.319 30.0716C44.1395 30.0482 43.214 29.324 42.8215 28.0313C42.3692 26.7322 40.4772 27.3345 40.8517 28.6557C41.5152 30.7111 42.896 31.6581 44.2455 32.0051V32.9115C44.3192 34.3052 46.2878 34.2549 46.308 32.9115V32.0152C48.3324 31.5616 49.8709 29.7809 49.871 27.6426C49.871 26.1423 49.1036 25.2612 48.1811 24.8108C47.2587 24.3603 46.2768 24.2951 45.3875 24.2025C44.4983 24.1097 43.6982 23.9846 43.2868 23.7836C42.9808 23.6343 42.753 23.4363 42.753 22.8007C42.753 21.4598 43.8374 20.409 45.2425 20.3958C46.5068 20.4449 47.3275 21.1092 47.74 22.414C48.1805 23.6882 50.0637 23.1464 49.7119 21.7956C49.2013 20.1809 48.1152 18.9067 46.308 18.4482V17.4391C46.2885 16.7586 45.7861 16.4129 45.2808 16.4099ZM64.8621 26.7201C64.3595 26.7241 63.8609 27.0736 63.841 27.7513V39.993L62.5096 38.6678C61.5608 37.7184 60.0941 39.0947 61.0474 40.122L64.1471 43.2196C64.5494 43.6195 65.199 43.6195 65.6013 43.2196L68.6991 40.122C69.5997 39.1321 68.2914 37.7215 67.2368 38.6678L65.9054 39.9991V27.7513C65.8704 27.0549 65.3647 26.7155 64.8621 26.7201ZM26.6621 44.2529C25.0625 44.2529 22.2064 45.3314 19.945 46.414C18.7624 46.9802 17.784 47.4809 17.0447 47.8803C16.5097 46.9471 15.4999 46.3153 14.3578 46.3153H6.09987C4.36393 46.3153 3.00001 47.719 3.00013 49.415C3.00023 50.8763 2.9998 59.0357 3.00013 63.8461C3.00024 65.5421 4.37531 66.9458 6.09987 66.9458H14.3578C16.0539 66.9458 17.4251 65.5984 17.4455 63.8461L17.4475 63.6687C19.4591 63.3429 21.3767 62.9049 23.6349 62.8187C24.9098 62.8188 27.2948 64.6254 28.8435 65.719C31.0504 67.2769 33.4276 69 36.0057 69C36.7818 69 37.5613 68.7447 38.5878 68.3616C44.2296 66.2525 56.1276 59.5204 63.0595 55.4653C64.5944 54.6165 65.2286 52.7924 64.699 51.1994C64.6234 50.9718 64.5248 50.7473 64.4009 50.5327C63.4501 48.886 61.5201 48.4849 59.6435 49.1249L45.2122 54.1219C44.9596 53.0533 44.2803 52.0963 43.2605 51.5076C39.227 49.3449 35.0451 47.1227 30.9199 45.4411C29.5355 44.8935 28.0906 44.3068 26.6621 44.2529ZM30.1528 47.3506C34.3801 49.1456 38.0832 51.0431 42.2255 53.2962C43.3826 53.9643 43.4551 55.301 42.9868 56.1119C42.4371 57.0642 41.168 57.4474 40.163 56.8672L33.9111 53.2579C32.687 52.4294 31.5533 54.3967 32.8839 55.0404L39.1338 58.6477C41.0974 59.7814 43.6357 59.1048 44.7693 57.1411C44.9178 56.8839 45.0422 56.608 45.1299 56.3355L60.3184 51.0726C61.6449 50.6213 62.4291 51.0843 62.7072 51.7514C62.9855 52.4186 62.7594 53.2903 62.0647 53.6608C53.9987 58.3099 43.4988 64.2761 37.8649 66.4282C36.9265 66.7782 36.1677 66.9458 36.0059 66.9458C34.459 66.9458 32.2057 65.5733 30.0299 64.0374C28.5542 63.0443 25.8898 60.7936 23.6351 60.7564C21.9666 60.7603 19.2523 61.2422 17.4476 61.5741V50.0193C17.4476 50.0193 19.1692 49.0615 20.8254 48.2791C22.9642 47.2684 25.4618 46.3467 26.5978 46.3153C27.5517 46.3153 29.1308 46.9391 30.1528 47.3506ZM6.10003 48.3777H14.358C14.9823 48.3777 15.383 48.8977 15.383 49.417C15.383 54.7463 15.3851 62.8221 15.3851 63.8461C15.3851 64.407 14.9309 64.8832 14.3579 64.8833C14.3579 64.8833 8.85256 64.8854 6.09991 64.8854C5.54704 64.8854 5.06471 64.4352 5.06467 63.8461C5.06435 59.0358 5.06467 49.9036 5.06467 49.415C5.06467 48.7889 5.5667 48.3777 6.10003 48.3777ZM8.16251 60.7504C7.59296 60.7504 7.13125 61.2121 7.13125 61.7816C7.13125 62.3512 7.59296 62.8128 8.16251 62.8128C8.73203 62.8128 9.19373 62.3512 9.19373 61.7816C9.19373 61.2121 8.73203 60.7504 8.16251 60.7504Z" fill="#01C4DE"/>
</svg>
