<svg width="22" height="22" viewBox="0 0 22 22" fill="none" xmlns="http://www.w3.org/2000/svg">
<path d="M21.7832 20.7424L16.7626 15.7291C18.3659 13.8585 19.1824 11.4396 19.0406 8.97991C18.8989 6.52026 17.8099 4.21115 16.0022 2.53716C14.1945 0.863179 11.8086 -0.0455251 9.34536 0.00175677C6.88208 0.0490386 4.53287 1.04863 2.79075 2.79075C1.04863 4.53287 0.0490386 6.88208 0.00175677 9.34536C-0.0455251 11.8086 0.863179 14.1945 2.53716 16.0022C4.21115 17.8099 6.52026 18.8989 8.97991 19.0406C11.4396 19.1824 13.8585 18.3659 15.7291 16.7626L20.7424 21.7832C20.8106 21.8519 20.8916 21.9064 20.9809 21.9436C21.0703 21.9808 21.1661 22 21.2628 22C21.3596 22 21.4554 21.9808 21.5447 21.9436C21.634 21.9064 21.7151 21.8519 21.7832 21.7832C21.8519 21.7151 21.9064 21.634 21.9436 21.5447C21.9808 21.4554 22 21.3596 22 21.2628C22 21.1661 21.9808 21.0703 21.9436 20.9809C21.9064 20.8916 21.8519 20.8106 21.7832 20.7424ZM1.47344 9.53578C1.47344 7.9412 1.94629 6.38243 2.83219 5.05658C3.71809 3.73074 4.97725 2.69737 6.45045 2.08715C7.92365 1.47693 9.54472 1.31727 11.1087 1.62836C12.6726 1.93944 14.1092 2.70731 15.2367 3.83484C16.3642 4.96238 17.1321 6.39895 17.4432 7.96289C17.7543 9.52683 17.5946 11.1479 16.9844 12.6211C16.3742 14.0943 15.3408 15.3535 14.015 16.2394C12.6891 17.1253 11.1304 17.5981 9.53578 17.5981C7.39751 17.5981 5.34683 16.7487 3.83484 15.2367C2.32286 13.7247 1.47344 11.674 1.47344 9.53578Z" fill="#112843"/>
</svg>
