<svg width="120" height="90" viewBox="0 0 120 90" fill="none" xmlns="http://www.w3.org/2000/svg">
<g opacity="0.1">
<path d="M109.107 26.6074H28.5714C25.3225 26.6074 22.6786 29.2514 22.6786 32.5003V48.2146H14.8214C13.7371 48.2146 12.8571 49.0946 12.8571 50.1789C12.8571 51.2631 13.7371 52.1432 14.8214 52.1432H22.6786V79.6432H14.8214C13.7371 79.6432 12.8571 80.5232 12.8571 81.6075C12.8571 82.6917 13.7371 83.5717 14.8214 83.5717H22.6786V87.5003C22.6786 90.7492 25.3225 93.3932 28.5714 93.3932H109.107C112.356 93.3932 115 90.7492 115 87.5003V32.5003C115 29.2514 112.356 26.6074 109.107 26.6074ZM111.071 87.5003C111.071 88.5826 110.19 89.4646 109.107 89.4646H28.5714C27.4891 89.4646 26.6072 88.5826 26.6072 87.5003V32.5003C26.6072 31.418 27.4891 30.536 28.5714 30.536H109.107C110.19 30.536 111.071 31.418 111.071 32.5003V87.5003ZM5 38.3931C5 37.3089 5.88 36.4289 6.96429 36.4289H16.7857C17.87 36.4289 18.75 37.3089 18.75 38.3931C18.75 39.4774 17.87 40.3574 16.7857 40.3574H6.96429C5.87804 40.3574 5 39.4774 5 38.3931ZM16.7857 71.786H6.96429C5.88 71.786 5 70.906 5 69.8217C5 68.7374 5.88 67.8574 6.96429 67.8574H16.7857C17.87 67.8574 18.75 68.7374 18.75 69.8217C18.75 70.906 17.87 71.786 16.7857 71.786ZM102.943 37.3972C103.493 38.3322 103.181 39.5364 102.246 40.0864L68.8531 59.7292C68.5466 59.9099 68.2009 60.0003 67.8572 60.0003C67.4957 60.0003 67.1343 59.9001 66.8161 59.7017L35.3875 40.0589C34.4663 39.4833 34.1873 38.2714 34.7629 37.3521C35.3384 36.4328 36.5504 36.1519 37.4697 36.7274L67.8886 55.7398L100.256 36.7019C101.191 36.1519 102.393 36.4642 102.943 37.3972Z" fill="white"/>
</g>
</svg>
