<svg width="48" height="48" viewBox="0 0 48 48" fill="none" xmlns="http://www.w3.org/2000/svg">
<path d="M43.6429 10.6426H11.4286C10.129 10.6426 9.07143 11.7002 9.07143 12.9997V19.2854H5.92857C5.49486 19.2854 5.14286 19.6374 5.14286 20.0712C5.14286 20.5049 5.49486 20.8569 5.92857 20.8569H9.07143V31.8569H5.92857C5.49486 31.8569 5.14286 32.2089 5.14286 32.6426C5.14286 33.0763 5.49486 33.4283 5.92857 33.4283H9.07143V34.9997C9.07143 36.2993 10.129 37.3569 11.4286 37.3569H43.6429C44.9424 37.3569 46 36.2993 46 34.9997V12.9997C46 11.7002 44.9424 10.6426 43.6429 10.6426ZM44.4286 34.9997C44.4286 35.4327 44.0758 35.7854 43.6429 35.7854H11.4286C10.9956 35.7854 10.6429 35.4327 10.6429 34.9997V12.9997C10.6429 12.5668 10.9956 12.214 11.4286 12.214H43.6429C44.0758 12.214 44.4286 12.5668 44.4286 12.9997V34.9997ZM2 15.3569C2 14.9232 2.352 14.5712 2.78571 14.5712H6.71429C7.148 14.5712 7.5 14.9232 7.5 15.3569C7.5 15.7906 7.148 16.1426 6.71429 16.1426H2.78571C2.35121 16.1426 2 15.7906 2 15.3569ZM6.71429 28.714H2.78571C2.352 28.714 2 28.362 2 27.9283C2 27.4946 2.352 27.1426 2.78571 27.1426H6.71429C7.148 27.1426 7.5 27.4946 7.5 27.9283C7.5 28.362 7.148 28.714 6.71429 28.714ZM41.1773 14.9585C41.3973 15.3325 41.2724 15.8142 40.8984 16.0342L27.5412 23.8913C27.4187 23.9636 27.2804 23.9997 27.1429 23.9997C26.9983 23.9997 26.8537 23.9597 26.7264 23.8803L14.155 16.0232C13.7865 15.7929 13.6749 15.3082 13.9051 14.9404C14.1354 14.5727 14.6201 14.4604 14.9879 14.6906L27.1554 22.2955L40.1024 14.6804C40.4764 14.4604 40.9573 14.5853 41.1773 14.9585Z" fill="white"/>
</svg>
