<svg width="20" height="20" viewBox="0 0 20 20" fill="none" xmlns="http://www.w3.org/2000/svg">
<path d="M18.1847 4.43555H4.76207C4.22058 4.43555 3.77993 4.8762 3.77993 5.41769V8.03674H2.4704C2.28969 8.03674 2.14302 8.18341 2.14302 8.36412C2.14302 8.54484 2.28969 8.6915 2.4704 8.6915H3.77993V13.2748H2.4704C2.28969 13.2748 2.14302 13.4215 2.14302 13.6022C2.14302 13.7829 2.28969 13.9296 2.4704 13.9296H3.77993V14.5844C3.77993 15.1259 4.22058 15.5665 4.76207 15.5665H18.1847C18.7262 15.5665 19.1668 15.1259 19.1668 14.5844V5.41769C19.1668 4.8762 18.7262 4.43555 18.1847 4.43555ZM18.5121 14.5844C18.5121 14.7647 18.3651 14.9117 18.1847 14.9117H4.76207C4.58168 14.9117 4.43469 14.7647 4.43469 14.5844V5.41769C4.43469 5.2373 4.58168 5.09031 4.76207 5.09031H18.1847C18.3651 5.09031 18.5121 5.2373 18.5121 5.41769V14.5844ZM0.833496 6.39983C0.833496 6.21912 0.980163 6.07245 1.16088 6.07245H2.79778C2.9785 6.07245 3.12516 6.21912 3.12516 6.39983C3.12516 6.58055 2.9785 6.72721 2.79778 6.72721H1.16088C0.979835 6.72721 0.833496 6.58055 0.833496 6.39983ZM2.79778 11.9653H1.16088C0.980163 11.9653 0.833496 11.8186 0.833496 11.6379C0.833496 11.4572 0.980163 11.3106 1.16088 11.3106H2.79778C2.9785 11.3106 3.12516 11.4572 3.12516 11.6379C3.12516 11.8186 2.9785 11.9653 2.79778 11.9653ZM17.1574 6.23385C17.249 6.38968 17.197 6.59037 17.0412 6.68204L11.4757 9.95585C11.4246 9.98597 11.367 10.001 11.3097 10.001C11.2495 10.001 11.1892 9.98433 11.1362 9.95126L5.89808 6.67745C5.74454 6.58153 5.69805 6.37954 5.79397 6.22632C5.8899 6.07311 6.09189 6.02629 6.24511 6.12221L11.3149 9.29094L16.7095 6.11796C16.8653 6.02629 17.0657 6.07835 17.1574 6.23385Z" fill="white"/>
</svg>
