<svg width="64" height="64" viewBox="0 0 64 64" fill="none" xmlns="http://www.w3.org/2000/svg">
<path d="M56 7.5549V56.4438C56 59.1395 53.7937 61.3327 51.0817 61.3327H12.9652C10.2532 61.3327 8.04691 59.1395 8.04691 56.4438V52.7068C7.84538 52.0773 8.31839 51.4327 8.9842 51.4327H47.4287C47.9719 51.4327 48.4123 51.8705 48.4123 52.4105C48.4123 52.9504 47.9719 53.3882 47.4287 53.3882H10.0142V56.4438C10.0142 58.0612 11.3381 59.3771 12.9652 59.3771H51.0817C52.7088 59.3771 54.0327 58.0612 54.0327 56.4438V7.5549C54.0327 5.93754 52.7088 4.62157 51.0817 4.62157H12.9652C11.3381 4.62157 10.0142 5.93754 10.0142 7.5549V45.8105C10.0142 46.3504 9.57378 46.7882 9.03056 46.7882C8.48734 46.7882 8.04691 46.3504 8.04691 45.8105V7.5549C8.04691 4.85917 10.2532 2.66602 12.9652 2.66602H51.0817C53.7937 2.66602 56 4.85917 56 7.5549ZM34.8245 43.9321C35.1237 43.706 35.4099 43.4767 35.6821 43.2459C34.4523 41.2799 33.5319 38.2114 34.8602 36.3272C35.5398 35.363 36.9492 34.5391 38.3298 34.8321C40.0244 35.1907 43.2985 38.323 38.3482 43.4453C38.7539 43.8179 39.1032 43.986 39.3118 43.9782C39.6174 43.965 40.1708 43.4915 40.8077 42.2018C41.2276 41.3522 42.5039 41.5363 42.6609 42.472C42.7385 42.9342 42.9995 43.3383 43.3771 43.5804C44.354 44.2062 45.0948 43.3419 45.1344 42.4667C45.1588 41.9272 45.6212 41.5115 46.1613 41.5338C46.704 41.558 47.1243 42.0151 47.0998 42.5546C46.965 45.5374 43.6411 46.8678 41.6078 44.6289C40.2068 46.3768 38.4928 46.3097 36.904 44.7828C36.6213 45.0194 36.3251 45.2548 36.0151 45.489C35.5826 45.816 34.9654 45.7322 34.6368 45.3025C34.3081 44.8724 34.3921 44.259 34.8245 43.9321ZM37.1396 41.8527C38.5727 40.2897 39.2727 38.7923 38.9219 37.8335C38.8307 37.5867 38.4506 36.8568 37.9201 36.7445C37.4307 36.6412 36.7642 37.0339 36.4714 37.4494C35.7478 38.4759 36.4421 40.5995 37.1396 41.8527ZM49.1296 10.4271C49.1296 9.88715 48.6891 9.44935 48.1459 9.44935H33.637C33.0938 9.44935 32.6534 9.88715 32.6534 10.4271V24.8493C32.6534 25.3893 33.0938 25.8271 33.637 25.8271H48.1459C48.6891 25.8271 49.1296 25.3893 49.1296 24.8493V16.416C49.1296 15.876 48.6891 15.4382 48.1459 15.4382C47.6027 15.4382 47.1622 15.876 47.1622 16.416V23.8716H34.6207V11.4049H48.1459C48.6892 11.4049 49.1296 10.9671 49.1296 10.4271ZM15.9313 18.5549H23.4316C23.9748 18.5549 24.4153 18.1171 24.4153 17.5771C24.4153 17.0371 23.9748 16.5993 23.4316 16.5993H15.9313C15.388 16.5993 14.9476 17.0371 14.9476 17.5771C14.9476 18.1171 15.388 18.5549 15.9313 18.5549ZM15.9313 27.5993H28.3499C28.8931 27.5993 29.3335 27.1615 29.3335 26.6216C29.3335 26.0816 28.8931 25.6438 28.3499 25.6438H15.9313C15.388 25.6438 14.9476 26.0816 14.9476 26.6216C14.9476 27.1615 15.388 27.5993 15.9313 27.5993ZM15.9313 36.6438H29.5794C30.1227 36.6438 30.5631 36.206 30.5631 35.666C30.5631 35.126 30.1227 34.6882 29.5794 34.6882H15.9313C15.388 34.6882 14.9476 35.126 14.9476 35.666C14.9476 36.206 15.388 36.6438 15.9313 36.6438ZM15.9313 45.6882H25.8907C26.434 45.6882 26.8744 45.2504 26.8744 44.7105C26.8744 44.1705 26.434 43.7327 25.8907 43.7327H15.9313C15.388 43.7327 14.9476 44.1705 14.9476 44.7105C14.9476 45.2504 15.388 45.6882 15.9313 45.6882ZM38.9856 14.6438C38.4424 14.6438 38.002 15.0816 38.002 15.6216C38.002 16.1615 38.4424 16.5993 38.9856 16.5993H42.9202C43.4635 16.5993 43.9039 16.1615 43.9039 15.6216C43.9039 15.0816 43.4635 14.6438 42.9202 14.6438H38.9856Z" fill="#01C4DE"/>
</svg>
