<svg width="21" height="14" viewBox="0 0 21 14" fill="none" xmlns="http://www.w3.org/2000/svg">
<path d="M19.7109 2.60938C19.7812 2.89062 19.8398 3.24219 19.8867 3.66406C19.957 4.08594 20.0039 4.50781 20.0273 4.92969C20.0508 5.32812 20.0625 5.70312 20.0625 6.05469C20.0859 6.40625 20.0977 6.69922 20.0977 6.93359V7.25C20.0977 9.35938 19.9688 10.918 19.7109 11.9258C19.5938 12.3242 19.3828 12.6758 19.0781 12.9805C18.7734 13.2852 18.4102 13.4961 17.9883 13.6133C17.543 13.7305 16.6992 13.8242 15.457 13.8945C14.2148 13.9414 13.0781 13.9766 12.0469 14H10.5C6.49219 14 3.99609 13.8711 3.01172 13.6133C2.09766 13.3555 1.52344 12.793 1.28906 11.9258C1.17188 11.4805 1.07812 10.8711 1.00781 10.0977C0.960938 9.30078 0.925781 8.63281 0.902344 8.09375V7.25C0.902344 5.16406 1.03125 3.61719 1.28906 2.60938C1.40625 2.1875 1.61719 1.82422 1.92188 1.51953C2.22656 1.21484 2.58984 1.00391 3.01172 0.886719C3.45703 0.769531 4.30078 0.6875 5.54297 0.640625C6.78516 0.570312 7.92188 0.523438 8.95312 0.5H10.5C14.5078 0.5 17.0039 0.628906 17.9883 0.886719C18.4102 1.00391 18.7734 1.21484 19.0781 1.51953C19.3828 1.82422 19.5938 2.1875 19.7109 2.60938ZM8.53125 10.1328L13.5586 7.25L8.53125 4.40234V10.1328Z" fill="white"/>
</svg>
