<svg width="48" height="48" viewBox="0 0 48 48" fill="none" xmlns="http://www.w3.org/2000/svg">
<path d="M7.2381 2C4.35765 2 2 4.35765 2 7.2381V40.7619C2 43.6424 4.35765 46 7.2381 46H40.7619C43.6424 46 46 43.6424 46 40.7619V7.2381C46 4.35765 43.6424 2 40.7619 2H7.2381ZM7.2381 4.09524H14.1315C10.3904 7.98786 8.28571 13.0189 8.28571 18.2381C8.28571 23.6438 10.4964 28.8189 14.4773 32.737C14.603 32.957 14.7075 34.0357 14.2256 35.2824C13.9218 36.0681 13.314 37.0943 12.1406 37.482C11.6902 37.6286 11.3971 38.0704 11.4286 38.5419C11.46 39.0133 11.8065 39.4113 12.2675 39.5056C15.2742 40.1027 17.2212 39.201 18.7926 38.4887C20.2069 37.8391 21.1407 37.3986 22.5759 37.9853C25.5092 39.1272 28.6305 39.7143 31.8571 39.7143C36.1458 39.7143 40.2711 38.6674 43.9048 36.6901V40.7619C43.9048 42.5098 42.5098 43.9048 40.7619 43.9048H7.2381C5.49016 43.9048 4.09524 42.5098 4.09524 40.7619V7.2381C4.09524 5.49016 5.49016 4.09524 7.2381 4.09524ZM32.381 13.5238C32.9571 13.5238 33.4286 13.9952 33.4286 14.5714V24C33.4286 24.5762 32.9571 25.0476 32.381 25.0476C31.8048 25.0476 31.3333 24.5762 31.3333 24V14.5714C31.3333 13.9952 31.8048 13.5238 32.381 13.5238ZM16.6667 14.5714H21.9048C22.2819 14.5714 22.639 14.7805 22.8276 15.1157C23.0057 15.4405 22.9939 15.8488 22.7948 16.1735L18.5532 22.9524H21.9048C22.481 22.9524 22.9524 23.4238 22.9524 24C22.9524 24.5762 22.481 25.0476 21.9048 25.0476H16.6667C16.2895 25.0476 15.9324 24.8386 15.7439 24.5033C15.5658 24.1786 15.5776 23.7703 15.7766 23.4455L20.0182 16.6667H16.6667C16.0905 16.6667 15.619 16.1952 15.619 15.619C15.619 15.0429 16.0905 14.5714 16.6667 14.5714ZM26.619 17.7143C27.2581 17.7143 27.8547 17.8916 28.389 18.1849C28.5775 17.9125 28.8714 17.7143 29.2381 17.7143C29.8143 17.7143 30.2857 18.1857 30.2857 18.7619V24C30.2857 24.5762 29.8143 25.0476 29.2381 25.0476C28.8714 25.0476 28.5775 24.8494 28.389 24.577C27.8547 24.8703 27.2581 25.0476 26.619 25.0476C24.5971 25.0476 22.9524 23.4029 22.9524 21.381C22.9524 19.359 24.5971 17.7143 26.619 17.7143ZM38.1429 17.7143C40.1648 17.7143 41.8095 19.359 41.8095 21.381C41.8095 23.4029 40.1648 25.0476 38.1429 25.0476C36.121 25.0476 34.4762 23.4029 34.4762 21.381C34.4762 19.359 36.121 17.7143 38.1429 17.7143ZM26.619 19.8095C26.5104 19.8095 26.4043 19.8214 26.3019 19.8423C26.0971 19.884 25.9064 19.9647 25.7392 20.0776C25.572 20.1904 25.4285 20.3339 25.3157 20.5011C25.2028 20.6683 25.1221 20.859 25.0804 21.0638C25.0595 21.1662 25.0476 21.2723 25.0476 21.381C25.0476 21.4896 25.0595 21.5957 25.0804 21.6981C25.1012 21.8005 25.1307 21.8987 25.1704 21.9927C25.2101 22.0868 25.2593 22.1772 25.3157 22.2608C25.3721 22.3444 25.437 22.421 25.508 22.492C25.579 22.563 25.6556 22.6279 25.7392 22.6843C25.9064 22.7972 26.0971 22.8779 26.3019 22.9196C26.4043 22.9405 26.5104 22.9524 26.619 22.9524C26.7277 22.9524 26.8338 22.9405 26.9362 22.9196C27.6531 22.7734 28.1905 22.1418 28.1905 21.381C28.1905 20.5114 27.4886 19.8095 26.619 19.8095ZM38.1429 19.8095C38.0342 19.8095 37.9281 19.8214 37.8257 19.8423C37.7233 19.8632 37.6251 19.8926 37.5311 19.9323C37.437 19.972 37.3466 20.0212 37.263 20.0776C37.1794 20.134 37.1029 20.1989 37.0318 20.2699C36.8897 20.412 36.7736 20.5811 36.6942 20.7692C36.6545 20.8632 36.6251 20.9614 36.6042 21.0638C36.5833 21.1662 36.5714 21.2723 36.5714 21.381C36.5714 21.4896 36.5833 21.5957 36.6042 21.6981C36.6251 21.8005 36.6545 21.8987 36.6942 21.9927C36.7339 22.0868 36.7831 22.1772 36.8395 22.2608C36.8959 22.3444 36.9608 22.421 37.0318 22.492C37.1029 22.563 37.1794 22.6279 37.263 22.6843C37.3466 22.7407 37.437 22.7899 37.5311 22.8296C37.6251 22.8693 37.7233 22.8988 37.8257 22.9196C37.9281 22.9405 38.0342 22.9524 38.1429 22.9524C38.2515 22.9524 38.3576 22.9405 38.46 22.9196C39.1769 22.7734 39.7143 22.1418 39.7143 21.381C39.7143 20.5114 39.0124 19.8095 38.1429 19.8095Z" fill="white"/>
</svg>
