<svg width="97" height="28" viewBox="0 0 97 28" fill="none" xmlns="http://www.w3.org/2000/svg">
<path d="M96.064 24.7122C96.0639 25.0742 95.9924 25.4325 95.8537 25.7668C95.715 26.101 95.5118 26.4047 95.2556 26.6604C94.9995 26.9161 94.6955 27.1187 94.361 27.2569C94.0264 27.395 93.668 27.4658 93.306 27.4652H3.05604C2.69399 27.4658 2.33538 27.395 2.00068 27.2569C1.66599 27.1188 1.36176 26.9162 1.10538 26.6606C0.848996 26.4049 0.645476 26.1013 0.506438 25.767C0.367401 25.4327 0.295569 25.0743 0.295044 24.7122V2.75724C0.296104 2.02567 0.587462 1.32443 1.10513 0.807508C1.62281 0.290585 2.32447 0.000243554 3.05604 0.000244322H93.305C93.6672 0.00011297 94.0258 0.0713275 94.3604 0.209821C94.695 0.348314 94.9991 0.551373 95.2552 0.807397C95.5113 1.06342 95.7145 1.3674 95.8531 1.70196C95.9917 2.03651 96.063 2.39511 96.063 2.75724L96.064 24.7122Z" fill="white"/>
<path d="M96.064 24.7122C96.0639 25.0742 95.9924 25.4325 95.8537 25.7668C95.715 26.101 95.5118 26.4047 95.2556 26.6604C94.9995 26.9161 94.6955 27.1187 94.361 27.2569C94.0264 27.395 93.668 27.4658 93.306 27.4652H3.05604C2.69399 27.4658 2.33538 27.395 2.00068 27.2569C1.66599 27.1188 1.36176 26.9162 1.10538 26.6606C0.848996 26.4049 0.645476 26.1013 0.506438 25.767C0.367401 25.4327 0.295569 25.0743 0.295044 24.7122V2.75724C0.296104 2.02567 0.587462 1.32443 1.10513 0.807508C1.62281 0.290585 2.32447 0.000243554 3.05604 0.000244322H93.305C93.6672 0.00011297 94.0258 0.0713275 94.3604 0.209821C94.695 0.348314 94.9991 0.551373 95.2552 0.807397C95.5113 1.06342 95.7145 1.3674 95.8531 1.70196C95.9917 2.03651 96.063 2.39511 96.063 2.75724L96.064 24.7122Z" fill="black"/>
<path d="M21.3261 13.5913C21.3349 12.8877 21.5217 12.1978 21.8689 11.5859C22.2162 10.9739 22.7126 10.4597 23.3121 10.0913C22.9313 9.54782 22.4291 9.10057 21.8453 8.785C21.2616 8.46943 20.6123 8.29422 19.9491 8.27328C18.5341 8.12428 17.1621 9.12028 16.4411 9.12028C15.7201 9.12028 14.5961 8.28828 13.4001 8.31228C12.6266 8.33733 11.8729 8.56237 11.2124 8.96546C10.5518 9.36855 10.007 9.93593 9.63106 10.6123C8.00106 13.4343 9.21705 17.5813 10.7781 19.8623C11.5591 20.9803 12.4721 22.2263 13.6671 22.1823C14.8361 22.1353 15.272 21.4383 16.6831 21.4383C18.0941 21.4383 18.4911 22.1823 19.7091 22.1543C20.9641 22.1353 21.7531 21.0323 22.5091 19.9053C23.0706 19.1096 23.5026 18.2301 23.7891 17.2993C23.06 16.991 22.4377 16.4751 21.9998 15.8158C21.5618 15.1564 21.3275 14.3828 21.3261 13.5913ZM19.0261 6.77328C19.7103 5.95273 20.0472 4.89751 19.9651 3.83228C18.9212 3.94344 17.9574 4.44321 17.2651 5.23228C16.926 5.61795 16.6664 6.06669 16.501 6.5528C16.3356 7.03892 16.2676 7.55288 16.3011 8.06528C16.8238 8.07077 17.3409 7.95751 17.8134 7.73405C18.286 7.5106 18.7016 7.18276 19.0291 6.77528L19.0261 6.77328Z" fill="white"/>
<path d="M38.2561 21.9983H36.623L35.7281 19.1863H32.6151L31.763 21.9983H30.173L33.255 12.4263H35.1551L38.2561 21.9983ZM35.456 18.0073L34.6471 15.5073C34.5617 15.252 34.4007 14.652 34.164 13.7073H34.135C34.0397 14.1147 33.888 14.7147 33.68 15.5073L32.88 18.0073H35.456ZM46.1651 18.4623C46.2209 19.4793 45.8775 20.4778 45.208 21.2453C44.9386 21.5398 44.6094 21.7732 44.2423 21.9299C43.8753 22.0867 43.479 22.1632 43.08 22.1543C42.6935 22.1861 42.3056 22.1116 41.9583 21.9391C41.6109 21.7666 41.3173 21.5025 41.109 21.1753V24.7983H39.576V17.3683C39.576 16.631 39.5571 15.8747 39.5191 15.0993H40.8681L40.9541 16.1933H40.9831C41.2154 15.8374 41.5276 15.5407 41.8949 15.3269C42.2622 15.113 42.6744 14.988 43.0985 14.9616C43.5227 14.9353 43.9472 15.0085 44.3381 15.1753C44.729 15.3421 45.0755 15.5979 45.3501 15.9223C45.92 16.6442 46.2101 17.5476 46.167 18.4663L46.1651 18.4623ZM44.6031 18.5183C44.6268 17.9306 44.4679 17.35 44.148 16.8563C43.9999 16.6406 43.8001 16.4653 43.567 16.3464C43.3338 16.2275 43.0747 16.1687 42.813 16.1753C42.4365 16.1757 42.0721 16.3088 41.784 16.5513C41.4776 16.8029 41.266 17.1514 41.1841 17.5393C41.1421 17.6917 41.1183 17.8484 41.1131 18.0063V19.1583C41.1006 19.6255 41.2657 20.0801 41.575 20.4303C41.7244 20.6 41.9095 20.7345 42.1169 20.8242C42.3244 20.9139 42.5491 20.9566 42.7751 20.9493C43.0379 20.9598 43.2991 20.9041 43.5348 20.7874C43.7705 20.6707 43.9731 20.4967 44.1241 20.2813C44.4669 19.7609 44.6354 19.1448 44.6051 18.5223L44.6031 18.5183ZM54.1031 18.4623C54.1588 19.4792 53.8154 20.4778 53.146 21.2453C52.8763 21.5394 52.547 21.7726 52.1801 21.9293C51.8131 22.0861 51.417 22.1628 51.018 22.1543C50.6315 22.1861 50.2437 22.1116 49.8963 21.9391C49.549 21.7666 49.2553 21.5025 49.047 21.1753V24.7983H47.515V17.3683C47.515 16.631 47.496 15.8747 47.458 15.0993H48.807L48.893 16.1933H48.922C49.1544 15.8374 49.4668 15.5407 49.8341 15.3269C50.2015 15.113 50.6138 14.988 51.0381 14.9616C51.4623 14.9353 51.8868 15.0085 52.2778 15.1753C52.6688 15.3421 53.0154 15.5979 53.2901 15.9223C53.8593 16.6445 54.149 17.5478 54.106 18.4663L54.1031 18.4623ZM52.5401 18.5183C52.5639 17.9306 52.4049 17.35 52.0851 16.8563C51.9371 16.6406 51.7375 16.4653 51.5045 16.3464C51.2716 16.2274 51.0126 16.1686 50.7511 16.1753C50.3738 16.1752 50.0087 16.3084 49.7201 16.5513C49.4136 16.8029 49.2019 17.1514 49.12 17.5393C49.0781 17.6917 49.054 17.8484 49.0481 18.0063V19.1583C49.0359 19.6253 49.2006 20.0796 49.5091 20.4303C49.6586 20.5998 49.8436 20.7342 50.0511 20.8239C50.2585 20.9136 50.4831 20.9564 50.709 20.9493C50.9718 20.9599 51.2331 20.9043 51.4688 20.7876C51.7046 20.6708 51.9072 20.4968 52.0581 20.2813C52.4023 19.7613 52.5722 19.1453 52.5431 18.5223L52.5401 18.5183ZM62.979 19.3133C62.9912 19.6869 62.9213 20.0586 62.7743 20.4023C62.6272 20.7459 62.4066 21.0531 62.128 21.3023C61.3944 21.8986 60.4637 22.1977 59.5201 22.1403C58.6534 22.1807 57.7933 21.9725 57.041 21.5403L57.396 20.2623C58.0657 20.6609 58.8318 20.8684 59.6111 20.8623C60.0924 20.8914 60.5689 20.7533 60.9601 20.4713C61.1167 20.3475 61.2421 20.1886 61.3262 20.0074C61.4103 19.8263 61.4506 19.6279 61.4441 19.4283C61.4476 19.2464 61.414 19.0656 61.3452 18.8971C61.2764 18.7285 61.1739 18.5759 61.044 18.4483C60.6594 18.1138 60.2096 17.8625 59.7231 17.7103C58.0471 17.085 57.2087 16.171 57.208 14.9683C57.1994 14.6001 57.2749 14.2348 57.4288 13.9002C57.5827 13.5655 57.8109 13.2705 58.096 13.0373C58.7626 12.5099 59.598 12.2423 60.4471 12.2843C61.1975 12.2581 61.9431 12.4142 62.62 12.7393L62.235 13.9893C61.6689 13.6901 61.0363 13.5387 60.396 13.5493C59.9383 13.5227 59.4867 13.665 59.127 13.9493C59.0043 14.0577 58.9064 14.1912 58.84 14.3408C58.7736 14.4905 58.7401 14.6526 58.742 14.8163C58.7389 14.9959 58.7771 15.1737 58.8535 15.3361C58.93 15.4986 59.0428 15.6413 59.1831 15.7533C59.6046 16.0717 60.0741 16.3208 60.5741 16.4913C61.2619 16.7335 61.8842 17.132 62.3921 17.6553C62.7903 18.1156 63.0009 18.7089 62.982 19.3173L62.979 19.3133ZM68.062 16.2473H66.372V19.5983C66.372 20.451 66.6704 20.8767 67.2671 20.8753C67.4962 20.8807 67.725 20.8568 67.948 20.8043L67.99 21.9693C67.6053 22.0951 67.2016 22.1526 66.797 22.1393C66.5342 22.154 66.2714 22.112 66.0262 22.0162C65.7811 21.9205 65.5594 21.7732 65.3761 21.5843C64.984 21.0473 64.8022 20.3853 64.865 19.7233V16.2483H63.8581V15.0983H64.865V13.8343L66.3711 13.3793V15.0983H68.0611L68.062 16.2473ZM75.6731 18.4903C75.7105 19.4448 75.3859 20.3782 74.7641 21.1033C74.4449 21.4524 74.0532 21.7273 73.6165 21.9089C73.1798 22.0904 72.7086 22.1742 72.2361 22.1543C71.7832 22.1745 71.3314 22.0947 70.9129 21.9207C70.4943 21.7466 70.1191 21.4826 69.8141 21.1473C69.2025 20.4448 68.8808 19.5362 68.914 18.6053C68.8756 17.6428 69.2085 16.7023 69.844 15.9783C70.1628 15.6361 70.5523 15.3673 70.9854 15.1907C71.4185 15.014 71.8848 14.9337 72.352 14.9553C72.8077 14.9368 73.2621 15.0173 73.6837 15.1913C74.1053 15.3653 74.4841 15.6287 74.794 15.9633C75.402 16.6641 75.718 17.5715 75.677 18.4983L75.6731 18.4903ZM74.083 18.5253C74.0991 17.9548 73.9568 17.391 73.672 16.8963C73.542 16.6443 73.3441 16.4337 73.1006 16.2884C72.857 16.1431 72.5776 16.069 72.294 16.0743C72.0063 16.0662 71.722 16.139 71.4735 16.2843C71.225 16.4296 71.0221 16.6416 70.888 16.8963C70.6008 17.4002 70.4585 17.9737 70.477 18.5533C70.4606 19.1239 70.6029 19.6879 70.888 20.1823C71.0239 20.432 71.2248 20.6402 71.4695 20.7848C71.7142 20.9294 71.9935 21.005 72.2777 21.0036C72.562 21.0021 72.8405 20.9237 73.0837 20.7766C73.3269 20.6296 73.5257 20.4194 73.659 20.1683C73.9511 19.6723 74.0993 19.1048 74.0871 18.5293L74.083 18.5253ZM80.6601 16.4443C80.5007 16.4157 80.339 16.4016 80.177 16.4023C79.9341 16.3909 79.6923 16.4409 79.4738 16.5477C79.2553 16.6545 79.0673 16.8147 78.927 17.0133C78.6592 17.4161 78.5252 17.893 78.544 18.3763V21.9983H77.015V17.2693C77.015 16.4747 77.0001 15.7503 76.9701 15.0963H78.3061L78.362 16.4173H78.404C78.5494 15.9866 78.8157 15.6068 79.1711 15.3233C79.4909 15.0838 79.8795 14.9541 80.279 14.9533C80.4072 14.9527 80.5353 14.962 80.662 14.9813L80.6601 16.4443ZM87.5191 18.2203C87.5233 18.4549 87.5045 18.6894 87.463 18.9203H82.8631C82.8526 19.2141 82.9071 19.5066 83.0226 19.7769C83.138 20.0472 83.3116 20.2888 83.531 20.4843C83.958 20.8179 84.4897 20.9888 85.031 20.9663C85.6666 20.9749 86.2982 20.8643 86.893 20.6403L87.133 21.7043C86.3993 22.0046 85.6116 22.1499 84.8191 22.1313C84.3563 22.1568 83.8932 22.086 83.4591 21.9236C83.0251 21.7611 82.6294 21.5104 82.297 21.1873C81.9839 20.8467 81.7416 20.4471 81.5844 20.0119C81.4271 19.5767 81.358 19.1145 81.3811 18.6523C81.3469 17.7118 81.6493 16.7899 82.234 16.0523C82.5212 15.6914 82.8892 15.4032 83.3084 15.2109C83.7276 15.0185 84.1862 14.9276 84.6471 14.9453C85.0869 14.921 85.5256 15.01 85.9211 15.2038C86.3167 15.3976 86.6558 15.6898 86.906 16.0523C87.3311 16.6952 87.5464 17.454 87.5221 18.2243L87.5191 18.2203ZM86.057 17.8203C86.077 17.4062 85.9725 16.9956 85.757 16.6413C85.6307 16.434 85.4503 16.2649 85.2353 16.1521C85.0202 16.0394 84.7785 15.9873 84.536 16.0013C84.2968 15.997 84.0602 16.0518 83.8472 16.1608C83.6342 16.2698 83.4514 16.4297 83.315 16.6263C83.0537 16.9729 82.8963 17.3867 82.8611 17.8193L86.057 17.8203Z" fill="white"/>
<path d="M34.7191 9.02224H33.9191L33.48 7.64024H31.951L31.532 9.02224H30.7501L32.265 4.32224H33.2001L34.7191 9.02224ZM33.3441 7.06024L32.944 5.83124C32.902 5.70524 32.825 5.41224 32.707 4.94524H32.6931C32.6441 5.14524 32.5741 5.44524 32.4691 5.83124L32.0781 7.06024H33.3441ZM38.507 5.62924L37.222 9.02124H36.4891L35.246 5.62924H36.058L36.6381 7.42324C36.7381 7.72324 36.819 8.00924 36.882 8.28124H36.903C36.959 8.03724 37.042 7.75124 37.147 7.42324L37.72 5.62924H38.507ZM41.2421 9.02124L41.186 8.63024H41.165C41.0514 8.78408 40.9014 8.90735 40.7285 8.98902C40.5555 9.07069 40.3651 9.10822 40.1741 9.09824C40.039 9.10552 39.9038 9.08494 39.777 9.03779C39.6502 8.99063 39.5344 8.91791 39.4368 8.82413C39.3393 8.73036 39.2621 8.61753 39.21 8.49265C39.1579 8.36778 39.1321 8.23353 39.134 8.09824C39.134 7.26124 39.86 6.82824 41.116 6.82824V6.76724C41.116 6.32024 40.879 6.09724 40.416 6.09724C40.1022 6.09156 39.7939 6.17927 39.53 6.34924L39.377 5.84924C39.7304 5.64381 40.1345 5.54225 40.543 5.55624C41.429 5.55624 41.877 6.02424 41.877 6.95624V8.20524C41.8716 8.47612 41.888 8.74699 41.926 9.01524L41.2421 9.02124ZM41.137 7.33124C40.299 7.33124 39.8801 7.53124 39.8801 8.01524C39.8725 8.08549 39.8805 8.15655 39.9035 8.22334C39.9265 8.29014 39.9641 8.35102 40.0134 8.40165C40.0627 8.45228 40.1225 8.4914 40.1887 8.51622C40.2548 8.54104 40.3256 8.55095 40.3961 8.54524C40.5855 8.5504 40.7692 8.48079 40.9077 8.35148C41.0462 8.22217 41.1282 8.04355 41.136 7.85424L41.137 7.33124ZM43.55 5.07024C43.4622 5.06556 43.3775 5.03525 43.3066 4.98306C43.2358 4.93087 43.1817 4.85908 43.1511 4.77654C43.1205 4.694 43.1148 4.60432 43.1346 4.51855C43.1544 4.43278 43.1988 4.35466 43.2625 4.29385C43.3261 4.23303 43.4061 4.19217 43.4927 4.17628C43.5793 4.1604 43.6686 4.1702 43.7497 4.20448C43.8308 4.23875 43.9 4.296 43.949 4.36916C43.9979 4.44233 44.0243 4.52822 44.025 4.61624C44.0269 4.6783 44.0157 4.74006 43.9921 4.79751C43.9686 4.85496 43.9332 4.90682 43.8884 4.94972C43.8435 4.99262 43.7901 5.02561 43.7316 5.04655C43.6732 5.06748 43.611 5.0759 43.5491 5.07124L43.55 5.07024ZM43.941 9.02124H43.1871V5.63024H43.941V9.02124ZM46.0341 9.02124H45.28V4.07324H46.0341V9.02124ZM49.2341 9.02124L49.178 8.63024H49.158C49.0444 8.78408 48.8944 8.90735 48.7215 8.98902C48.5486 9.07069 48.358 9.10822 48.1671 9.09824C48.0319 9.10552 47.8968 9.08494 47.77 9.03779C47.6431 8.99063 47.5274 8.91791 47.4299 8.82413C47.3323 8.73036 47.2551 8.61753 47.203 8.49265C47.1509 8.36778 47.125 8.23353 47.127 8.09824C47.127 7.26124 47.8531 6.82824 49.1091 6.82824V6.76724C49.1091 6.32024 48.8721 6.09724 48.4091 6.09724C48.0953 6.09162 47.7869 6.17933 47.5231 6.34924L47.369 5.84924C47.7224 5.64381 48.1265 5.54225 48.535 5.55624C49.421 5.55624 49.868 6.02424 49.868 6.95624V8.20524C49.8631 8.47607 49.8791 8.74689 49.916 9.01524H49.2391L49.2341 9.02124ZM49.134 7.33124C48.296 7.33124 47.877 7.53124 47.877 8.01524C47.8694 8.08549 47.8775 8.15655 47.9005 8.22334C47.9236 8.29014 47.961 8.35102 48.0103 8.40165C48.0596 8.45228 48.1195 8.4914 48.1857 8.51622C48.2518 8.54104 48.3226 8.55095 48.3931 8.54524C48.5824 8.55014 48.7661 8.48045 48.9045 8.35119C49.0429 8.22193 49.125 8.04346 49.1331 7.85424L49.134 7.33124ZM52.9221 9.09824C52.7058 9.10873 52.4909 9.05799 52.3022 8.95185C52.1134 8.84572 51.9584 8.68849 51.855 8.49824H51.84L51.7971 9.02224H51.158C51.179 8.75024 51.186 8.44224 51.186 8.10824V4.07324H51.941V6.12624H51.955C52.0654 5.94113 52.225 5.79029 52.416 5.69054C52.6071 5.59078 52.8221 5.54602 53.037 5.56124C53.854 5.56124 54.4271 6.26124 54.4271 7.27824C54.4532 7.49765 54.4345 7.72007 54.3721 7.93203C54.3097 8.14399 54.205 8.34108 54.0641 8.51135C53.9233 8.68162 53.7494 8.82152 53.5529 8.92258C53.3564 9.02363 53.1414 9.08373 52.921 9.09924L52.9221 9.09824ZM52.769 6.15224C52.5396 6.1616 52.3232 6.26163 52.1674 6.43037C52.0116 6.5991 51.9291 6.82275 51.938 7.05224V7.64524C51.9353 7.75504 51.9543 7.8643 51.994 7.96671C52.0337 8.06911 52.0932 8.16263 52.1693 8.24186C52.2454 8.32109 52.3364 8.38445 52.4371 8.42828C52.5378 8.47212 52.6462 8.49556 52.756 8.49724C53.321 8.49724 53.6561 8.03724 53.6561 7.30424C53.6581 6.62124 53.305 6.15324 52.767 6.15324L52.769 6.15224ZM56.291 9.02124H55.538V4.07324H56.291V9.02124ZM60.3911 7.50624H58.1281C58.1237 7.64463 58.1489 7.78235 58.202 7.91022C58.255 8.0381 58.3348 8.15319 58.4359 8.24782C58.5369 8.34245 58.657 8.41445 58.7881 8.45901C58.9192 8.50357 59.0582 8.51967 59.196 8.50624C59.5079 8.50935 59.8178 8.45511 60.11 8.34624L60.2271 8.87024C59.8665 9.01743 59.4794 9.08858 59.09 9.07924C58.8619 9.09685 58.6327 9.06453 58.4183 8.98454C58.2039 8.90454 58.0095 8.77879 57.8486 8.61604C57.6878 8.45328 57.5643 8.25743 57.4868 8.04211C57.4093 7.82679 57.3797 7.59717 57.4 7.36924C57.3773 7.14291 57.4014 6.91432 57.4708 6.6977C57.5403 6.48108 57.6536 6.28108 57.8036 6.11016C57.9537 5.93924 58.1374 5.80105 58.3433 5.7042C58.5491 5.60735 58.7727 5.55393 59.0001 5.54724C59.2199 5.58328 59.4304 5.66262 59.6194 5.78065C59.8083 5.89869 59.972 6.05307 60.1008 6.23484C60.2297 6.41661 60.3211 6.62215 60.3699 6.83954C60.4187 7.05693 60.4239 7.28185 60.3851 7.50124L60.3911 7.50624ZM59.7001 6.96924C59.7001 6.44524 59.4341 6.07624 58.9531 6.07624C58.729 6.09523 58.5201 6.19743 58.3676 6.3627C58.2151 6.52798 58.13 6.74435 58.129 6.96924H59.7001ZM64.96 9.09824C64.735 9.10164 64.5118 9.05793 64.3046 8.96992C64.0975 8.88192 63.911 8.75158 63.7573 8.58725C63.6035 8.42292 63.4858 8.22825 63.4117 8.01573C63.3376 7.80322 63.3087 7.57756 63.327 7.35324C63.3069 7.12143 63.3361 6.88798 63.4125 6.6682C63.4889 6.44842 63.6108 6.24725 63.7704 6.07788C63.9299 5.90851 64.1235 5.77476 64.3383 5.68539C64.5532 5.59601 64.7844 5.55302 65.017 5.55924C65.2421 5.55374 65.4659 5.59581 65.6736 5.68271C65.8813 5.7696 66.0683 5.89936 66.2225 6.0635C66.3766 6.22764 66.4944 6.42246 66.5681 6.63523C66.6417 6.848 66.6697 7.07393 66.65 7.29824C66.6694 7.53041 66.6398 7.76406 66.5631 7.98405C66.4864 8.20405 66.3644 8.40547 66.2048 8.57527C66.0453 8.74507 65.8519 8.87946 65.6371 8.96972C65.4223 9.05998 65.191 9.10411 64.9581 9.09924L64.96 9.09824ZM64.9891 6.11024C64.4451 6.11024 64.0961 6.61924 64.0961 7.33124C64.0961 8.04324 64.4521 8.53924 64.9821 8.53924C65.5121 8.53924 65.8671 7.99424 65.8671 7.31724C65.8671 6.64024 65.521 6.11124 64.991 6.11124L64.9891 6.11024ZM70.7031 9.02124H69.9501V7.07424C69.9501 6.47424 69.7201 6.17424 69.2661 6.17424C69.1615 6.17792 69.0587 6.20249 68.9637 6.24651C68.8688 6.29053 68.7837 6.35311 68.7133 6.43056C68.643 6.508 68.5888 6.59874 68.5541 6.69744C68.5193 6.79614 68.5047 6.9008 68.511 7.00524V9.02324H67.7581V6.59924C67.7581 6.29924 67.75 5.97824 67.73 5.62924H68.3931L68.428 6.15324H68.449C68.5596 5.96799 68.7174 5.81545 68.9063 5.71125C69.0952 5.60705 69.3084 5.55494 69.524 5.56024C70.235 5.56024 70.7031 6.10524 70.7031 6.99124V9.02324V9.02124ZM75.6351 6.19424H74.806V7.84124C74.806 8.26057 74.9524 8.47024 75.2451 8.47024C75.3577 8.47125 75.47 8.45952 75.58 8.43524L75.6011 9.00824C75.4123 9.07073 75.2138 9.09917 75.015 9.09224C74.421 9.09224 74.066 8.76424 74.066 7.90524V6.19524H73.566V5.63024H74.066V5.00924L74.8051 4.78524V5.62924H75.634L75.6351 6.19424ZM79.627 9.02124H78.8721V7.08824C78.8721 6.48124 78.642 6.17424 78.188 6.17424C78.0844 6.17176 77.9814 6.19114 77.8858 6.23111C77.7902 6.27108 77.704 6.33074 77.633 6.40621C77.562 6.48168 77.5076 6.57127 77.4735 6.66914C77.4394 6.76701 77.4263 6.87097 77.4351 6.97424V9.01924H76.6801V4.07324H77.4351V6.11124H77.449C77.5542 5.93669 77.7041 5.79344 77.8833 5.69638C78.0625 5.59932 78.2644 5.55197 78.468 5.55924C79.187 5.55924 79.626 6.11724 79.626 7.00424L79.627 9.02124ZM83.4791 7.50624H81.217C81.2125 7.64467 81.2376 7.78246 81.2906 7.91042C81.3437 8.03837 81.4234 8.15353 81.5245 8.24819C81.6256 8.34286 81.7457 8.41485 81.8769 8.45935C82.0081 8.50385 82.1472 8.51984 82.285 8.50624C82.5969 8.50946 82.9068 8.45522 83.199 8.34624L83.317 8.87024C82.9561 9.01745 82.5687 9.0886 82.179 9.07924C81.9509 9.09685 81.7217 9.06453 81.5073 8.98454C81.2929 8.90454 81.0985 8.77879 80.9376 8.61604C80.7768 8.45328 80.6533 8.25743 80.5759 8.04211C80.4984 7.82679 80.4688 7.59717 80.4891 7.36924C80.4663 7.14291 80.4904 6.91432 80.5598 6.6977C80.6293 6.48108 80.7425 6.28108 80.8926 6.11016C81.0427 5.93924 81.2264 5.80105 81.4323 5.7042C81.6381 5.60735 81.8617 5.55393 82.0891 5.54724C82.2919 5.54746 82.4924 5.591 82.6771 5.67495C82.8618 5.7589 83.0265 5.88131 83.16 6.03401C83.2936 6.18671 83.393 6.36618 83.4517 6.5604C83.5103 6.75463 83.5268 6.95913 83.5001 7.16024C83.5074 7.27625 83.501 7.39273 83.481 7.50724L83.4791 7.50624ZM82.788 6.96924C82.788 6.44524 82.523 6.07624 82.041 6.07624C81.8164 6.09388 81.6068 6.19567 81.454 6.36124C81.3013 6.52681 81.2166 6.74395 81.217 6.96924H82.788Z" fill="white"/>
</svg>
