<svg width="96" height="28" viewBox="0 0 96 28" fill="none" xmlns="http://www.w3.org/2000/svg">
<path d="M96 24.7122C96 25.074 95.9287 25.4323 95.7902 25.7665C95.6517 26.1007 95.4486 26.4043 95.1926 26.66C94.9367 26.9156 94.6329 27.1184 94.2985 27.2565C93.9641 27.3947 93.6058 27.4656 93.244 27.4652H3.05404C2.69212 27.4656 2.33366 27.3947 1.99914 27.2566C1.66462 27.1185 1.36058 26.9158 1.10438 26.6602C0.848182 26.4045 0.644845 26.1009 0.50598 25.7667C0.367114 25.4325 0.295438 25.0742 0.295044 24.7122V2.75724C0.295839 2.02594 0.586837 1.32484 1.10414 0.807921C1.62143 0.290998 2.32274 0.000508674 3.05404 0.000244141H93.242C93.604 0.000244117 93.9625 0.0715633 94.297 0.210128C94.6314 0.348692 94.9353 0.551787 95.1912 0.807811C95.4471 1.06384 95.6501 1.36777 95.7885 1.70226C95.927 2.03675 95.9982 2.39524 95.998 2.75724L96 24.7122Z" fill="white"/>
<path fill-rule="evenodd" clip-rule="evenodd" d="M5.64007 3.63525C5.38449 3.9474 5.25626 4.34458 5.28107 4.74725V22.1703C5.25346 22.571 5.38538 22.9664 5.64807 23.2703L5.71007 23.3223L15.4731 13.5593V13.3403L5.70207 3.58325L5.64007 3.63525Z" fill="url(#paint0_linear_2_1621)"/>
<path fill-rule="evenodd" clip-rule="evenodd" d="M18.7201 16.8302L15.4641 13.5732V13.3452L18.7211 10.0872L18.7911 10.1312L22.644 12.3202C22.883 12.3998 23.0909 12.5526 23.2382 12.757C23.3855 12.9613 23.4648 13.2068 23.4648 13.4587C23.4648 13.7106 23.3855 13.9561 23.2382 14.1605C23.0909 14.3648 22.883 14.5176 22.644 14.5972L18.7911 16.7862L18.7201 16.8302Z" fill="url(#paint1_linear_2_1621)"/>
<path fill-rule="evenodd" clip-rule="evenodd" d="M18.7911 16.7863L15.4641 13.4583L5.64008 23.2833C5.86462 23.4807 6.15087 23.5938 6.44974 23.6033C6.7486 23.6128 7.04146 23.5181 7.27808 23.3353L18.7911 16.7863Z" fill="url(#paint2_linear_2_1621)"/>
<path fill-rule="evenodd" clip-rule="evenodd" d="M18.7911 10.1322L7.27808 3.59117C7.0422 3.40646 6.74889 3.31056 6.44945 3.32025C6.15001 3.32994 5.86352 3.4446 5.64008 3.64417L15.4631 13.4592L18.7911 10.1322Z" fill="url(#paint3_linear_2_1621)"/>
<path opacity="0.2" fill-rule="evenodd" clip-rule="evenodd" d="M18.7201 16.7161L7.2851 23.2161C7.05953 23.3898 6.78316 23.4846 6.49844 23.4861C6.21373 23.4875 5.93642 23.3956 5.7091 23.2241L5.64709 23.2861L5.7091 23.3381C5.93642 23.5096 6.21373 23.6015 6.49844 23.6001C6.78316 23.5987 7.05953 23.5038 7.2851 23.3301L18.7981 16.7891L18.7201 16.7161Z" fill="black"/>
<path opacity="0.12" fill-rule="evenodd" clip-rule="evenodd" d="M22.6441 14.4821L18.7121 16.715L18.782 16.785L22.6351 14.595C22.8616 14.4964 23.0573 14.3387 23.2021 14.1385C23.3469 13.9384 23.4353 13.703 23.4581 13.457C23.4142 13.6805 23.3175 13.8903 23.1758 14.0686C23.0342 14.247 22.8519 14.3888 22.6441 14.4821Z" fill="black"/>
<path opacity="0.25" fill-rule="evenodd" clip-rule="evenodd" d="M7.28107 3.70515L22.6471 12.4351C22.8554 12.5286 23.0387 12.6701 23.1818 12.8481C23.3248 13.0261 23.4236 13.2355 23.4701 13.4591C23.4471 13.2132 23.3586 12.978 23.2139 12.7778C23.0692 12.5777 22.8734 12.42 22.6471 12.3211L7.28107 3.59115C6.17407 2.96115 5.28107 3.48615 5.28107 4.74715V4.86115C5.28107 3.60015 6.17407 3.08415 7.28107 3.70515Z" fill="white"/>
<path fill-rule="evenodd" clip-rule="evenodd" d="M27.2161 12.905C27.2345 11.5551 27.784 10.2667 28.7454 9.31887C29.7069 8.37106 31.003 7.84014 32.3531 7.84105C32.9954 7.83202 33.6329 7.95119 34.2286 8.19158C34.8242 8.43197 35.366 8.78875 35.8221 9.24105L34.847 10.2161C34.1765 9.57007 33.2779 9.2153 32.347 9.22905C31.3858 9.25146 30.4717 9.649 29.7999 10.3367C29.128 11.0244 28.7518 11.9476 28.7518 12.909C28.7518 13.8705 29.128 14.7937 29.7999 15.4814C30.4717 16.1691 31.3858 16.5666 32.347 16.589C32.8203 16.6084 33.2924 16.5282 33.7327 16.3535C34.173 16.1789 34.5719 15.9136 34.9031 15.575C35.3426 15.0957 35.608 14.4825 35.657 13.834H32.3502V12.454H37.0052C37.1321 13.178 37.097 13.9211 36.9026 14.63C36.7083 15.3389 36.3595 15.996 35.8812 16.554C35.4266 17.0278 34.8765 17.3995 34.2674 17.6445C33.6583 17.8895 33.0039 18.0022 32.348 17.9751C30.9976 17.9765 29.7013 17.4457 28.7396 16.4979C27.7778 15.55 27.2282 14.2613 27.21 12.911L27.2161 12.905ZM40.846 11.448C40.2017 11.4506 39.5726 11.644 39.0381 12.0039C38.5037 12.3638 38.088 12.8739 37.8433 13.4699C37.5986 14.066 37.536 14.7211 37.6634 15.3527C37.7908 15.9843 38.1025 16.5639 38.5591 17.0185C39.0158 17.473 39.5969 17.7821 40.2291 17.9066C40.8612 18.0311 41.516 17.9655 42.1109 17.718C42.7058 17.4706 43.2142 17.0525 43.5716 16.5164C43.929 15.9803 44.1193 15.3503 44.119 14.706C44.1246 14.2756 44.044 13.8483 43.8814 13.4497C43.7189 13.051 43.478 12.6891 43.1729 12.3853C42.8678 12.0816 42.5049 11.8422 42.1055 11.6813C41.7062 11.5205 41.2784 11.4415 40.848 11.4491L40.846 11.448ZM40.846 16.685C40.4492 16.7134 40.0532 16.6215 39.7093 16.4216C39.3654 16.2216 39.0897 15.9227 38.918 15.5638C38.7464 15.205 38.6867 14.8027 38.7469 14.4095C38.8071 14.0162 38.9841 13.6502 39.2552 13.3591C39.5263 13.0679 39.8789 12.8652 40.2669 12.7772C40.6549 12.6891 41.0603 12.72 41.4305 12.8657C41.8007 13.0113 42.1184 13.265 42.3423 13.5938C42.5663 13.9226 42.6861 14.3112 42.6861 14.709C42.6983 14.9603 42.6601 15.2114 42.5738 15.4477C42.4875 15.6839 42.3549 15.9006 42.1837 16.0848C42.0124 16.269 41.8058 16.4171 41.5765 16.5203C41.3471 16.6236 41.0994 16.6799 40.848 16.6861L40.846 16.685ZM47.9861 11.448C47.3419 11.4506 46.7127 11.644 46.1783 12.0039C45.6439 12.3638 45.2279 12.8739 44.9832 13.4699C44.7385 14.066 44.6761 14.7211 44.8035 15.3527C44.9309 15.9843 45.2426 16.5639 45.6993 17.0185C46.1559 17.473 46.7368 17.7821 47.369 17.9066C48.0011 18.0311 48.6561 17.9655 49.251 17.718C49.8459 17.4706 50.3541 17.0525 50.7115 16.5164C51.0689 15.9803 51.2595 15.3503 51.2591 14.706C51.2649 14.2755 51.1843 13.8482 51.0218 13.4495C50.8593 13.0508 50.6181 12.6888 50.313 12.385C50.0079 12.0812 49.6451 11.8418 49.2457 11.6811C48.8463 11.5203 48.4186 11.4414 47.9881 11.4491L47.9861 11.448ZM47.9861 16.685C47.5893 16.7134 47.1931 16.6215 46.8492 16.4216C46.5053 16.2216 46.2296 15.9227 46.0579 15.5638C45.8863 15.205 45.8266 14.8027 45.8868 14.4095C45.9469 14.0162 46.1242 13.6502 46.3953 13.3591C46.6664 13.0679 47.0188 12.8652 47.4068 12.7772C47.7948 12.6891 48.2002 12.72 48.5704 12.8657C48.9406 13.0113 49.2583 13.265 49.4822 13.5938C49.7062 13.9226 49.826 14.3112 49.826 14.709C49.8382 14.9603 49.8002 15.2114 49.7139 15.4477C49.6276 15.6839 49.4948 15.9006 49.3235 16.0848C49.1523 16.269 48.946 16.4171 48.7166 16.5203C48.4873 16.6236 48.2396 16.6799 47.9881 16.6861L47.9861 16.685ZM56.7491 11.646V12.176H56.7C56.4829 11.939 56.2175 11.7513 55.9217 11.6256C55.6259 11.4998 55.3065 11.4389 54.9852 11.447C54.1445 11.4831 53.3502 11.8425 52.7681 12.4501C52.186 13.0577 51.8609 13.8666 51.8609 14.708C51.8609 15.5495 52.186 16.3584 52.7681 16.966C53.3502 17.5736 54.1445 17.933 54.9852 17.969C55.3076 17.9778 55.6282 17.9162 55.9244 17.7884C56.2206 17.6606 56.4852 17.4697 56.7 17.2291H56.7491V17.697C56.7491 18.944 56.0831 19.6121 55.0081 19.6121C54.6501 19.604 54.3026 19.4893 54.0101 19.2826C53.7176 19.076 53.4933 18.7868 53.366 18.452L52.117 18.971C52.3525 19.5431 52.7533 20.0319 53.2681 20.375C53.7829 20.7181 54.3885 20.8999 55.0071 20.8971C56.6841 20.8971 58.107 19.908 58.107 17.497V11.642L56.7491 11.646ZM55.107 16.685C54.6116 16.6433 54.1502 16.417 53.8138 16.0511C53.4774 15.6851 53.2906 15.2061 53.2906 14.709C53.2906 14.2119 53.4774 13.733 53.8138 13.367C54.1502 13.001 54.6116 12.7748 55.107 12.7331C55.5878 12.7944 56.0299 13.0288 56.3502 13.3926C56.6705 13.7563 56.8472 14.2244 56.8472 14.709C56.8472 15.1937 56.6705 15.6618 56.3502 16.0255C56.0299 16.3892 55.5878 16.6237 55.107 16.685ZM59.0941 8.18505H60.5281V17.769H59.0941V8.18505ZM64.4561 16.685C64.1243 16.6978 63.7963 16.6105 63.5147 16.4345C63.2331 16.2585 63.0109 16.0019 62.877 15.698L67.2371 13.898L67.087 13.527C66.8908 12.9367 66.5179 12.421 66.0186 12.05C65.5193 11.679 64.9178 11.4706 64.296 11.4531C63.877 11.4557 63.4631 11.5433 63.0789 11.7105C62.6947 11.8777 62.3484 12.1211 62.0609 12.4259C61.7733 12.7307 61.5506 13.0906 61.4061 13.4838C61.2616 13.8771 61.1983 14.2956 61.22 14.714C61.2107 15.1427 61.2878 15.5688 61.4468 15.9669C61.6059 16.3651 61.8435 16.7271 62.1456 17.0314C62.4476 17.3357 62.8079 17.576 63.2049 17.7379C63.6019 17.8999 64.0274 17.9802 64.4561 17.974C64.9935 17.9776 65.5231 17.8473 65.9976 17.5951C66.4721 17.3428 66.8765 16.9765 67.1741 16.529L66.063 15.7891C65.896 16.0646 65.6603 16.2921 65.379 16.4493C65.0977 16.6066 64.7803 16.6881 64.4581 16.6861L64.4561 16.685ZM64.3441 12.708C64.5913 12.692 64.8377 12.7489 65.0528 12.8718C65.2679 12.9946 65.4422 13.178 65.554 13.399L62.638 14.61C62.6227 14.3724 62.6552 14.1342 62.7332 13.9093C62.8112 13.6843 62.9333 13.4772 63.0923 13.3001C63.2514 13.1229 63.4442 12.9793 63.6595 12.8776C63.8748 12.776 64.1081 12.7183 64.346 12.708H64.3441ZM73.525 8.18804H70.098V17.7721H71.5281V14.142H73.5281C73.9328 14.1643 74.3376 14.1038 74.7181 13.9643C75.0986 13.8248 75.4467 13.6091 75.741 13.3306C76.0354 13.052 76.2698 12.7163 76.43 12.344C76.5902 11.9718 76.6729 11.5708 76.6729 11.1655C76.6729 10.7603 76.5902 10.3593 76.43 9.98705C76.2698 9.61481 76.0354 9.27912 75.741 9.00054C75.4467 8.72196 75.0986 8.50631 74.7181 8.36678C74.3376 8.22725 73.9328 8.16679 73.5281 8.18905L73.525 8.18804ZM73.5621 12.808H71.5281V9.52205H73.5621C73.7827 9.51436 74.0025 9.55114 74.2086 9.63024C74.4146 9.70934 74.6028 9.82915 74.7615 9.98247C74.9203 10.1358 75.0464 10.3195 75.1326 10.5227C75.2189 10.7259 75.2635 10.9443 75.2635 11.165C75.2635 11.3857 75.2189 11.6042 75.1326 11.8074C75.0464 12.0106 74.9203 12.1943 74.7615 12.3476C74.6028 12.5009 74.4146 12.6207 74.2086 12.6998C74.0025 12.779 73.7827 12.8157 73.5621 12.808ZM78.888 17.7721V8.18804H77.4581V17.7721H78.888ZM85.313 17.7551V14.081C85.318 13.7089 85.2439 13.34 85.0958 12.9986C84.9476 12.6572 84.7287 12.3512 84.4534 12.1007C84.1782 11.8503 83.8529 11.661 83.4991 11.5456C83.1453 11.4301 82.7712 11.3911 82.4012 11.4311C81.8795 11.401 81.3602 11.5238 80.9073 11.7844C80.4544 12.045 80.0874 12.432 79.8511 12.898L81.1202 13.4271C81.2468 13.1961 81.4377 13.0069 81.67 12.8826C81.9022 12.7584 82.1656 12.7043 82.428 12.727C82.7905 12.6925 83.1518 12.8029 83.4329 13.0342C83.7141 13.2655 83.8921 13.5988 83.928 13.961V14.0611C83.4689 13.8163 82.9564 13.6889 82.4361 13.6901C81.0681 13.6901 79.6751 14.442 79.6751 15.847C79.6885 16.1432 79.761 16.4336 79.8887 16.7012C80.0164 16.9687 80.1966 17.2078 80.4185 17.4044C80.6404 17.601 80.8995 17.7511 81.1805 17.8457C81.4614 17.9402 81.7584 17.9774 82.054 17.955C82.4141 17.9765 82.7736 17.9009 83.0945 17.7363C83.4155 17.5717 83.6863 17.324 83.879 17.019H83.928V17.7591H85.3101L85.313 17.7551ZM82.23 16.684C81.761 16.684 81.107 16.45 81.107 15.872C81.107 15.132 81.9211 14.847 82.6241 14.847C83.0809 14.8345 83.5328 14.9451 83.9322 15.167C83.8792 15.5821 83.6782 15.9642 83.366 16.2429C83.0539 16.5216 82.6514 16.6783 82.233 16.684H82.23ZM90.3421 11.641L88.7032 15.795H88.6531L86.9532 11.641H85.4161L87.9671 17.4491L86.512 20.679H88.003L91.9361 11.641H90.3421Z" fill="#808285"/>
<defs>
<linearGradient id="paint0_linear_2_1621" x1="36.0784" y1="19.335" x2="34.8813" y2="19.1749" gradientUnits="userSpaceOnUse">
<stop stop-color="#00A0FF"/>
<stop offset="0.007" stop-color="#00A1FF"/>
<stop offset="0.26" stop-color="#00BEFF"/>
<stop offset="0.512" stop-color="#00D2FF"/>
<stop offset="0.76" stop-color="#00DFFF"/>
<stop offset="1" stop-color="#00E3FF"/>
</linearGradient>
<linearGradient id="paint1_linear_2_1621" x1="36.5221" y1="18.4755" x2="34.4339" y2="18.4755" gradientUnits="userSpaceOnUse">
<stop stop-color="#FFE000"/>
<stop offset="0.409" stop-color="#FFBD00"/>
<stop offset="0.775" stop-color="#FFA500"/>
<stop offset="1" stop-color="#FF9C00"/>
</linearGradient>
<linearGradient id="paint2_linear_2_1621" x1="36.6764" y1="18.5717" x2="35.8902" y2="16.8391" gradientUnits="userSpaceOnUse">
<stop stop-color="#FF3A44"/>
<stop offset="1" stop-color="#C31162"/>
</linearGradient>
<linearGradient id="paint3_linear_2_1621" x1="35.7559" y1="20.0702" x2="36.1143" y2="19.2878" gradientUnits="userSpaceOnUse">
<stop stop-color="#32A071"/>
<stop offset="0.069" stop-color="#2DA771"/>
<stop offset="0.476" stop-color="#15CF74"/>
<stop offset="0.801" stop-color="#06E775"/>
<stop offset="1" stop-color="#00F076"/>
</linearGradient>
</defs>
</svg>
