<svg width="12" height="12" viewBox="0 0 12 12" fill="none" xmlns="http://www.w3.org/2000/svg">
<path d="M6 12C9.31371 12 12 9.31371 12 6C12 2.68629 9.31371 0 6 0C2.68629 0 0 2.68629 0 6C0 9.31371 2.68629 12 6 12Z" fill="#1C74E4"/>
<path d="M7.62201 4.26074L5.27503 6.6167L4.49903 5.83252C4.37685 5.70851 4.22045 5.62411 4.04987 5.58936C3.87929 5.5546 3.70228 5.57138 3.54133 5.6377C3.38037 5.70401 3.24277 5.8166 3.14619 5.96143C3.0496 6.10625 2.9984 6.2766 2.99903 6.45068C2.99896 6.56586 3.02158 6.67974 3.06568 6.78613C3.10978 6.89253 3.17445 6.98946 3.25599 7.0708L4.65601 8.4707C4.73808 8.55089 4.83397 8.61551 4.93903 8.66162C5.04498 8.70799 5.15938 8.73193 5.27503 8.73193C5.39068 8.73193 5.50508 8.70799 5.61103 8.66162C5.71641 8.61556 5.81262 8.55093 5.89503 8.4707L8.89503 5.49463C8.97639 5.41328 9.04093 5.31674 9.08497 5.21045C9.129 5.10415 9.15168 4.99054 9.15168 4.87549C9.15168 4.76043 9.129 4.64633 9.08497 4.54004C9.04093 4.43374 8.97639 4.33721 8.89503 4.25586C8.72959 4.0937 8.50717 4.00293 8.27552 4.00293C8.04387 4.00293 7.82144 4.0937 7.65601 4.25586L7.62201 4.26074Z" fill="white"/>
</svg>
