<svg width="20" height="20" viewBox="0 0 20 20" fill="none" xmlns="http://www.w3.org/2000/svg">
<path d="M13.71 10.7102C13.8913 10.5182 13.9923 10.2642 13.9923 10.0002C13.9923 9.73614 13.8913 9.48209 13.71 9.29014L10.71 6.29014C10.5217 6.10184 10.2663 5.99608 9.99999 5.99608C9.73369 5.99608 9.47831 6.10184 9.29 6.29014C9.1017 6.47845 8.9959 6.73386 8.9959 7.00017C8.9959 7.26647 9.1017 7.52188 9.29 7.71019L10.59 9.00016H6.99999C6.73478 9.00016 6.48044 9.10554 6.2929 9.29307C6.10536 9.48061 5.99999 9.73495 5.99999 10.0002C5.99999 10.2654 6.10536 10.5197 6.2929 10.7073C6.48044 10.8948 6.73478 11.0002 6.99999 11.0002H10.59L9.29 12.2901C9.1017 12.4784 8.9959 12.7339 8.9959 13.0002C8.9959 13.2665 9.1017 13.5219 9.29 13.7102C9.47831 13.8985 9.73369 14.0043 9.99999 14.0043C10.2663 14.0043 10.5217 13.8985 10.71 13.7102L13.71 10.7102ZM20 10.0002C20 7.68661 19.1979 5.44459 17.7302 3.65617C16.2625 1.86775 14.2201 0.643563 11.951 0.192182C9.68192 -0.259199 7.32651 0.0901911 5.28613 1.18077C3.24574 2.27135 1.64664 4.03564 0.761254 6.17308C-0.12413 8.31051 -0.240999 10.6888 0.430565 12.9028C1.10213 15.1167 2.52057 17.0293 4.44421 18.3147C6.36784 19.6 8.67765 20.1786 10.9801 19.9519C13.2825 19.7251 15.4351 18.7071 17.071 17.0711C18.9464 15.1958 20 12.6523 20 10.0002ZM1.99999 10.0002C2.00006 8.14933 2.64188 6.35577 3.81609 4.92509C4.9903 3.49442 6.62425 2.51512 8.43954 2.1541C10.2548 1.79308 12.1391 2.0727 13.7714 2.94523C15.4037 3.81777 16.6829 5.22922 17.3911 6.93919C18.0994 8.64917 18.1928 10.5519 17.6554 12.323C17.1181 14.0941 15.9833 15.6241 14.4444 16.6523C12.9054 17.6806 11.0576 18.1434 9.21563 17.9619C7.37371 17.7804 5.65169 16.9659 4.34298 15.6571C3.60012 14.9142 3.01086 14.0323 2.60885 13.0617C2.20684 12.0911 1.99995 11.0508 1.99999 10.0002Z" fill="#003DC6"/>
</svg>
