<svg width="20" height="20" viewBox="0 0 20 20" fill="none" xmlns="http://www.w3.org/2000/svg">
<path d="M19.9451 10.0005C19.9454 11.9388 19.3709 13.8338 18.2941 15.4456C17.2174 17.0575 15.6869 18.3138 13.8961 19.0558C12.1053 19.7977 10.1347 19.9919 8.23358 19.6138C6.33242 19.2358 4.58607 18.3024 3.21542 16.9317C1.84477 15.5611 0.911377 13.8147 0.533293 11.9136C0.15521 10.0124 0.349419 8.04181 1.09136 6.25103C1.8333 4.46024 3.08964 2.92971 4.70149 1.853C6.31334 0.776281 8.20829 0.201752 10.1467 0.202073C12.7448 0.204091 15.2358 1.23707 17.073 3.07418C18.9101 4.9113 19.943 7.40238 19.9451 10.0005ZM6.76672 15.914L10.146 12.5347L13.5245 15.9133L16.0616 13.3762L12.6831 9.99762L16.0595 6.62119L13.5224 4.08409L10.146 7.46052L6.76955 4.08409L4.23528 6.61836L7.61171 9.99479L4.23316 13.3734L6.76672 15.914Z" fill="#FB4E4C"/>
</svg>
