<svg width="9" height="9" viewBox="0 0 9 9" fill="none" xmlns="http://www.w3.org/2000/svg">
<path d="M4.024 0C3.22813 0 2.45013 0.236004 1.78839 0.678166C1.12664 1.12033 0.610878 1.74879 0.306311 2.48408C0.00174347 3.21937 -0.0779451 4.02846 0.0773219 4.80904C0.232589 5.58962 0.615838 6.30663 1.1786 6.8694C1.74137 7.43216 2.45838 7.81541 3.23896 7.97068C4.01954 8.12595 4.82863 8.04626 5.56392 7.74169C6.29921 7.43712 6.92767 6.92136 7.36984 6.25961C7.812 5.59787 8.048 4.81987 8.048 4.024C8.048 2.95677 7.62405 1.93325 6.8694 1.1786C6.11475 0.423956 5.09123 0 4.024 0ZM4.024 0.8C4.67247 0.796897 5.30658 0.990883 5.84232 1.35626C6.37806 1.72164 6.79015 2.24116 7.024 2.846C6.08134 2.42159 5.05775 2.20698 4.024 2.217C2.99025 2.20698 1.96666 2.42159 1.024 2.846C1.25785 2.24116 1.66994 1.72164 2.20568 1.35626C2.74143 0.990883 3.37553 0.796897 4.024 0.8ZM3.361 7.169C2.67988 7.02347 2.0641 6.66154 1.60559 6.13725C1.14709 5.61297 0.870458 4.95444 0.817002 4.26C2.017 4.26 3.362 5.86 3.362 7.174L3.361 7.169ZM4.024 4.622C3.90533 4.622 3.78933 4.58681 3.69066 4.52088C3.59199 4.45495 3.51509 4.36125 3.46967 4.25161C3.42426 4.14197 3.41238 4.02133 3.43553 3.90495C3.45868 3.78856 3.51583 3.68165 3.59974 3.59774C3.68365 3.51382 3.79056 3.45668 3.90695 3.43353C4.02334 3.41038 4.14398 3.42226 4.25361 3.46767C4.36325 3.51308 4.45695 3.58999 4.52288 3.68866C4.58881 3.78733 4.624 3.90333 4.624 4.022C4.624 4.18113 4.56079 4.33374 4.44827 4.44626C4.33574 4.55879 4.18313 4.622 4.024 4.622ZM4.687 7.169C4.687 5.855 6.03 4.255 7.232 4.255C7.18056 4.95135 6.90472 5.61224 6.44586 6.13854C5.98699 6.66484 5.36985 7.02816 4.687 7.174V7.169Z" fill="#797979"/>
</svg>
