<svg width="20" height="20" viewBox="0 0 20 20" fill="none" xmlns="http://www.w3.org/2000/svg">
<path d="M9.29006 13.71C9.482 13.8913 9.73605 13.9923 10.0001 13.9923C10.2641 13.9923 10.5182 13.8913 10.7101 13.71L13.7101 10.71C13.8984 10.5217 14.0042 10.2663 14.0042 9.99999C14.0042 9.73369 13.8984 9.47831 13.7101 9.29C13.5218 9.1017 13.2664 8.9959 13.0001 8.9959C12.7338 8.9959 12.4784 9.1017 12.2901 9.29L11.0001 10.59V6.99999C11.0001 6.73478 10.8947 6.48044 10.7072 6.2929C10.5196 6.10536 10.2653 5.99999 10.0001 5.99999C9.73486 5.99999 9.48052 6.10536 9.29299 6.2929C9.10545 6.48044 9.00008 6.73478 9.00008 6.99999V10.59L7.7101 9.29C7.5218 9.1017 7.26638 8.9959 7.00008 8.9959C6.73378 8.9959 6.47836 9.1017 6.29006 9.29C6.10175 9.47831 5.99599 9.73369 5.99599 9.99999C5.99599 10.2663 6.10175 10.5217 6.29006 10.71L9.29006 13.71ZM10.0001 20C12.3136 20 14.5557 19.1979 16.3441 17.7302C18.1325 16.2625 19.3567 14.2201 19.8081 11.951C20.2594 9.68192 19.9101 7.32651 18.8195 5.28613C17.7289 3.24574 15.9646 1.64664 13.8272 0.761254C11.6897 -0.12413 9.31143 -0.240999 7.09749 0.430565C4.88355 1.10213 2.97093 2.52057 1.68556 4.44421C0.400202 6.36784 -0.178389 8.67765 0.048357 10.9801C0.275103 13.2825 1.29318 15.4351 2.92909 17.071C4.80443 18.9464 7.34793 20 10.0001 20ZM10.0001 1.99999C11.8509 2.00006 13.6445 2.64188 15.0752 3.81609C16.5058 4.9903 17.4851 6.62425 17.8461 8.43954C18.2072 10.2548 17.9275 12.1391 17.055 13.7714C16.1825 15.4037 14.771 16.6829 13.0611 17.3911C11.3511 18.0994 9.44839 18.1928 7.67726 17.6554C5.90614 17.1181 4.37614 15.9833 3.34792 14.4444C2.31969 12.9054 1.85688 11.0576 2.03835 9.21563C2.21981 7.37371 3.03432 5.65169 4.3431 4.34298C5.08599 3.60012 5.96793 3.01086 6.93856 2.60885C7.90919 2.20684 8.94949 1.99995 10.0001 1.99999Z" fill="#003DC6"/>
</svg>
