<svg width="8" height="16" viewBox="0 0 8 16" fill="none" xmlns="http://www.w3.org/2000/svg">
<path d="M4.52698 15.5431C4.48006 15.5994 4.42134 15.6447 4.35498 15.6757C4.28862 15.7068 4.21625 15.7229 4.14298 15.7229C4.06971 15.7229 3.99734 15.7068 3.93098 15.6757C3.86462 15.6447 3.80591 15.5994 3.75898 15.5431L0.78698 11.9781C0.726176 11.9051 0.687428 11.8163 0.675275 11.7221C0.663122 11.6279 0.678067 11.5321 0.718359 11.4461C0.75865 11.36 0.822622 11.2873 0.902782 11.2363C0.982943 11.1853 1.07597 11.1582 1.17098 11.1581H7.11298C7.20799 11.1582 7.30102 11.1853 7.38118 11.2363C7.46134 11.2873 7.52531 11.36 7.5656 11.4461C7.60589 11.5321 7.62084 11.6279 7.60869 11.7221C7.59653 11.8163 7.55778 11.9051 7.49698 11.9781L4.52698 15.5431Z" fill="#0A43C3"/>
<path d="M3.75793 0.458095C3.80486 0.401825 3.86358 0.356555 3.92993 0.325489C3.99629 0.294423 4.06866 0.27832 4.14193 0.27832C4.2152 0.27832 4.28757 0.294423 4.35393 0.325489C4.42029 0.356555 4.47901 0.401825 4.52593 0.458095L7.49793 4.0231C7.55874 4.0961 7.59748 4.18491 7.60964 4.27914C7.62179 4.37336 7.60685 4.4691 7.56655 4.55514C7.52626 4.64118 7.46229 4.71396 7.38213 4.76496C7.30197 4.81596 7.20894 4.84306 7.11393 4.8431H1.17193C1.07692 4.84306 0.983894 4.81596 0.903734 4.76496C0.823574 4.71396 0.759602 4.64118 0.71931 4.55514C0.679018 4.4691 0.664074 4.37336 0.676227 4.27914C0.68838 4.18491 0.727127 4.0961 0.787932 4.0231L3.75793 0.458095Z" fill="#0A43C3"/>
</svg>
