<svg width="10" height="6" viewBox="0 0 10 6" fill="none" xmlns="http://www.w3.org/2000/svg">
<path d="M5.38395 5.53897C5.33702 5.59525 5.27831 5.64052 5.21195 5.67158C5.14559 5.70265 5.07322 5.71875 4.99995 5.71875C4.92668 5.71875 4.85431 5.70265 4.78795 5.67158C4.72159 5.64052 4.66288 5.59525 4.61595 5.53897L0.682949 0.819975C0.62209 0.746909 0.583328 0.658002 0.571212 0.563685C0.559095 0.469368 0.574125 0.373551 0.614539 0.287474C0.654953 0.201397 0.719075 0.12863 0.799384 0.0777078C0.879693 0.0267854 0.972857 -0.000179768 1.06795 -2.52724e-05L8.93195 -2.52724e-05C9.02696 1.04904e-05 9.11999 0.0271139 9.20015 0.0781107C9.28031 0.129107 9.34428 0.201888 9.38457 0.287928C9.42486 0.373968 9.43981 0.469707 9.42765 0.563933C9.4155 0.65816 9.37675 0.746974 9.31595 0.819975L5.38395 5.53897Z" fill="#0A43C3"/>
</svg>
