<svg width="11" height="11" viewBox="0 0 11 11" fill="none" xmlns="http://www.w3.org/2000/svg">
<path d="M10.1741 3.70346L6.54209 0.0754633C6.5183 0.0515472 6.49002 0.0325685 6.45887 0.019618C6.42772 0.00666757 6.39432 0 6.36059 0C6.32686 0 6.29346 0.00666757 6.26231 0.019618C6.23116 0.0325685 6.20288 0.0515472 6.17909 0.0754633L5.64209 0.619463L9.63209 4.60946L10.1761 4.06546C10.2 4.04167 10.219 4.01339 10.2319 3.98224C10.2449 3.9511 10.2516 3.9177 10.2516 3.88396C10.2516 3.85023 10.2449 3.81683 10.2319 3.78568C10.219 3.75453 10.2 3.72625 10.1761 3.70246L10.1741 3.70346Z" fill="#797979"/>
<path d="M2.55205 8.78466L5.27405 6.06065L4.18605 4.97266L1.46405 7.69666C1.19744 7.65844 0.925573 7.70511 0.686964 7.83002C0.448355 7.95494 0.255108 8.15177 0.134606 8.39264C0.0141031 8.63351 -0.0275434 8.90619 0.0155681 9.17205C0.0586795 9.4379 0.184362 9.68345 0.374807 9.87389C0.565251 10.0643 0.810798 10.19 1.07665 10.2331C1.34251 10.2762 1.61519 10.2346 1.85606 10.1141C2.09693 9.9936 2.29377 9.80035 2.41868 9.56174C2.5436 9.32313 2.59026 9.05126 2.55205 8.78466Z" fill="#797979"/>
<path d="M2.73806 3.52238C2.71414 3.54616 2.69517 3.57445 2.68221 3.60559C2.66926 3.63674 2.6626 3.67014 2.6626 3.70387C2.6626 3.73761 2.66926 3.77101 2.68221 3.80216C2.69517 3.8333 2.71414 3.86159 2.73806 3.88538L3.10106 4.24837C3.12485 4.27229 3.15313 4.29127 3.18428 4.30422C3.21543 4.31717 3.24883 4.32384 3.28256 4.32384C3.31629 4.32384 3.34969 4.31717 3.38084 4.30422C3.41199 4.29127 3.44027 4.27229 3.46406 4.24837L3.82706 3.88538L6.36606 6.42438L6.00306 6.78737C5.97915 6.81116 5.96016 6.83945 5.94721 6.87059C5.93426 6.90174 5.9276 6.93514 5.9276 6.96888C5.9276 7.00261 5.93426 7.03601 5.94721 7.06716C5.96016 7.0983 5.97915 7.12659 6.00306 7.15038L6.36606 7.51337C6.38985 7.53729 6.41813 7.55627 6.44928 7.56922C6.48043 7.58217 6.51383 7.58884 6.54756 7.58884C6.58129 7.58884 6.61469 7.58217 6.64584 7.56922C6.67699 7.55627 6.70527 7.53729 6.72906 7.51337L9.26806 4.97437L5.27806 0.984375L2.73806 3.52238ZM6.54706 3.70337C6.61873 3.77515 6.66752 3.86656 6.68726 3.96605C6.70699 4.06554 6.69679 4.16865 6.65794 4.26235C6.61909 4.35605 6.55334 4.43612 6.46899 4.49246C6.38465 4.5488 6.28549 4.57887 6.18406 4.57887C6.08263 4.57887 5.98348 4.5488 5.89913 4.49246C5.81478 4.43612 5.74903 4.35605 5.71018 4.26235C5.67133 4.16865 5.66113 4.06554 5.68087 3.96605C5.7006 3.86656 5.74939 3.77515 5.82106 3.70337C5.86871 3.65566 5.92529 3.61781 5.98758 3.59199C6.04986 3.56616 6.11663 3.55287 6.18406 3.55287C6.25149 3.55287 6.31826 3.56616 6.38054 3.59199C6.44283 3.61781 6.49941 3.65566 6.54706 3.70337Z" fill="#797979"/>
</svg>
