<svg width="48" height="48" viewBox="0 0 48 48" fill="none" xmlns="http://www.w3.org/2000/svg">
<circle cx="24" cy="24" r="24" fill="white"/>
<path fill-rule="evenodd" clip-rule="evenodd" d="M24 0C37.2459 0 48 10.7541 48 24C48 37.2459 37.2459 48 24 48C10.7541 48 0 37.2459 0 24C0 10.7541 10.7541 0 24 0ZM24 9.82453C15.6814 9.82453 9.23438 15.918 9.23438 24.1476C9.23438 28.4525 10.9991 32.1721 13.8721 34.742C14.1127 34.9588 14.2582 35.2589 14.2702 35.5827L14.3504 38.209C14.3771 39.0469 15.2416 39.5905 16.0082 39.2548L18.9375 37.9625C19.1871 37.8526 19.4633 37.8318 19.7248 37.903C21.0706 38.2744 22.5056 38.4705 24 38.4705C32.3186 38.4705 38.7656 32.377 38.7656 24.1476C38.7656 15.918 32.3186 9.82453 24 9.82453ZM15.1347 28.3366L19.4722 21.4558C20.1615 20.3626 21.6411 20.0892 22.6749 20.8646L26.1242 23.4523C26.4421 23.6901 26.8759 23.6871 27.1908 23.4494L31.8492 19.9139C32.4701 19.4416 33.2842 20.1873 32.8653 20.8468L28.5307 27.7246C27.8414 28.8179 26.3619 29.0912 25.3281 28.3158L21.8788 25.7281C21.5608 25.4903 21.1271 25.4933 20.8122 25.7311L16.1508 29.2695C15.5299 29.7418 14.7157 28.9961 15.1347 28.3366Z" fill="#FB4390"/>
</svg>
