<svg width="18" height="18" viewBox="0 0 18 18" fill="none" xmlns="http://www.w3.org/2000/svg">
<path d="M17.0057 13.9962C16.9333 13.4004 16.6624 12.8463 16.2365 12.4235C15.8106 12.0006 15.2547 11.7335 14.6585 11.6653C14.0622 11.5971 13.4603 11.7318 12.95 12.0477C12.4397 12.3635 12.0506 12.8421 11.8457 13.4062H1.45567C1.33806 13.4088 1.22616 13.4573 1.14392 13.5415C1.06168 13.6256 1.01564 13.7385 1.01567 13.8562V14.7462C1.01567 14.8629 1.06203 14.9748 1.14454 15.0573C1.22706 15.1398 1.33897 15.1862 1.45567 15.1862H11.8257C12.0081 15.8468 12.4385 16.4115 13.0272 16.7626C13.6158 17.1137 14.3173 17.224 14.9852 17.0705C15.6532 16.9171 16.2362 16.5117 16.6126 15.9389C16.989 15.3662 17.1298 14.6702 17.0057 13.9962ZM14.3557 15.1862C14.447 15.0577 14.5851 14.9704 14.7403 14.943C14.8955 14.9156 15.0552 14.9503 15.185 15.0397C15.3147 15.129 15.4042 15.2659 15.4339 15.4206C15.4636 15.5753 15.4313 15.7356 15.3439 15.8667C15.2565 15.9978 15.121 16.0892 14.9668 16.1213C14.8125 16.1533 14.6518 16.1234 14.5194 16.038C14.387 15.9526 14.2935 15.8185 14.2591 15.6647C14.2248 15.511 14.2522 15.3498 14.3357 15.2162L14.3557 15.1862ZM16.5757 8.07617H11.5057C11.3191 7.56292 10.9791 7.11953 10.5319 6.8062C10.0846 6.49287 9.55176 6.32479 9.00567 6.32479C8.45958 6.32479 7.92672 6.49287 7.47946 6.8062C7.0322 7.11953 6.69221 7.56292 6.50567 8.07617H1.50567C1.43991 8.06864 1.37329 8.07571 1.31057 8.09687C1.24785 8.11804 1.19058 8.15278 1.14282 8.19862C1.09507 8.24446 1.05802 8.30028 1.03431 8.36208C1.01061 8.42388 1.00083 8.49015 1.00567 8.55617V9.43617C1.00564 9.5538 1.05168 9.66677 1.13392 9.75088C1.21616 9.83499 1.32806 9.88356 1.44567 9.88617H6.50567C6.69221 10.3994 7.0322 10.8428 7.47946 11.1561C7.92672 11.4695 8.45958 11.6375 9.00567 11.6375C9.55176 11.6375 10.0846 11.4695 10.5319 11.1561C10.9791 10.8428 11.3191 10.3994 11.5057 9.88617H16.5557C16.675 9.88617 16.7895 9.83876 16.8739 9.75437C16.9583 9.66998 17.0057 9.55552 17.0057 9.43617V8.55617C17.0057 8.43682 16.9583 8.32236 16.8739 8.23797C16.7895 8.15358 16.675 8.10617 16.5557 8.10617L16.5757 8.07617ZM9.00567 9.88617C8.82964 9.88617 8.65757 9.83397 8.51121 9.73618C8.36485 9.63838 8.25078 9.49938 8.18342 9.33676C8.11606 9.17413 8.09843 8.99518 8.13277 8.82254C8.16711 8.6499 8.25188 8.49131 8.37634 8.36684C8.50081 8.24238 8.6594 8.15761 8.83204 8.12327C9.00468 8.08893 9.18363 8.10655 9.34626 8.17392C9.50888 8.24128 9.64788 8.35535 9.74568 8.50171C9.84347 8.64807 9.89567 8.82014 9.89567 8.99617C9.89567 9.23221 9.8019 9.45859 9.63499 9.62549C9.46809 9.7924 9.24171 9.88617 9.00567 9.88617ZM16.5557 2.77617H6.18567C5.97569 2.18151 5.56222 1.68025 5.01836 1.36099C4.4745 1.04174 3.83528 0.925056 3.2137 1.03158C2.59212 1.13809 2.02822 1.46095 1.62169 1.94308C1.21516 2.4252 0.992187 3.03553 0.992188 3.66617C0.992187 4.29681 1.21516 4.90714 1.62169 5.38926C2.02822 5.87138 2.59212 6.19424 3.2137 6.30076C3.83528 6.40728 4.4745 6.2906 5.01836 5.97135C5.56222 5.65209 5.97569 5.15083 6.18567 4.55617H16.5557C16.675 4.55617 16.7895 4.50876 16.8739 4.42437C16.9583 4.33998 17.0057 4.22552 17.0057 4.10617V3.21617C17.0057 3.15754 16.994 3.09949 16.9712 3.04545C16.9485 2.9914 16.9152 2.94244 16.8733 2.90145C16.8314 2.86046 16.7817 2.82826 16.7271 2.80675C16.6726 2.78523 16.6143 2.77484 16.5557 2.77617ZM3.67567 4.55617C3.49964 4.55617 3.32757 4.50397 3.18121 4.40618C3.03485 4.30838 2.92078 4.16938 2.85342 4.00676C2.78605 3.84413 2.76843 3.66518 2.80277 3.49254C2.83711 3.3199 2.92188 3.16131 3.04634 3.03684C3.17081 2.91238 3.3294 2.82761 3.50204 2.79327C3.67468 2.75893 3.85363 2.77655 4.01626 2.84392C4.17888 2.91128 4.31788 3.02535 4.41568 3.17171C4.51347 3.31807 4.56567 3.49014 4.56567 3.66617C4.56567 3.90221 4.4719 4.12859 4.30499 4.29549C4.13809 4.4624 3.91171 4.55617 3.67567 4.55617Z" fill="#FB4E4C"/>
</svg>
