<svg width="11" height="15" viewBox="0 0 11 15" fill="none" xmlns="http://www.w3.org/2000/svg">
<path d="M10.6681 0.0137375H0.884059C0.784449 0.0205175 0.690668 0.0631514 0.62007 0.133749C0.549473 0.204346 0.506839 0.298128 0.500059 0.397737V14.3377C0.498853 14.4037 0.516214 14.4687 0.550163 14.5253C0.584111 14.5819 0.63328 14.6278 0.692059 14.6577C0.75115 14.6893 0.817089 14.7057 0.884059 14.7057C0.951028 14.7057 1.01697 14.6893 1.07606 14.6577L5.74406 11.7797L10.4121 14.6577C10.4674 14.6993 10.5348 14.7217 10.6041 14.7217C10.6733 14.7217 10.7407 14.6993 10.7961 14.6577C10.8548 14.6278 10.904 14.5819 10.938 14.5253C10.9719 14.4687 10.9893 14.4037 10.9881 14.3377V0.397737C10.9977 0.350705 10.9966 0.302114 10.9849 0.255562C10.9731 0.20901 10.9511 0.165691 10.9204 0.128813C10.8896 0.0919352 10.851 0.0624441 10.8073 0.0425241C10.7637 0.022604 10.7161 0.0127656 10.6681 0.0137375ZM10.2201 13.6347L5.93606 11.0137C5.87697 10.9822 5.81103 10.9657 5.74406 10.9657C5.67709 10.9657 5.61115 10.9822 5.55206 11.0137L1.26706 13.6347V0.780738H10.2201V13.6347ZM6.19106 8.26274C6.18428 8.36235 6.14164 8.45613 6.07105 8.52673C6.00045 8.59732 5.90667 8.63996 5.80706 8.64674C5.75754 8.64585 5.70885 8.63389 5.66456 8.61174C5.62026 8.58959 5.58148 8.55782 5.55106 8.51874C5.48361 8.44822 5.439 8.359 5.42306 8.26274V6.34474H3.50606C3.44536 6.35259 3.38368 6.34641 3.32575 6.32667C3.26782 6.30693 3.21519 6.27416 3.17191 6.23088C3.12864 6.18761 3.09587 6.13498 3.07613 6.07705C3.05639 6.01912 3.05021 5.95743 3.05806 5.89674C3.06507 5.79731 3.10781 5.70376 3.17838 5.63337C3.24896 5.56298 3.34261 5.52049 3.44206 5.51374H5.36006V3.59474C5.35836 3.54399 5.36716 3.49344 5.3859 3.44625C5.40464 3.39906 5.43291 3.35624 5.46896 3.32048C5.505 3.28472 5.54804 3.25678 5.59537 3.23841C5.64271 3.22005 5.69333 3.21165 5.74406 3.21374C5.84367 3.22052 5.93745 3.26315 6.00805 3.33375C6.07864 3.40435 6.12128 3.49813 6.12806 3.59774V5.51374H8.04606C8.09807 5.51108 8.15007 5.51903 8.19891 5.5371C8.24776 5.55518 8.29241 5.583 8.33016 5.61887C8.36791 5.65474 8.39797 5.69792 8.41851 5.74577C8.43906 5.79363 8.44965 5.84516 8.44965 5.89724C8.44965 5.94932 8.43906 6.00085 8.41851 6.0487C8.39797 6.09656 8.36791 6.13973 8.33016 6.17561C8.29241 6.21148 8.24776 6.2393 8.19891 6.25737C8.15007 6.27544 8.09807 6.28339 8.04606 6.28074H6.12706L6.19106 8.26274Z" fill="#FB4E4C"/>
</svg>
