<svg width="12" height="16" viewBox="0 0 12 16" fill="none" xmlns="http://www.w3.org/2000/svg">
<path d="M6 0.429688C4.4087 0.429688 2.88258 1.06183 1.75736 2.18705C0.632141 3.31226 0 4.83839 0 6.42969C0.0472449 7.37834 0.297557 8.3058 0.734024 9.14941C1.17049 9.99301 1.78294 10.7331 2.53 11.3197C3.21196 11.8599 3.83236 12.4736 4.38 13.1497C5.05461 13.9654 5.60088 14.8793 6 15.8597C6.39912 14.8793 6.94539 13.9654 7.62 13.1497C8.16763 12.4736 8.78804 11.8599 9.47 11.3197C10.2171 10.7331 10.8295 9.99301 11.266 9.14941C11.7024 8.3058 11.9528 7.37834 12 6.42969C12 4.83839 11.3679 3.31226 10.2426 2.18705C9.11742 1.06183 7.5913 0.429688 6 0.429688ZM6 2.98969C6.68037 2.98969 7.34546 3.19144 7.91116 3.56943C8.47687 3.94742 8.91778 4.48468 9.17815 5.11326C9.43851 5.74183 9.50663 6.4335 9.3739 7.1008C9.24117 7.76809 8.91354 8.38104 8.43245 8.86213C7.95135 9.34323 7.33841 9.67086 6.67111 9.80359C6.00382 9.93632 5.31215 9.8682 4.68357 9.60783C4.05499 9.34747 3.51774 8.90655 3.13974 8.34085C2.76175 7.77514 2.56 7.11005 2.56 6.42969C2.56 5.51734 2.92243 4.64237 3.56755 3.99724C4.21268 3.35211 5.08766 2.98969 6 2.98969Z" fill="#FB4E4C"/>
</svg>
