<svg width="12" height="12" viewBox="0 0 12 12" fill="none" xmlns="http://www.w3.org/2000/svg">
<path d="M6 0C4.81331 0 3.65328 0.351894 2.66658 1.01118C1.67989 1.67047 0.910851 2.60754 0.456726 3.7039C0.00259972 4.80026 -0.11622 6.00666 0.115291 7.17054C0.346802 8.33443 0.918247 9.40353 1.75736 10.2426C2.59648 11.0818 3.66558 11.6532 4.82946 11.8847C5.99335 12.1162 7.19975 11.9974 8.2961 11.5433C9.39246 11.0892 10.3295 10.3201 10.9888 9.33342C11.6481 8.34673 12 7.18669 12 6C12 4.4087 11.3679 2.88258 10.2426 1.75736C9.11742 0.632141 7.5913 0 6 0ZM0.740003 6.453H2.413C2.43949 7.05972 2.52422 7.66249 2.666 8.253H1.227C0.958358 7.68694 0.793413 7.07729 0.740003 6.453ZM6.453 2.853V0.793C7.09542 1.03704 7.62333 1.51252 7.933 2.126C8.06979 2.35723 8.19008 2.59783 8.293 2.846L6.453 2.853ZM8.6 3.753C8.75473 4.34159 8.84625 4.945 8.873 5.553H6.453V3.753H8.6ZM5.547 0.793V2.853H3.707C3.80984 2.6048 3.93015 2.3642 4.067 2.133C4.37529 1.51688 4.90338 1.03875 5.547 0.793ZM5.547 3.753V5.553H3.133C3.15976 4.945 3.25127 4.34159 3.406 3.753H5.547ZM2.413 5.547H0.740003C0.793413 4.92271 0.958358 4.31306 1.227 3.747H2.667C2.52484 4.33744 2.43912 4.94025 2.413 5.547ZM3.133 6.454H5.547V8.254H3.407C3.25248 7.66537 3.16096 7.06198 3.134 6.454H3.133ZM5.553 9.12V11.18C4.91059 10.936 4.38267 10.4605 4.073 9.847C3.93615 9.6158 3.81585 9.3752 3.713 9.127L5.553 9.12ZM6.453 11.18V9.153H8.293C8.19016 9.4012 8.06986 9.6418 7.933 9.873C7.62333 10.4865 7.09542 10.962 6.453 11.206V11.18ZM6.453 8.22V6.42H8.867C8.84004 7.02798 8.74853 7.63137 8.594 8.22H6.453ZM9.593 6.42H11.266C11.2126 7.04429 11.0476 7.65394 10.779 8.22H9.333C9.47279 7.64028 9.5575 7.04865 9.586 6.453L9.593 6.42ZM9.593 5.52C9.5625 4.92409 9.47544 4.33244 9.333 3.753H10.773C11.0416 4.31908 11.2065 4.92872 11.26 5.553L9.593 5.52ZM10.26 2.853H9.067C8.85098 2.24651 8.5379 1.67913 8.14 1.173C8.96948 1.54542 9.68996 2.12373 10.233 2.853H10.26ZM3.86 1.173C3.4621 1.67913 3.14903 2.24651 2.933 2.853H1.767C2.31005 2.12373 3.03053 1.54542 3.86 1.173ZM1.76 9.173H2.933C3.14903 9.77949 3.4621 10.3469 3.86 10.853C3.02823 10.475 2.30753 9.8896 1.767 9.153L1.76 9.173ZM8.133 10.853C8.5309 10.3469 8.84398 9.77949 9.06 9.173H10.233C9.68672 9.89274 8.96652 10.4619 8.14 10.827L8.133 10.853Z" fill="#FB4E4C"/>
</svg>
