<svg width="26" height="26" viewBox="0 0 26 26" fill="none" xmlns="http://www.w3.org/2000/svg">
<g clip-path="url(#clip0_10_11)">
<path d="M25.833 13.0006C25.833 15.5388 25.0803 18.02 23.6702 20.1305C22.2601 22.2409 20.2558 23.8858 17.9108 24.8571C15.5658 25.8284 12.9854 26.0826 10.496 25.5874C8.0066 25.0922 5.7199 23.87 3.9251 22.0752C2.1304 20.2804 0.908101 17.9937 0.412901 15.5043C-0.0821991 13.0149 0.1719 10.4345 1.1432 8.08954C2.1145 5.74455 3.7594 3.74026 5.8699 2.33012C7.9803 0.919974 10.4615 0.167313 12.9997 0.167313C16.4033 0.167313 19.6675 1.51939 22.0742 3.92611C24.4809 6.33282 25.833 9.59703 25.833 13.0006ZM14.3515 6.95187L8.6107 12.6926C8.5292 12.7744 8.4834 12.8852 8.4834 13.0006C8.4834 13.1161 8.5292 13.2269 8.6107 13.3086L14.3515 19.0494C14.5114 19.2105 14.7288 19.3015 14.9559 19.3023C15.1829 19.3031 15.401 19.2137 15.5621 19.0537C15.7232 18.8937 15.8141 18.6763 15.8149 18.4493C15.8157 18.2222 15.7263 18.0042 15.5663 17.8431L11.0405 13.3086C10.959 13.2269 10.9132 13.1161 10.9132 13.0006C10.9132 12.8852 10.959 12.7744 11.0405 12.6926L15.5663 8.1582C15.6559 8.0815 15.7286 7.98712 15.78 7.88097C15.8313 7.77483 15.8602 7.65922 15.8648 7.54139C15.8693 7.42356 15.8495 7.30607 15.8064 7.19628C15.7634 7.08649 15.6982 6.98678 15.6148 6.9034C15.5314 6.82002 15.4317 6.75478 15.3219 6.71176C15.2121 6.66875 15.0946 6.6489 14.9768 6.65345C14.859 6.658 14.7434 6.68686 14.6372 6.73821C14.5311 6.78957 14.4367 6.8623 14.36 6.95187H14.3515Z" fill="#FB4E4C"/>
</g>
<defs>
<clipPath id="clip0_10_11">
<rect width="26" height="26" fill="white" transform="matrix(-1 0 0 1 26 0)"/>
</clipPath>
</defs>
</svg>
