<svg width="10" height="10" viewBox="0 0 10 10" fill="none" xmlns="http://www.w3.org/2000/svg">
<path d="M5.79492 4.80829C5.83824 4.94767 5.83824 5.09691 5.79492 5.23629L6.85492 5.84829C6.97458 5.58936 7.03656 5.30753 7.03656 5.02229C7.03656 4.73705 6.97458 4.45522 6.85492 4.19629L5.79492 4.80829Z" fill="#797979"/>
<path d="M6.65314 3.84644C6.48672 3.61575 6.27316 3.42308 6.02663 3.28119C5.78009 3.13931 5.50621 3.05145 5.22314 3.02344V4.24344C5.36457 4.27911 5.49355 4.35276 5.59615 4.45644L6.65314 3.84644Z" fill="#797979"/>
<path d="M4.81916 4.24344V3.02344C4.53625 3.05121 4.26248 3.13876 4.01595 3.2803C3.76943 3.42183 3.55578 3.61412 3.38916 3.84444L4.44616 4.45444C4.54899 4.35149 4.67795 4.27854 4.81916 4.24344Z" fill="#797979"/>
<path d="M4.21498 5.02229C4.21623 4.94979 4.22733 4.8778 4.24798 4.80829L3.18798 4.19629C3.06832 4.45522 3.00635 4.73705 3.00635 5.02229C3.00635 5.30753 3.06832 5.58936 3.18798 5.84829L4.24798 5.23629C4.22733 5.16678 4.21623 5.09479 4.21498 5.02229Z" fill="#797979"/>
<path d="M5.22314 5.79894V7.01694C5.50605 6.98917 5.77983 6.90161 6.02635 6.76008C6.27288 6.61854 6.48652 6.42625 6.65314 6.19594L5.59615 5.58594C5.49355 5.68961 5.36457 5.76327 5.22314 5.79894Z" fill="#797979"/>
<path d="M5.02116 5.42416C5.24373 5.42416 5.42416 5.24373 5.42416 5.02116C5.42416 4.79859 5.24373 4.61816 5.02116 4.61816C4.79859 4.61816 4.61816 4.79859 4.61816 5.02116C4.61816 5.24373 4.79859 5.42416 5.02116 5.42416Z" fill="#797979"/>
<path d="M3.39014 6.19594C3.55676 6.42625 3.7704 6.61854 4.01693 6.76008C4.26345 6.90161 4.53723 6.98917 4.82014 7.01694V5.79894C4.67871 5.76327 4.54973 5.68961 4.44714 5.58594L3.39014 6.19594Z" fill="#797979"/>
<path d="M8.44805 5.02105C8.44805 4.968 8.46912 4.91713 8.50663 4.87963C8.54413 4.84212 8.595 4.82105 8.64805 4.82105H9.04105C9.01366 4.25112 8.86466 3.69364 8.60405 3.18605L8.26305 3.38605C8.24013 3.39918 8.21485 3.40767 8.18866 3.41103C8.16246 3.41439 8.13586 3.41257 8.11037 3.40565C8.08488 3.39873 8.061 3.38686 8.0401 3.37071C8.0192 3.35457 8.00168 3.33446 7.98855 3.31155C7.97541 3.28863 7.96692 3.26335 7.96356 3.23716C7.9602 3.21096 7.96203 3.18436 7.96895 3.15887C7.97586 3.13338 7.98773 3.1095 8.00388 3.0886C8.02003 3.0677 8.04013 3.05018 8.06305 3.03705L8.40405 2.83705C8.09307 2.35696 7.68413 1.94802 7.20405 1.63705L7.00405 1.97805C6.99091 2.00096 6.9734 2.02107 6.9525 2.03721C6.93159 2.05336 6.90772 2.06523 6.88223 2.07215C6.85674 2.07907 6.83013 2.08089 6.80394 2.07753C6.77774 2.07417 6.75246 2.06568 6.72955 2.05255C6.70663 2.03941 6.68653 2.0219 6.67038 2.00099C6.65423 1.98009 6.64236 1.95622 6.63545 1.93073C6.62853 1.90524 6.6267 1.87863 6.63006 1.85244C6.63342 1.82624 6.64191 1.80096 6.65505 1.77805L6.85505 1.43705C6.34852 1.17615 5.7921 1.02648 5.22305 0.998047V1.39105C5.22305 1.44409 5.20197 1.49496 5.16447 1.53247C5.12696 1.56998 5.07609 1.59105 5.02305 1.59105C4.97 1.59105 4.91913 1.56998 4.88163 1.53247C4.84412 1.49496 4.82305 1.44409 4.82305 1.39105V0.998047C4.25312 1.02543 3.69564 1.17443 3.18805 1.43505L3.38805 1.77605C3.41457 1.82233 3.42162 1.87725 3.40765 1.92873C3.39368 1.9802 3.35983 2.02402 3.31355 2.05055C3.26727 2.07707 3.21235 2.08412 3.16087 2.07015C3.10939 2.05618 3.06557 2.02233 3.03905 1.97605L2.83905 1.63505C2.35896 1.94603 1.95002 2.35496 1.63905 2.83505L1.98005 3.03505C2.00296 3.04818 2.02307 3.0657 2.03921 3.0866C2.05536 3.1075 2.06723 3.13138 2.07415 3.15687C2.08107 3.18236 2.08289 3.20896 2.07953 3.23516C2.07617 3.26135 2.06768 3.28663 2.05455 3.30955C2.04141 3.33246 2.0239 3.35257 2.003 3.36871C1.98209 3.38486 1.95822 3.39673 1.93273 3.40365C1.90724 3.41057 1.88063 3.4124 1.85444 3.40903C1.82824 3.40567 1.80296 3.39718 1.78005 3.38405L1.43905 3.18405C1.17691 3.69163 1.02653 4.24948 0.998047 4.82005H1.39105C1.44409 4.82005 1.49496 4.84112 1.53247 4.87862C1.56998 4.91613 1.59105 4.967 1.59105 5.02005C1.59105 5.07309 1.56998 5.12396 1.53247 5.16147C1.49496 5.19897 1.44409 5.22005 1.39105 5.22005H0.998047C1.02543 5.78998 1.17443 6.34745 1.43505 6.85505L1.77605 6.65505C1.79896 6.64191 1.82424 6.63342 1.85044 6.63006C1.87663 6.6267 1.90324 6.62853 1.92873 6.63545C1.95422 6.64236 1.97809 6.65423 1.99899 6.67038C2.0199 6.68653 2.03741 6.70663 2.05055 6.72955C2.06368 6.75246 2.07217 6.77774 2.07553 6.80394C2.0789 6.83013 2.07707 6.85674 2.07015 6.88223C2.06323 6.90772 2.05136 6.93159 2.03521 6.9525C2.01907 6.9734 1.99896 6.99091 1.97605 7.00405L1.63505 7.20405C1.94603 7.68413 2.35496 8.09307 2.83505 8.40405L3.03505 8.06305C3.04818 8.04013 3.0657 8.02003 3.0866 8.00388C3.1075 7.98773 3.13138 7.97586 3.15687 7.96895C3.18236 7.96203 3.20896 7.9602 3.23516 7.96356C3.26135 7.96692 3.28663 7.97541 3.30955 7.98855C3.33246 8.00168 3.35257 8.0192 3.36871 8.0401C3.38486 8.061 3.39673 8.08488 3.40365 8.11037C3.41057 8.13586 3.4124 8.16246 3.40903 8.18866C3.40567 8.21485 3.39718 8.24013 3.38405 8.26305L3.18405 8.60405C3.69164 8.86466 4.24912 9.01366 4.81905 9.04105V8.64805C4.81905 8.595 4.84012 8.54413 4.87763 8.50663C4.91513 8.46912 4.966 8.44805 5.01905 8.44805C5.07209 8.44805 5.12296 8.46912 5.16047 8.50663C5.19798 8.54413 5.21905 8.595 5.21905 8.64805V9.04105C5.78898 9.01366 6.34645 8.86466 6.85405 8.60405L6.65405 8.26305C6.64091 8.24013 6.63242 8.21485 6.62906 8.18866C6.6257 8.16246 6.62753 8.13586 6.63445 8.11037C6.64136 8.08488 6.65323 8.061 6.66938 8.0401C6.68553 8.0192 6.70563 8.00168 6.72855 7.98855C6.75146 7.97541 6.77674 7.96692 6.80294 7.96356C6.82913 7.9602 6.85574 7.96203 6.88123 7.96895C6.90672 7.97586 6.93059 7.98773 6.9515 8.00388C6.9724 8.02003 6.98991 8.04013 7.00305 8.06305L7.20305 8.40405C7.68313 8.09307 8.09207 7.68413 8.40305 7.20405L8.06205 7.00405C8.01577 6.97752 7.98192 6.9337 7.96795 6.88223C7.95397 6.83075 7.96103 6.77583 7.98755 6.72955C8.01407 6.68327 8.05789 6.64942 8.10937 6.63545C8.16085 6.62147 8.21577 6.62852 8.26205 6.65505L8.60305 6.85505C8.86366 6.34745 9.01266 5.78998 9.04005 5.22005H8.64705C8.594 5.22005 8.54313 5.19897 8.50562 5.16147C8.46812 5.12396 8.44705 5.07309 8.44705 5.02005L8.44805 5.02105ZM7.11905 6.22105C7.11905 6.22105 7.11905 6.22805 7.11905 6.23205C7.11905 6.23605 7.11405 6.23205 7.11205 6.23905C6.89996 6.60483 6.59549 6.90846 6.22913 7.11954C5.86276 7.33061 5.44737 7.44171 5.02455 7.44171C4.60173 7.44171 4.18633 7.33061 3.81997 7.11954C3.4536 6.90846 3.14913 6.60483 2.93705 6.23905C2.93705 6.23905 2.93205 6.23905 2.93005 6.23205C2.92805 6.22505 2.93005 6.22505 2.93005 6.22105C2.7194 5.8562 2.60851 5.44233 2.60851 5.02105C2.60851 4.59976 2.7194 4.18589 2.93005 3.82105C2.93005 3.82105 2.93005 3.81405 2.93005 3.81005C2.93005 3.80605 2.93705 3.80405 2.93905 3.80005C3.15139 3.4352 3.45574 3.13244 3.82169 2.92201C4.18765 2.71157 4.6024 2.60083 5.02455 2.60083C5.44669 2.60083 5.86145 2.71157 6.2274 2.92201C6.59336 3.13244 6.8977 3.4352 7.11005 3.80005C7.11005 3.80005 7.11705 3.80605 7.11905 3.81005C7.12105 3.81405 7.11905 3.81705 7.11905 3.82105C7.32969 4.18589 7.44059 4.59976 7.44059 5.02105C7.44059 5.44233 7.32969 5.8562 7.11905 6.22105Z" fill="#797979"/>
</svg>
