<svg width="8" height="9" viewBox="0 0 8 9" fill="none" xmlns="http://www.w3.org/2000/svg">
<path d="M5.94611 5.31836C5.84814 5.2778 5.73811 5.2778 5.64014 5.31836C5.59201 5.33937 5.54823 5.36911 5.51111 5.40625C5.47547 5.44509 5.44676 5.48981 5.42615 5.53833C5.40679 5.58663 5.39726 5.63816 5.39813 5.69019C5.39855 5.74387 5.40979 5.79693 5.43115 5.84619C5.45163 5.89402 5.48151 5.93717 5.5191 5.97314C5.55703 6.00947 5.60152 6.03852 5.65015 6.05835C6.23415 6.28935 6.59814 6.64929 6.59814 6.99829C6.59814 7.56529 5.61412 8.19824 4.19812 8.19824C2.78212 8.19824 1.7981 7.56629 1.7981 6.99829C1.7981 6.65029 2.16209 6.29035 2.74609 6.05835C2.79495 6.03865 2.83948 6.00955 2.87708 5.97266C2.91467 5.93576 2.9446 5.89173 2.96521 5.84326C2.98582 5.79479 2.9967 5.74261 2.99719 5.68994C2.99769 5.63727 2.98784 5.58498 2.96814 5.53613C2.94844 5.48728 2.91928 5.44287 2.88239 5.40527C2.84549 5.36768 2.80158 5.33775 2.75311 5.31714C2.70464 5.29652 2.65259 5.28565 2.59991 5.28516C2.54724 5.28466 2.49496 5.29451 2.44611 5.31421C2.06272 5.41566 1.71898 5.63079 1.46002 5.93115C1.20106 6.23151 1.03901 6.60317 0.995117 6.99731C0.995117 8.11631 2.39513 8.99731 4.19513 8.99731C5.99513 8.99731 7.39514 8.11831 7.39514 6.99731C7.35063 6.60414 7.18851 6.23339 6.92999 5.93384C6.67147 5.63428 6.32854 5.4199 5.94611 5.31836ZM3.79913 4.14624V7.00122C3.79909 7.05376 3.80939 7.10574 3.82947 7.1543C3.84954 7.20286 3.879 7.247 3.91614 7.28418C3.99112 7.35898 4.09269 7.40112 4.19861 7.40112C4.30453 7.40112 4.40615 7.35898 4.48114 7.28418C4.51827 7.247 4.54767 7.20286 4.56775 7.1543C4.58782 7.10574 4.59819 7.05376 4.59814 7.00122V4.14624C4.97521 4.04888 5.30377 3.81743 5.52234 3.49512C5.7409 3.17281 5.83441 2.78183 5.78534 2.39551C5.73627 2.00918 5.548 1.65392 5.2558 1.39648C4.9636 1.13905 4.58755 0.99707 4.19812 0.99707C3.80869 0.99707 3.43264 1.13905 3.14044 1.39648C2.84824 1.65392 2.65997 2.00918 2.6109 2.39551C2.56183 2.78183 2.65534 3.17281 2.8739 3.49512C3.09247 3.81743 3.42103 4.04888 3.7981 4.14624H3.79913ZM4.1991 1.80322C4.31733 1.80332 4.4341 1.82976 4.54095 1.88037C4.6478 1.93098 4.74211 2.00453 4.81708 2.09595C4.89205 2.18737 4.94584 2.29424 4.97455 2.40894C5.00326 2.52363 5.00615 2.64332 4.98309 2.75928C4.95191 2.91389 4.87572 3.0558 4.7641 3.16724C4.6522 3.27897 4.51001 3.35542 4.3551 3.38721C4.24515 3.41022 4.13158 3.40978 4.02179 3.38599C3.912 3.36219 3.80846 3.31573 3.7179 3.24927C3.62733 3.1828 3.55183 3.09785 3.49622 3.00024C3.4406 2.90264 3.40616 2.79441 3.39514 2.68262C3.38412 2.57082 3.39676 2.4579 3.43225 2.35132C3.46775 2.24474 3.52529 2.14683 3.60114 2.06396C3.67698 1.9811 3.76941 1.91513 3.87244 1.87036C3.97547 1.82559 4.08677 1.80212 4.1991 1.80322Z" fill="#797979"/>
</svg>
