<svg width="16" height="16" viewBox="0 0 16 16" fill="none" xmlns="http://www.w3.org/2000/svg">
<path d="M15.0001 11.1519C14.6871 10.9959 12.656 10.0578 12.344 9.90283C12.1947 9.81338 12.0184 9.77972 11.8466 9.80811C11.6748 9.83649 11.5187 9.92487 11.4061 10.0576C11.0941 10.3706 10.4691 11.3086 10.1561 11.6206C10.0001 11.9336 9.68705 11.9339 9.37505 11.7769C8.24897 11.3052 7.19654 10.674 6.25005 9.90283C5.43748 9.08913 4.7048 8.19916 4.06206 7.24561C4.00372 7.11535 3.98738 6.97053 4.01534 6.83057C4.0433 6.6906 4.11413 6.56269 4.21804 6.46484C4.37404 6.30884 4.53104 5.99584 4.84304 5.83984C5.00753 5.66763 5.11627 5.44981 5.15505 5.21484C5.23066 5.12829 5.27233 5.01727 5.27233 4.90234C5.27233 4.78742 5.23066 4.67639 5.15505 4.58984C4.68676 3.67632 4.26946 2.73753 3.90505 1.77783C3.74905 0.682832 3.43604 0.682617 3.12404 0.682617H2.34304C1.99031 0.741666 1.6635 0.905638 1.40505 1.15283C0.959293 1.5749 0.604609 2.0837 0.362813 2.64795C0.121017 3.2122 -0.00278301 3.81972 -0.000956646 4.43359C0.143731 5.90419 0.683854 7.30866 1.56206 8.49707C3.19576 10.9745 5.46149 12.9704 8.12505 14.2788C8.82816 14.6075 9.56074 14.8692 10.313 15.0601C11.1144 15.3496 11.9819 15.4035 12.813 15.2158C13.3614 15.1038 13.8806 14.8796 14.3378 14.5566C14.795 14.2337 15.1802 13.8192 15.469 13.3398C15.752 12.7562 15.8076 12.0882 15.6251 11.4658L15.0001 11.1519Z" fill="white"/>
</svg>
