<svg width="13" height="13" viewBox="0 0 13 13" fill="none" xmlns="http://www.w3.org/2000/svg">
<path d="M8.47689 3.4627L8.33489 3.3277C7.98289 2.9617 8.04389 2.7927 8.38889 2.4477L10.2299 0.585696C10.7779 0.0306958 10.8799 -0.233304 11.4009 0.260696L11.5429 0.395696L8.47689 3.4627ZM8.83589 3.7627L11.8139 0.784696C12.2879 1.4207 13.3979 3.1337 12.8499 4.3997C12.5095 5.14445 12.0525 5.83008 11.4959 6.4307C10.2439 7.8587 8.66689 9.3887 7.43489 10.5397C6.84601 11.111 6.15771 11.5698 5.40389 11.8937C4.18589 12.3747 2.42589 11.2937 1.76189 10.8377L4.74089 7.8627L5.54089 8.9627C5.77089 9.2737 6.35289 8.9217 6.75889 8.5157C7.45889 7.8047 8.91089 6.3637 9.46689 5.7607C9.86689 5.3607 10.2249 4.7797 9.91389 4.5427L8.83589 3.7627ZM1.37689 10.5627L1.23489 10.4207C0.774891 9.9207 1.03489 9.8117 1.58689 9.2697L3.44089 7.4357C3.78589 7.1037 3.94889 7.0297 4.30089 7.3617L4.43589 7.5037L1.37689 10.5627Z" fill="#FB4E4C"/>
</svg>
