<svg width="10" height="10" viewBox="0 0 10 10" fill="none" xmlns="http://www.w3.org/2000/svg">
<path d="M5 10C7.76142 10 10 7.76142 10 5C10 2.23858 7.76142 0 5 0C2.23858 0 0 2.23858 0 5C0 7.76142 2.23858 10 5 10Z" fill="#0A43C3"/>
<path d="M3.30668 4.32018C3.33038 4.30028 3.35778 4.28526 3.3873 4.27598C3.41682 4.2667 3.44788 4.26334 3.4787 4.2661C3.50953 4.26886 3.5395 4.27767 3.56691 4.29205C3.59431 4.30642 3.61861 4.32606 3.6384 4.34984L5.15701 6.15895C5.1978 6.20713 5.21778 6.26953 5.21255 6.33244C5.20733 6.39534 5.17733 6.4536 5.12915 6.49438C5.08098 6.53517 5.01857 6.55515 4.95567 6.54992C4.89276 6.5447 4.83451 6.51469 4.79372 6.46652L3.27447 4.65665C3.25424 4.63255 3.239 4.60467 3.22966 4.57463C3.22032 4.54458 3.21705 4.51298 3.22005 4.48166C3.22305 4.45034 3.23225 4.41993 3.24712 4.39221C3.262 4.36448 3.28224 4.34 3.30668 4.32018Z" fill="white"/>
<path d="M4.87488 6.49527C4.82703 6.45478 4.79717 6.39698 4.79184 6.33452C4.78651 6.27206 4.80614 6.21004 4.84643 6.16202L6.3647 4.35262C6.38457 4.32884 6.40893 4.3092 6.43639 4.29484C6.46385 4.28047 6.49387 4.27165 6.52474 4.26888C6.55561 4.26611 6.58672 4.26945 6.61629 4.27871C6.64587 4.28797 6.67334 4.30296 6.69712 4.32283C6.7209 4.3427 6.74054 4.36706 6.75491 4.39452C6.76928 4.42198 6.7781 4.452 6.78086 4.48287C6.78363 4.51374 6.78029 4.54485 6.77103 4.57443C6.76177 4.60401 6.74678 4.63147 6.72691 4.65525L5.20736 6.46618C5.18752 6.49004 5.16315 6.50973 5.13565 6.52411C5.10816 6.5385 5.07809 6.5473 5.04718 6.55C5.01627 6.55271 4.98513 6.54926 4.95556 6.53987C4.92598 6.53048 4.89856 6.51532 4.87488 6.49527Z" fill="white"/>
</svg>
