<svg width="10" height="10" viewBox="0 0 10 10" fill="none" xmlns="http://www.w3.org/2000/svg">
<path d="M5 10C7.76142 10 10 7.76142 10 5C10 2.23858 7.76142 0 5 0C2.23858 0 0 2.23858 0 5C0 7.76142 2.23858 10 5 10Z" fill="#1C74E4"/>
<path d="M6.34863 3.55078L4.39264 5.51367L3.74561 4.86084C3.60795 4.7255 3.42265 4.64941 3.22961 4.64941C3.03658 4.64941 2.85127 4.7255 2.71362 4.86084C2.57684 4.99773 2.5 5.18344 2.5 5.37695C2.5 5.57047 2.57684 5.75569 2.71362 5.89258L3.87665 7.05664C3.94525 7.12349 4.02511 7.17782 4.11261 7.2168C4.20093 7.25534 4.29628 7.27539 4.39264 7.27539C4.489 7.27539 4.58429 7.25534 4.67261 7.2168C4.76009 7.17778 4.84 7.12346 4.90863 7.05664L7.40863 4.57666C7.54542 4.43977 7.62225 4.25406 7.62225 4.06055C7.62225 3.86703 7.54542 3.68181 7.40863 3.54492C7.27085 3.40982 7.0856 3.33398 6.89264 3.33398C6.69968 3.33398 6.51442 3.40982 6.37665 3.54492L6.34863 3.55078Z" fill="white"/>
</svg>
