<svg width="9" height="9" viewBox="0 0 9 9" fill="none" xmlns="http://www.w3.org/2000/svg">
<path d="M4.76703 6.90657V4.69857H7.34403C7.39707 4.69857 7.44794 4.6775 7.48545 4.63999C7.52295 4.60248 7.54402 4.55161 7.54402 4.49857V2.09357C7.73065 2.04493 7.89315 1.92995 8.00111 1.77015C8.10908 1.61035 8.15511 1.41668 8.13059 1.22539C8.10607 1.03409 8.01268 0.858295 7.86791 0.730889C7.72313 0.603483 7.53688 0.533203 7.34403 0.533203C7.15117 0.533203 6.96492 0.603483 6.82015 0.730889C6.67537 0.858295 6.58198 1.03409 6.55746 1.22539C6.53294 1.41668 6.57897 1.61035 6.68694 1.77015C6.7949 1.92995 6.9574 2.04493 7.14403 2.09357V4.30157H4.76703V2.09357C4.95365 2.04493 5.11615 1.92995 5.22411 1.77015C5.33208 1.61035 5.37811 1.41668 5.35359 1.22539C5.32907 1.03409 5.23568 0.858295 5.09091 0.730889C4.94613 0.603483 4.75988 0.533203 4.56703 0.533203C4.37417 0.533203 4.18792 0.603483 4.04315 0.730889C3.89837 0.858295 3.80498 1.03409 3.78046 1.22539C3.75594 1.41668 3.80197 1.61035 3.90994 1.77015C4.0179 1.92995 4.1804 2.04493 4.36703 2.09357V4.30157H1.99203V2.09357C2.17865 2.04493 2.34115 1.92995 2.44911 1.77015C2.55708 1.61035 2.60311 1.41668 2.57859 1.22539C2.55407 1.03409 2.46068 0.858295 2.31591 0.730889C2.17113 0.603483 1.98488 0.533203 1.79203 0.533203C1.59917 0.533203 1.41292 0.603483 1.26815 0.730889C1.12337 0.858295 1.02998 1.03409 1.00546 1.22539C0.980942 1.41668 1.02697 1.61035 1.13494 1.77015C1.2429 1.92995 1.4054 2.04493 1.59203 2.09357V6.90657C1.4054 6.95521 1.2429 7.07019 1.13494 7.22999C1.02697 7.38979 0.980942 7.58346 1.00546 7.77475C1.02998 7.96604 1.12337 8.14184 1.26815 8.26925C1.41292 8.39665 1.59917 8.46693 1.79203 8.46693C1.98488 8.46693 2.17113 8.39665 2.31591 8.26925C2.46068 8.14184 2.55407 7.96604 2.57859 7.77475C2.60311 7.58346 2.55708 7.38979 2.44911 7.22999C2.34115 7.07019 2.17865 6.95521 1.99203 6.90657V4.69857H4.37103V6.90657C4.1844 6.95521 4.0219 7.07019 3.91394 7.22999C3.80597 7.38979 3.75994 7.58346 3.78446 7.77475C3.80898 7.96604 3.90237 8.14184 4.04715 8.26925C4.19192 8.39665 4.37817 8.46693 4.57103 8.46693C4.76388 8.46693 4.95013 8.39665 5.09491 8.26925C5.23968 8.14184 5.33307 7.96604 5.35759 7.77475C5.38211 7.58346 5.33608 7.38979 5.22811 7.22999C5.12015 7.07019 4.95765 6.95521 4.77103 6.90657H4.76703Z" fill="#797979" stroke="#797979" stroke-width="0.2"/>
<path d="M8.1358 7.07742C8.1345 6.92002 8.07139 6.76944 7.96009 6.65813C7.84879 6.54683 7.6982 6.48373 7.5408 6.48242H6.7498C6.69676 6.48242 6.64589 6.50349 6.60838 6.541C6.57088 6.57851 6.5498 6.62938 6.5498 6.68242V8.26842C6.5498 8.32147 6.57088 8.37234 6.60838 8.40984C6.64589 8.44735 6.69676 8.46842 6.7498 8.46842C6.80284 8.46842 6.85372 8.44735 6.89123 8.40984C6.92873 8.37234 6.94981 8.32147 6.94981 8.26842V7.67342H7.42181L7.7638 8.35642C7.78042 8.38941 7.80585 8.41714 7.83727 8.43655C7.86869 8.45597 7.90487 8.46631 7.9418 8.46642C7.97236 8.46624 8.00246 8.45905 8.02981 8.44542C8.07657 8.42162 8.1121 8.3804 8.12875 8.33064C8.1454 8.28088 8.14183 8.22657 8.1188 8.17942L7.8278 7.59842C7.9212 7.54724 7.99908 7.47185 8.05328 7.38017C8.10747 7.2885 8.13598 7.18392 8.1358 7.07742Z" fill="#797979" stroke="#797979" stroke-width="0.2"/>
<path d="M7.34502 5.09473C7.29197 5.09473 7.24111 5.1158 7.2036 5.15331C7.16609 5.19081 7.14502 5.24168 7.14502 5.29473V5.88972C7.14502 5.91599 7.15019 5.942 7.16024 5.96626C7.17029 5.99053 7.18503 6.01258 7.2036 6.03115C7.22217 6.04972 7.24422 6.06445 7.26849 6.0745C7.29275 6.08455 7.31875 6.08973 7.34502 6.08973C7.37128 6.08973 7.39729 6.08455 7.42155 6.0745C7.44582 6.06445 7.46787 6.04972 7.48644 6.03115C7.50501 6.01258 7.51974 5.99053 7.52979 5.96626C7.53984 5.942 7.54502 5.91599 7.54502 5.88972V5.29473C7.54502 5.24168 7.52395 5.19081 7.48644 5.15331C7.44894 5.1158 7.39806 5.09473 7.34502 5.09473Z" fill="#797979" stroke="#797979" stroke-width="0.2"/>
</svg>
