<svg width="7" height="8" viewBox="0 0 7 8" fill="none" xmlns="http://www.w3.org/2000/svg">
<path fill-rule="evenodd" clip-rule="evenodd" d="M3.5 0C2.42611 0 1.55556 0.895431 1.55556 2C1.55556 3.10457 2.42611 4 3.5 4C4.57389 4 5.44444 3.10457 5.44444 2C5.44444 0.895431 4.57389 0 3.5 0ZM2.33333 2C2.33333 1.33726 2.85567 0.8 3.5 0.8C4.14433 0.8 4.66667 1.33726 4.66667 2C4.66667 2.66274 4.14433 3.2 3.5 3.2C2.85567 3.2 2.33333 2.66274 2.33333 2Z" fill="#797979"/>
<path fill-rule="evenodd" clip-rule="evenodd" d="M3.5 4.6C1.76952 4.6 0.80768 5.20214 0.36288 5.60371C0.0883663 5.85154 0 6.19983 0 6.49786C0 7.32747 0.653847 8 1.46041 8H5.53959C6.34615 8 7 7.32747 7 6.49786C7 6.19983 6.91163 5.85154 6.63712 5.60371C6.19232 5.20214 5.23048 4.6 3.5 4.6ZM0.87595 6.20496C1.18197 5.92869 1.96244 5.4 3.5 5.4C5.03756 5.4 5.81803 5.92869 6.12405 6.20496C6.17773 6.25342 6.22222 6.34674 6.22222 6.49786C6.22222 6.88564 5.9166 7.2 5.53959 7.2H1.46041C1.0834 7.2 0.777778 6.88564 0.777778 6.49786C0.777778 6.34674 0.822272 6.25342 0.87595 6.20496Z" fill="#797979"/>
</svg>
