<svg width="12" height="13" viewBox="0 0 12 13" fill="none" xmlns="http://www.w3.org/2000/svg">
<path d="M6 0.429688C4.81331 0.429688 3.65328 0.781582 2.66658 1.44087C1.67989 2.10016 0.910851 3.03723 0.456726 4.13359C0.00259972 5.22994 -0.11622 6.43634 0.115291 7.60023C0.346802 8.76412 0.918247 9.83321 1.75736 10.6723C2.59648 11.5114 3.66557 12.0829 4.82946 12.3144C5.99335 12.5459 7.19975 12.4271 8.2961 11.973C9.39246 11.5188 10.3295 10.7498 10.9888 9.76311C11.6481 8.77641 12 7.61638 12 6.42969C12 4.83839 11.3679 3.31227 10.2426 2.18705C9.11742 1.06183 7.5913 0.429688 6 0.429688ZM6 1.62969C6.96558 1.62655 7.9094 1.9164 8.70677 2.46096C9.50415 3.00552 10.1176 3.77916 10.466 4.67969C9.06264 4.04785 7.53897 3.72784 6 3.74169C4.46103 3.72784 2.93736 4.04785 1.534 4.67969C1.88243 3.77916 2.49585 3.00552 3.29323 2.46096C4.09061 1.9164 5.03442 1.62655 6 1.62969ZM5.012 11.1297C3.99511 10.9125 3.07591 10.3718 2.39198 9.58852C1.70805 8.80527 1.29617 7.82158 1.218 6.78469C3.01 6.78469 5.012 9.17069 5.012 11.1297ZM6 7.32969C5.822 7.32969 5.64799 7.2769 5.49999 7.17801C5.35198 7.07912 5.23663 6.93856 5.16851 6.7741C5.10039 6.60965 5.08257 6.42869 5.1173 6.25411C5.15202 6.07952 5.23774 5.91916 5.36361 5.79329C5.48947 5.66742 5.64984 5.58171 5.82442 5.54698C5.999 5.51225 6.17996 5.53008 6.34442 5.5982C6.50887 5.66632 6.64943 5.78167 6.74832 5.92967C6.84722 6.07768 6.9 6.25168 6.9 6.42969C6.9 6.66838 6.80518 6.8973 6.6364 7.06608C6.46762 7.23487 6.2387 7.32969 6 7.32969ZM6.988 11.1297C6.988 9.16969 8.988 6.78469 10.782 6.78469C10.7038 7.82158 10.292 8.80527 9.60803 9.58852C8.9241 10.3718 8.0049 10.9125 6.988 11.1297Z" fill="#FB4E4C"/>
</svg>
