<svg width="8" height="9" viewBox="0 0 8 9" fill="none" xmlns="http://www.w3.org/2000/svg">
<path d="M4.12512 6.57068C4.1964 6.56993 4.26593 6.54837 4.32513 6.50867C4.38549 6.46896 4.43222 6.41166 4.45911 6.3446C4.48697 6.27758 4.49431 6.20388 4.48013 6.13269C4.46558 6.06229 4.43082 5.99762 4.38013 5.94666C4.32903 5.8956 4.26395 5.86083 4.19312 5.84668C4.1222 5.83194 4.04846 5.8396 3.98212 5.86865C3.91546 5.89474 3.85828 5.94039 3.81812 5.99963C3.77878 6.05901 3.75728 6.12837 3.75613 6.19958C3.75603 6.24768 3.76542 6.2954 3.78378 6.33984C3.80215 6.38429 3.82911 6.42462 3.86313 6.45862C3.93239 6.52888 4.02648 6.56916 4.12512 6.57068ZM5.95013 6.57068C6.02142 6.56993 6.09091 6.54837 6.15012 6.50867C6.21047 6.46896 6.25723 6.41166 6.28412 6.3446C6.31199 6.27758 6.31929 6.20388 6.30511 6.13269C6.29056 6.06229 6.2558 5.99762 6.20511 5.94666C6.15401 5.8956 6.08896 5.86083 6.01813 5.84668C5.94722 5.83194 5.87348 5.8396 5.80713 5.86865C5.74048 5.89474 5.68329 5.94039 5.64313 5.99963C5.60379 6.05901 5.58226 6.12837 5.58112 6.19958C5.58101 6.24768 5.5904 6.2954 5.60876 6.33984C5.62713 6.38429 5.65409 6.42462 5.68811 6.45862C5.75737 6.52888 5.85149 6.56916 5.95013 6.57068ZM5.95013 5.1106C6.02142 5.10985 6.09091 5.08829 6.15012 5.04858C6.21043 5.00882 6.25718 4.95167 6.28412 4.88464C6.31199 4.81762 6.31929 4.74379 6.30511 4.67261C6.29107 4.60193 6.25627 4.5371 6.20514 4.48633C6.15401 4.43556 6.0889 4.40112 6.01813 4.38757C5.94721 4.3729 5.87349 4.38068 5.80713 4.40967C5.74054 4.43586 5.68339 4.48149 5.64313 4.54065C5.60379 4.60003 5.58226 4.66938 5.58112 4.7406C5.58101 4.78869 5.5904 4.83641 5.60876 4.88086C5.62713 4.92531 5.65409 4.96564 5.68811 4.99963C5.75747 5.06962 5.85161 5.10945 5.95013 5.1106ZM4.12512 5.1106C4.1964 5.10985 4.26593 5.08829 4.32513 5.04858C4.38545 5.00882 4.43217 4.95167 4.45911 4.88464C4.48697 4.81762 4.49431 4.74379 4.48013 4.67261C4.46609 4.60193 4.43126 4.5371 4.38013 4.48633C4.329 4.43556 4.26389 4.40112 4.19312 4.38757C4.1222 4.3729 4.04848 4.38068 3.98212 4.40967C3.91553 4.43586 3.85837 4.48149 3.81812 4.54065C3.77878 4.60003 3.75728 4.66938 3.75613 4.7406C3.75603 4.78869 3.76542 4.83641 3.78378 4.88086C3.80215 4.92531 3.82911 4.96564 3.86313 4.99963C3.93249 5.06962 4.0266 5.10945 4.12512 5.1106ZM6.68011 0.729614H6.31512V0.364624C6.31523 0.316533 6.30584 0.268935 6.28748 0.224487C6.26911 0.180039 6.24215 0.139584 6.20813 0.105591C6.1393 0.0379226 6.04665 0 5.95013 0C5.85362 0 5.76093 0.0379226 5.69211 0.105591C5.65809 0.139584 5.63112 0.180039 5.61276 0.224487C5.5944 0.268935 5.58501 0.316533 5.58511 0.364624V0.729614H2.66412V0.364624C2.66423 0.316533 2.65484 0.268935 2.63647 0.224487C2.61811 0.180039 2.59115 0.139584 2.55713 0.105591C2.4883 0.0379226 2.39565 0 2.29913 0C2.20261 0 2.10993 0.0379226 2.04111 0.105591C2.00709 0.139584 1.98012 0.180039 1.96176 0.224487C1.9434 0.268935 1.93401 0.316533 1.93411 0.364624V0.729614H1.57413C1.28239 0.729614 1.00259 0.845468 0.796295 1.05176C0.590005 1.25805 0.474121 1.53785 0.474121 1.82959V6.94067C0.474121 7.23241 0.590005 7.51222 0.796295 7.71851C1.00259 7.9248 1.28239 8.04065 1.57413 8.04065H6.68512C6.97686 8.04065 7.25666 7.9248 7.46295 7.71851C7.66924 7.51222 7.78513 7.23241 7.78513 6.94067V1.82959C7.78513 1.53785 7.66924 1.25805 7.46295 1.05176C7.25666 0.845468 6.97686 0.729614 6.68512 0.729614H6.68011ZM7.04514 6.93567C7.04524 6.98376 7.03582 7.03136 7.01746 7.07581C6.99909 7.12025 6.97213 7.16059 6.93811 7.19458C6.86888 7.26168 6.77652 7.29971 6.68011 7.30066H1.57413C1.47772 7.29971 1.38536 7.26168 1.31613 7.19458C1.28211 7.16059 1.25515 7.12025 1.23679 7.07581C1.21842 7.03136 1.209 6.98376 1.20911 6.93567V3.64966H7.05011L7.04514 6.93567ZM7.04514 2.91968H1.20413V1.81958C1.20403 1.77149 1.21342 1.72389 1.23178 1.67944C1.25014 1.635 1.27711 1.59466 1.31113 1.56067C1.3803 1.49348 1.47269 1.45544 1.56912 1.45459H1.93411V1.81958C1.93401 1.86767 1.9434 1.91539 1.96176 1.95984C1.98012 2.00429 2.00709 2.04462 2.04111 2.07861C2.10981 2.14652 2.20254 2.18457 2.29913 2.18457C2.39573 2.18457 2.48843 2.14652 2.55713 2.07861C2.59115 2.04462 2.61811 2.00429 2.63647 1.95984C2.65484 1.91539 2.66423 1.86767 2.66412 1.81958V1.45459H5.58511V1.81958C5.58501 1.86767 5.5944 1.91539 5.61276 1.95984C5.63112 2.00429 5.65809 2.04462 5.69211 2.07861C5.76081 2.14652 5.85354 2.18457 5.95013 2.18457C6.04673 2.18457 6.13943 2.14652 6.20813 2.07861C6.24215 2.04462 6.26911 2.00429 6.28748 1.95984C6.30584 1.91539 6.31523 1.86767 6.31512 1.81958V1.45459H6.68011C6.77655 1.45544 6.86894 1.49348 6.93811 1.56067C6.97213 1.59466 6.99909 1.635 7.01746 1.67944C7.03582 1.72389 7.04524 1.77149 7.04514 1.81958V2.91968ZM2.29913 5.10962C2.37042 5.10887 2.43991 5.08731 2.49911 5.04761C2.55943 5.00785 2.60618 4.95069 2.63312 4.88367C2.66104 4.81666 2.66835 4.74281 2.65411 4.67163C2.64007 4.60096 2.60527 4.53612 2.55414 4.48535C2.50301 4.43458 2.4379 4.40014 2.36713 4.3866C2.29621 4.37192 2.22249 4.37971 2.15613 4.40869C2.08954 4.43488 2.03239 4.48052 1.99213 4.53967C1.95279 4.59905 1.93126 4.66841 1.93011 4.73962C1.93001 4.78772 1.9394 4.83531 1.95776 4.87976C1.97613 4.92421 2.00309 4.96466 2.03711 4.99866C2.10631 5.06901 2.20047 5.10821 2.29913 5.10962ZM2.29913 6.56958C2.37042 6.56883 2.43991 6.54739 2.49911 6.50769C2.55947 6.46798 2.60623 6.41069 2.63312 6.34363C2.66098 6.27661 2.66829 6.20278 2.65411 6.13159C2.63956 6.06119 2.6048 5.99665 2.55411 5.94568C2.50301 5.89462 2.43796 5.85973 2.36713 5.84558C2.29621 5.83084 2.22247 5.83863 2.15613 5.86768C2.08948 5.89376 2.03229 5.93942 1.99213 5.99866C1.95279 6.05804 1.93126 6.12739 1.93011 6.19861C1.93006 6.24669 1.9395 6.2943 1.95786 6.33875C1.97621 6.38319 2.00314 6.42362 2.03711 6.45764C2.1062 6.52827 2.20035 6.5689 2.29913 6.57068V6.56958Z" fill="#797979"/>
</svg>
