<svg width="1049" height="625" viewBox="0 0 1049 625" fill="none" xmlns="http://www.w3.org/2000/svg">
<path d="M427.034 457.582C444.943 483.624 467.708 505.966 494.081 523.385H764.924C850.455 466.765 895.206 359.512 866.089 253.33C832.475 130.907 708.989 53.8658 584.204 77.3437C563.665 81.1901 543.697 87.6316 524.781 96.5135C501.225 107.595 473.998 106.595 450.362 95.726C414.507 79.1604 373.97 75.7259 335.84 86.0229C250.552 108.823 196.76 195.08 213.685 281.722C228.232 356.204 289.222 409.177 360.176 417.407C373.544 418.938 386.428 423.316 397.961 430.246C409.494 437.176 419.407 446.497 427.034 457.582Z" fill="#E1EDFF"/>
<mask id="mask0_2794_14137" style="mask-type:luminance" maskUnits="userSpaceOnUse" x="210" y="73" width="665" height="492">
<path d="M584.205 77.3457C563.665 81.192 543.697 87.6336 524.781 96.5155C501.225 107.597 473.998 106.597 450.362 95.7279C414.507 79.1624 373.97 75.7278 335.84 86.0248C250.552 108.825 196.76 195.082 213.685 281.724C228.232 356.206 289.222 409.179 360.176 417.409C373.544 418.94 386.428 423.318 397.961 430.248C409.494 437.178 419.407 446.499 427.034 457.584C481.937 537.5 581.574 580.447 682.101 558.395C818.724 528.38 903.555 389.962 866.089 253.347C832.475 130.909 708.99 53.8677 584.205 77.3457Z" fill="white"/>
</mask>
<g mask="url(#mask0_2794_14137)">
<path d="M984.384 192.507V501.689H188.325V141.14C264.563 122.097 431.688 93.2789 568.39 160.83C729.868 240.51 937.019 202.714 984.384 192.507Z" fill="#CBDAF4"/>
<g opacity="0.5">
<mask id="mask1_2794_14137" style="mask-type:luminance" maskUnits="userSpaceOnUse" x="188" y="118" width="797" height="384">
<path d="M984.384 192.509V501.691H188.324V141.142C264.562 122.099 431.688 93.2809 568.389 160.832C729.868 240.512 937.018 202.716 984.384 192.509Z" fill="white"/>
</mask>
<g mask="url(#mask1_2794_14137)">
<path style="mix-blend-mode:screen" opacity="0.5" d="M357.173 688.656L394.525 677.797L233.05 122.359L195.698 133.217L357.173 688.656Z" fill="url(#paint0_linear_2794_14137)"/>
<path style="mix-blend-mode:screen" opacity="0.5" d="M404.69 674.842L419.195 670.625L257.72 115.187L243.215 119.404L404.69 674.842Z" fill="url(#paint1_linear_2794_14137)"/>
<path style="mix-blend-mode:screen" opacity="0.5" d="M546.923 681.738L584.275 670.879L422.8 115.441L385.448 126.3L546.923 681.738Z" fill="url(#paint2_linear_2794_14137)"/>
<path style="mix-blend-mode:screen" opacity="0.5" d="M594.446 668.378L608.947 664.148L446.986 108.852L432.484 113.081L594.446 668.378Z" fill="url(#paint3_linear_2794_14137)"/>
<path style="mix-blend-mode:screen" opacity="0.5" d="M771.574 692.216L808.927 681.357L647.452 125.919L610.099 136.778L771.574 692.216Z" fill="url(#paint4_linear_2794_14137)"/>
<path style="mix-blend-mode:screen" opacity="0.5" d="M819.09 678.401L833.595 674.184L672.12 118.745L657.615 122.962L819.09 678.401Z" fill="url(#paint5_linear_2794_14137)"/>
<path style="mix-blend-mode:screen" opacity="0.5" d="M987.915 682.511L1025.26 671.619L863.297 116.322L825.954 127.214L987.915 682.511Z" fill="url(#paint6_linear_2794_14137)"/>
<path style="mix-blend-mode:screen" opacity="0.5" d="M1035.33 667.893L1049.83 663.676L888.357 108.237L873.852 112.454L1035.33 667.893Z" fill="url(#paint7_linear_2794_14137)"/>
</g>
</g>
<path d="M984.384 193.932C983.577 193.931 982.772 194.016 981.982 194.184C941.744 202.848 732.932 242.14 573.438 163.398C512.195 133.162 438.871 118.505 355.474 119.931C287.994 121.065 227.791 132.532 188.325 142.227V165.39C189.256 165.392 190.184 165.281 191.089 165.059C257.798 148.394 427.617 116.859 563.341 183.867C631.641 217.591 715.006 234.666 811.257 234.666C813.919 234.666 816.613 234.666 819.291 234.627C895.686 233.879 958.607 222.451 984.384 217.016V193.932Z" fill="#5775B2"/>
<mask id="mask2_2794_14137" style="mask-type:luminance" maskUnits="userSpaceOnUse" x="188" y="118" width="797" height="384">
<path d="M984.384 192.507V501.689H188.324V141.14C264.562 122.097 431.688 93.2789 568.389 160.83C729.868 240.51 937.018 202.714 984.384 192.507Z" fill="white"/>
</mask>
<g mask="url(#mask2_2794_14137)">
<g style="mix-blend-mode:multiply">
<path d="M272.329 57.1445V556.899" stroke="#3B869D" stroke-miterlimit="10"/>
</g>
<g style="mix-blend-mode:multiply">
<path d="M380.456 57.1445V556.899" stroke="#3B869D" stroke-miterlimit="10"/>
</g>
<g style="mix-blend-mode:multiply">
<path d="M488.584 57.1445V556.899" stroke="#3B869D" stroke-miterlimit="10"/>
</g>
<g style="mix-blend-mode:multiply">
<path d="M596.711 57.1445V556.899" stroke="#3B869D" stroke-miterlimit="10"/>
</g>
<g style="mix-blend-mode:multiply">
<path d="M704.839 57.1445V556.899" stroke="#3B869D" stroke-miterlimit="10"/>
</g>
<g style="mix-blend-mode:multiply">
<path d="M812.966 57.1445V556.899" stroke="#3B869D" stroke-miterlimit="10"/>
</g>
<g style="mix-blend-mode:multiply">
<path d="M184.615 437.248H1000.5" stroke="#3B869D" stroke-miterlimit="10"/>
</g>
<g style="mix-blend-mode:multiply">
<path d="M184.615 329.121H1000.5" stroke="#3B869D" stroke-miterlimit="10"/>
</g>
<g style="mix-blend-mode:multiply">
<path d="M184.615 220.992H1000.5" stroke="#3B869D" stroke-miterlimit="10"/>
</g>
</g>
<path d="M811.257 221.819C715.007 221.819 631.641 204.737 563.341 171.02C427.617 104.005 257.798 135.579 191.089 152.213C188.187 152.849 185.151 152.328 182.627 150.762C180.103 149.195 178.289 146.706 177.571 143.823C176.853 140.94 177.288 137.891 178.783 135.323C180.277 132.756 182.715 130.873 185.576 130.074C224.955 120.237 286.426 108.258 355.49 107.1C438.887 105.698 512.219 120.323 573.454 150.559C732.948 229.317 941.76 190.025 981.998 181.353C983.465 181.031 984.981 181.001 986.459 181.266C987.937 181.531 989.348 182.085 990.612 182.896C991.875 183.708 992.966 184.761 993.821 185.996C994.677 187.23 995.28 188.621 995.596 190.089C995.913 191.557 995.936 193.073 995.665 194.55C995.394 196.027 994.833 197.436 994.016 198.696C993.199 199.956 992.141 201.043 990.903 201.893C989.665 202.743 988.272 203.34 986.802 203.65C962.718 208.848 898.167 220.977 819.306 221.764C816.613 221.804 813.919 221.819 811.257 221.819Z" fill="#728BC4"/>
</g>
<path d="M893.56 515.077C893.56 523.575 726.261 530.458 519.883 530.458C313.504 530.458 146.205 523.543 146.205 515.077C146.205 506.61 313.504 499.695 519.883 499.695C726.261 499.695 893.56 506.547 893.56 515.077Z" fill="#91A7E2"/>
<path d="M458.104 454.723C460.947 451.573 461.254 448.848 462.302 443.602C462.78 440.83 463.901 438.208 465.577 435.948C467.253 433.689 469.436 431.854 471.95 430.591C477.825 427.441 477.613 420.518 484.961 419.053C492.309 417.588 494.821 419.998 499.019 417.533C503.217 415.068 510.14 415.273 512.66 419.053C515.18 422.834 513.29 428.504 510.77 431.222C508.25 433.939 507.832 437.31 505.942 441.925C504.052 446.54 498.389 448.43 495.034 451.155C491.679 453.88 489.576 460.811 484.748 462.906C479.92 465.001 476.738 463.536 474.029 467.104C471.32 470.672 465.46 473.334 465.46 473.334H446.558C446.558 473.334 450.85 462.749 458.104 454.723Z" fill="#728BC4"/>
<path d="M465.35 473.334C473.454 455.275 473.856 446.147 473.856 438.121C473.854 434.284 474.581 430.481 475.998 426.914C474.938 428.416 473.554 429.662 471.95 430.561C469.433 431.827 467.25 433.667 465.575 435.933C463.9 438.198 462.782 440.826 462.31 443.603C461.254 448.848 460.955 451.573 458.112 454.724C450.85 462.749 446.558 473.334 446.558 473.334H465.35Z" fill="#5975AD"/>
<path d="M504.682 424.355C501.327 427.655 498.602 428.293 494.617 431.223C490.632 434.153 488.111 438.146 484.748 441.714C481.385 445.282 477.573 446.959 474.029 450.527C470.485 454.095 468.012 457.812 464.185 461.018C461.88 462.956 459.425 464.71 456.844 466.263" stroke="#0C193A" stroke-miterlimit="10"/>
<path d="M441.526 451.786C441.526 451.786 439.218 449.084 437.115 446.131C435.012 443.177 434.327 439.042 432.295 435.42C430.263 431.797 430.169 432.269 426.719 427.867C423.27 423.464 422.639 419.684 420.332 415.903C418.024 412.123 414.653 413.588 411.936 408.98C409.219 404.373 405.919 400.939 401.587 401.892C397.256 402.845 393.05 403.711 395.988 415.88C398.925 428.048 399.351 425.74 399.555 434.782C399.76 443.823 406.273 445.272 410.676 451.778C415.079 458.283 414.244 461.434 421.167 464.576C425.702 466.769 429.822 469.732 433.343 473.334H441.526V451.786Z" fill="#728BC4"/>
<path d="M432.295 435.419C430.255 431.796 430.169 432.269 426.719 427.866C425.357 426.108 424.219 424.188 423.332 422.148C422.899 424.126 422.08 426 420.922 427.662C416.307 435.096 427.64 451.289 426.38 457.22C425.857 460.524 425.683 463.874 425.86 467.214C428.567 468.994 431.076 471.058 433.343 473.373H441.526V451.793C441.526 451.793 439.218 449.092 437.115 446.138C435.012 443.185 434.327 439.042 432.295 435.419Z" fill="#5975AD"/>
<path d="M403.478 409.193C404.615 413.475 406.363 417.57 408.668 421.354C412.566 427.859 412.566 429.119 415.291 434.995C417.59 440.018 420.704 444.627 424.506 448.636C428.279 452.833 438.564 462.907 440.029 464.387" stroke="#0C193A" stroke-miterlimit="10"/>
<path d="M436.698 473.333C436.698 473.333 435.438 460.921 436.698 454.974C437.958 449.028 426.625 432.851 431.24 425.409C435.855 417.966 433.217 416.745 430.129 409.61C427.042 402.474 424.821 391.495 430.129 383.139C435.438 374.783 425.136 367.686 426.932 356.314C428.727 344.941 445.511 329.213 445.511 329.213C445.511 329.213 459.364 334.033 461.459 342.011C463.554 349.989 460.199 362.158 467.335 368.45C474.47 374.743 474.888 381.461 473.21 391.109C471.533 400.757 474.053 404.892 471.533 414.367C469.012 423.841 466.075 427.204 466.075 435.631C466.075 444.059 465.657 453.596 456.427 473.365L436.698 473.333Z" fill="#728BC4"/>
<path d="M449.528 344.17C448.268 347.738 447.22 347.942 448.268 355.078C449.315 362.214 449.725 365.994 448.685 369.979C447.645 373.964 452.954 383.825 452.922 389.283C452.891 394.741 450.607 399.773 450.378 405.035C450.15 410.296 453.166 416.58 452.922 424.551C452.678 432.521 449.567 434.624 450.386 440.303C451.205 445.981 449.102 467.529 447.842 473.381" stroke="#0C193A" stroke-miterlimit="10"/>
<path d="M422.262 469.57H478.259V511.47C478.259 513.726 477.363 515.889 475.768 517.484C474.173 519.08 472.009 519.976 469.753 519.976H430.768C428.512 519.976 426.348 519.08 424.753 517.484C423.158 515.889 422.262 513.726 422.262 511.47V469.57Z" fill="#5975AD"/>
<path d="M757.143 408.406V493.269C757.143 499.569 761.309 504.649 766.444 504.649H787.977C793.104 504.649 797.262 499.546 797.262 493.269V408.406H757.143Z" fill="#0C193A"/>
<path d="M768.318 408.406V493.269C768.318 499.569 772.485 504.649 777.62 504.649H787.977C793.104 504.649 797.262 499.546 797.262 493.269V408.406H768.318Z" fill="#0C193A"/>
<path d="M561.609 408.406V493.269C561.609 499.569 557.443 504.649 552.307 504.649H530.775C525.656 504.649 521.489 499.546 521.489 493.269V408.406H561.609Z" fill="#0C193A"/>
<path d="M550.433 408.406V493.269C550.433 499.569 546.267 504.649 541.132 504.649H530.775C525.656 504.649 521.489 499.546 521.489 493.269V408.406H550.433Z" fill="#0C193A"/>
<path d="M783.401 423.504V508.563C783.402 510.062 783.698 511.546 784.273 512.93C784.847 514.314 785.689 515.571 786.749 516.63C787.809 517.689 789.068 518.529 790.453 519.102C791.838 519.674 793.322 519.968 794.821 519.967H821.268C824.291 519.963 827.188 518.76 829.325 516.622C831.461 514.484 832.662 511.586 832.664 508.563V423.504H783.401Z" fill="#15244F"/>
<path d="M797.128 423.504V508.563C797.131 511.588 798.334 514.489 800.474 516.628C802.614 518.766 805.515 519.967 808.541 519.967H821.268C824.291 519.963 827.188 518.76 829.325 516.622C831.461 514.484 832.662 511.586 832.664 508.563V423.504H797.128Z" fill="#0C193A"/>
<path d="M535.902 423.504V508.563C535.901 510.062 535.605 511.546 535.03 512.93C534.456 514.314 533.614 515.571 532.554 516.63C531.494 517.689 530.235 518.529 528.85 519.102C527.465 519.674 525.981 519.968 524.482 519.967H498.035C495.012 519.965 492.113 518.763 489.976 516.624C487.839 514.486 486.639 511.586 486.639 508.563V423.504H535.902Z" fill="#15244F"/>
<path d="M522.167 423.504V508.563C522.165 511.588 520.961 514.489 518.821 516.628C516.681 518.766 513.78 519.967 510.755 519.967H498.035C495.012 519.965 492.113 518.763 489.976 516.624C487.839 514.486 486.639 511.586 486.639 508.563V423.504H522.167Z" fill="#0C193A"/>
<path d="M493.419 476.753L523.277 484.361C525.456 484.92 527.698 485.203 529.948 485.203H794.198C796.867 485.201 799.522 484.803 802.074 484.022L825.867 476.745L758.442 440.484H524.348L493.419 476.753Z" fill="#D62222"/>
<path d="M836.87 428.67C836.87 428.67 835.499 458.897 825.883 476.752C825.883 476.752 799.774 467.136 788.788 467.136C777.801 467.136 659.624 465.765 659.624 465.765L656.883 465.805C639.076 465.994 540.478 467.136 530.491 467.136C519.465 467.136 493.396 476.752 493.396 476.752C488.726 468.089 486.008 456.519 484.441 446.903C483.181 439.176 482.653 432.726 482.488 430.017C482.433 429.15 482.409 428.67 482.409 428.67C483.197 373.626 490.647 344.965 493.435 340.846C496.223 336.727 509.92 316.022 509.92 316.022C519.016 292.977 527.01 277.225 533.138 266.711C536.434 261.061 540.993 256.251 546.459 252.658C551.924 249.064 558.147 246.785 564.641 245.997C610.163 240.484 659.671 240.484 659.671 240.484C659.671 240.484 709.186 240.484 754.709 245.997C761.202 246.785 767.425 249.064 772.891 252.658C778.356 256.251 782.916 261.061 786.212 266.711C792.34 277.194 800.389 293.001 809.438 316.022C809.438 316.022 821.441 329.033 824.19 333.152C826.938 337.271 832.664 373.374 836.87 428.67Z" fill="#ED3232"/>
<path d="M809.391 316.022C662.396 318.77 509.904 316.022 509.904 316.022C519.016 292.977 527.01 277.225 533.138 266.711C536.434 261.061 540.994 256.251 546.459 252.658C551.924 249.064 558.148 246.785 564.641 245.997C610.163 240.484 659.671 240.484 659.671 240.484C659.671 240.484 709.186 240.484 754.709 245.997C761.202 246.785 767.425 249.064 772.891 252.658C778.356 256.251 782.916 261.061 786.212 266.711C792.308 277.225 800.31 292.977 809.391 316.022Z" fill="#ED3232"/>
<path d="M769.295 264.972L771.784 286.985C772.367 292.08 770.035 295.884 765.617 296.987C727.774 306.438 659.648 304.902 659.648 304.902C659.648 304.902 591.529 306.422 553.67 296.987C549.252 295.884 546.928 292.08 547.503 286.985L550 264.972C550.567 259.907 556.734 254.615 562.082 254.394C577.66 253.741 609.841 252.717 659.64 252.717C709.439 252.717 741.627 253.741 757.206 254.394C762.561 254.615 768.728 259.9 769.295 264.972Z" fill="#15244F"/>
<path d="M757.403 264.104L758.907 284.313C759.253 288.952 757.08 292.402 753.15 293.402C719.575 301.931 659.647 300.561 659.647 300.561C659.647 300.561 599.728 301.931 566.153 293.402C562.215 292.402 560.049 288.952 560.396 284.313L561.9 264.08C562.247 259.355 567.594 254.464 572.367 254.251C586.284 253.645 615.07 252.676 659.647 252.676C704.225 252.676 733.011 253.629 746.936 254.251C751.708 254.487 757.056 259.41 757.403 264.104Z" fill="#D7E2FF"/>
<path d="M836.791 430.018C836.382 436.09 834.287 461.151 825.875 476.761C825.875 476.761 799.782 467.145 788.78 467.145C779.557 467.145 694.624 466.168 667.76 465.877C638.776 466.168 539.753 467.145 530.507 467.145C519.528 467.145 493.42 476.761 493.42 476.761C485.016 461.151 482.905 436.09 482.52 430.018C483.851 429.632 502.067 424.505 512.645 423.182C515.118 422.875 523.277 422.505 534.752 422.111C571.454 420.898 641.95 419.598 667.807 420.236C691.805 419.614 751.472 420.843 784.543 422.032C795.829 422.449 804.02 422.82 806.642 423.182C817.22 424.505 835.436 429.624 836.791 430.018Z" fill="#ED3232"/>
<path d="M720.173 355.473V371.106C720.173 377.052 715.613 381.888 709.982 381.888H609.305C607.768 381.898 606.253 381.528 604.894 380.809C603.128 379.885 601.652 378.488 600.632 376.775C599.611 375.062 599.086 373.1 599.113 371.106V355.473H720.173Z" fill="#D62222"/>
<path d="M720.173 359.498V371.107C720.173 377.053 715.613 381.889 709.982 381.889H609.305C607.768 381.899 606.253 381.529 604.895 380.81C603.867 379.094 603.323 377.132 603.319 375.132V359.498H720.173Z" fill="#D62222"/>
<path d="M609.982 355.473H709.321V363.018C709.321 366.688 707.863 370.207 705.268 372.803C702.672 375.398 699.153 376.856 695.483 376.856H623.812C621.995 376.856 620.196 376.498 618.517 375.802C616.838 375.107 615.313 374.088 614.028 372.803C612.743 371.518 611.723 369.992 611.028 368.313C610.333 366.634 609.975 364.835 609.975 363.018V355.473H609.982Z" fill="#D7E2FF"/>
<path d="M538.493 450.928H561.412C562.463 450.924 563.504 451.127 564.476 451.527C565.448 451.926 566.332 452.514 567.076 453.256C567.821 453.998 568.411 454.88 568.813 455.851C569.216 456.822 569.422 457.863 569.421 458.914V467.136H530.515V458.914C530.514 457.866 530.719 456.827 531.12 455.858C531.52 454.89 532.108 454.009 532.849 453.267C533.59 452.526 534.469 451.937 535.438 451.536C536.406 451.134 537.445 450.928 538.493 450.928Z" fill="#FF8D8D"/>
<path d="M758.442 450.928H781.361C783.477 450.928 785.506 451.768 787.002 453.265C788.498 454.761 789.339 456.79 789.339 458.906V467.128H750.472V458.914C750.471 457.866 750.676 456.828 751.076 455.86C751.476 454.892 752.063 454.012 752.803 453.27C753.543 452.528 754.422 451.94 755.39 451.538C756.357 451.136 757.394 450.929 758.442 450.928Z" fill="#FF8D8D"/>
<path d="M784.542 422.024V423.371C784.538 425.762 783.585 428.054 781.893 429.743C780.201 431.432 777.908 432.381 775.517 432.381H543.793C541.404 432.377 539.113 431.427 537.421 429.738C535.73 428.05 534.776 425.761 534.768 423.371V422.142C571.469 420.929 641.966 419.63 667.822 420.268C691.804 419.606 751.472 420.835 784.542 422.024Z" fill="#0C193A"/>
<path d="M748.203 332.413C748.203 337.076 708.564 340.848 659.663 340.848C610.762 340.848 571.107 337.083 571.107 332.413C571.107 327.743 610.754 329.601 659.647 329.601C708.541 329.601 748.203 327.758 748.203 332.413Z" fill="#D62222"/>
<path d="M577.534 394.512H539.73C534.684 394.508 529.751 393.016 525.548 390.223C521.346 387.429 518.06 383.459 516.102 378.808L509.597 363.332H533.594L534.555 367.522H555.308L560.648 382.581C561.883 386.072 564.17 389.094 567.194 391.231C570.218 393.368 573.831 394.514 577.534 394.512Z" fill="#D62222"/>
<path d="M730.443 394.512H768.247C773.294 394.508 778.226 393.016 782.429 390.223C786.632 387.429 789.917 383.459 791.875 378.808L798.38 363.332H774.383L773.406 367.522H752.669L747.329 382.581C746.093 386.071 743.806 389.093 740.782 391.229C737.758 393.366 734.146 394.513 730.443 394.512Z" fill="#D62222"/>
<path d="M741.769 395.529H577.534C573.624 395.526 569.81 394.313 566.616 392.057C563.423 389.801 561.005 386.612 559.695 382.928L554.599 368.547H533.752L521.726 316.409L523.71 315.952L535.374 366.515H556.033L561.617 382.266C562.783 385.556 564.939 388.405 567.789 390.42C570.639 392.435 574.043 393.518 577.534 393.521H741.769C745.26 393.515 748.663 392.431 751.514 390.416C754.365 388.402 756.523 385.555 757.694 382.266L763.27 366.515H783.976L799.846 315.873L801.783 316.479L785.472 368.547H764.743L759.639 382.928C758.326 386.616 755.903 389.807 752.703 392.063C749.503 394.32 745.684 395.53 741.769 395.529Z" fill="#0C193A"/>
<path d="M508.407 337.87L507.84 338.232C507.173 338.651 506.617 339.223 506.218 339.902C505.626 340.868 505.373 342.005 505.501 343.131L507.202 357.646C507.517 360.366 508.821 362.875 510.866 364.696C512.911 366.518 515.554 367.523 518.292 367.523H555.308L546.905 342.816L544.353 335.318L518.166 333.145C517.09 333.211 516.048 333.544 515.133 334.113L508.407 337.87Z" fill="#FF8D8D"/>
<path d="M546.912 342.816L585.386 350.102L590.757 367.523H555.316L546.912 342.816Z" fill="#FF8D8D"/>
<path d="M585.386 350.101L584.662 348.069C584.252 346.92 583.56 345.893 582.648 345.083C581.737 344.272 580.636 343.704 579.448 343.43L544.361 335.318L546.913 342.816L585.386 350.101Z" fill="url(#paint8_radial_2794_14137)"/>
<path d="M811.321 337.87L804.603 334.16C803.684 333.592 802.64 333.259 801.562 333.191L775.367 335.357L772.824 342.855L764.412 367.562H801.429C804.167 367.562 806.81 366.557 808.854 364.735C810.899 362.914 812.203 360.405 812.518 357.685L814.227 343.131C814.354 342.006 814.104 340.87 813.518 339.902C813.114 339.224 812.555 338.652 811.888 338.232L811.321 337.87Z" fill="#FF8D8D"/>
<path d="M772.823 342.816L734.342 350.102L728.971 367.523H764.412L772.823 342.816Z" fill="#FF8D8D"/>
<path d="M734.342 350.101L735.067 348.069C735.476 346.92 736.169 345.893 737.08 345.083C737.991 344.272 739.092 343.704 740.281 343.43L775.368 335.318L772.824 342.816L734.342 350.101Z" fill="url(#paint9_radial_2794_14137)"/>
<path d="M645.03 240.46C645.03 240.46 654.662 227.41 659.884 227.41C665.105 227.41 674.336 240.46 674.336 240.46C674.336 240.46 659.45 247.486 645.03 240.46Z" fill="#D62222"/>
<path d="M185.025 456.504L152.734 465.884C152.734 465.884 141.905 473.217 136.746 474.863C136.746 474.863 125.854 485.022 123.901 484.314C121.947 483.605 123.113 476.438 128.831 469.35C132.58 464.726 136.707 459.284 139.069 456.055C139.647 455.28 140.489 454.743 141.436 454.549C142.383 454.354 143.368 454.515 144.204 455L148.142 457.284C149.82 457.028 151.419 456.398 152.821 455.441C155.68 453.692 181.339 439.012 181.339 439.012L185.025 456.504Z" fill="#AD6E47"/>
<path d="M373.596 454.803L389.852 489.394C389.852 489.394 399.981 500.254 402.737 505.752C402.737 505.752 416.047 516.171 415.614 518.495C415.181 520.818 406.951 520.81 397.957 515.596C392.113 512.202 385.284 508.563 381.228 506.437C380.257 505.925 379.508 505.074 379.124 504.046C378.741 503.017 378.75 501.883 379.149 500.861L381.023 496.056C381.023 496.056 380.59 494.024 378.125 491.134C375.66 488.244 354.679 462.041 354.679 462.041L373.596 454.803Z" fill="#AD6E47"/>
<path d="M415.575 518.495C416.008 516.132 402.698 505.752 402.698 505.752C401.945 504.345 401.087 502.997 400.131 501.719C390.546 502.586 380.984 496.057 380.984 496.057L379.11 500.861C378.717 501.881 378.712 503.009 379.095 504.032C379.478 505.055 380.223 505.903 381.189 506.413C385.245 508.54 392.074 512.179 397.917 515.573C406.896 520.81 415.142 520.81 415.575 518.495Z" fill="#0C193A"/>
<path d="M297.461 289.158C297.461 289.158 299.579 290.119 299.39 293.206C299.201 296.294 297.815 295.498 296.303 298.893C294.791 302.287 292.058 317.913 292.058 317.913C292.058 317.913 321.325 350.653 334.131 366.743C353.82 391.45 375.818 456.3 375.818 456.3C372.457 459.691 368.317 462.209 363.76 463.632C356.23 465.947 352.174 465.081 347.22 468.263C342.266 471.445 335.934 472.319 335.934 472.319C335.934 472.319 327.539 461.293 319.434 450.314C311.33 439.335 292.026 400.806 292.026 400.806L275.747 393.001C275.747 393.001 267.351 416.156 258.664 431.506C249.977 446.856 220.451 461.033 210.031 466.822C199.611 472.61 179.63 476.958 179.63 476.958C179.63 476.958 174.999 470.586 176.74 463.057C178.48 455.528 175.669 447.715 176.346 441.635C176.346 441.635 199.028 424.843 203.368 419.921C207.708 414.999 208.29 409.501 213.213 408.895C213.213 408.895 224.239 377.336 224.239 368.074C224.239 358.812 222.412 348.684 223.861 332.468C225.31 316.251 234.517 302.358 234.517 302.358C234.517 302.358 229.736 299.098 234.517 296.239C239.298 293.38 297.461 289.158 297.461 289.158Z" fill="#F59D00"/>
<path d="M292.058 318.542C291.974 318.543 291.891 318.527 291.814 318.495C291.625 318.416 287.088 316.534 284.411 314.99C281.733 313.447 277.322 312.557 277.259 312.549C277.174 312.531 277.094 312.497 277.023 312.447C276.952 312.397 276.891 312.334 276.846 312.26C276.8 312.186 276.77 312.104 276.757 312.018C276.744 311.932 276.749 311.845 276.771 311.761C276.809 311.599 276.908 311.458 277.047 311.367C277.187 311.276 277.356 311.242 277.519 311.273C277.708 311.312 282.245 312.273 285.033 313.856C287.671 315.36 292.255 317.274 292.302 317.29C292.438 317.346 292.549 317.447 292.618 317.576C292.688 317.705 292.709 317.854 292.681 317.997C292.652 318.141 292.574 318.27 292.46 318.362C292.347 318.454 292.204 318.504 292.058 318.503V318.542Z" fill="#B57400"/>
<path d="M224.018 330.971C223.955 331.475 223.884 331.979 223.837 332.491C222.388 348.707 224.215 358.828 224.215 368.097C224.215 377.367 213.189 408.918 213.189 408.918C208.266 409.493 207.676 414.99 203.344 419.944C199.682 424.103 182.961 436.704 177.826 440.54C177.826 440.54 191.475 439.925 201.028 432.396C210.582 424.867 212.614 421.685 221.584 419.369C230.555 417.054 247.354 414.155 247.354 414.155C253.143 403.129 275.707 393.025 275.707 393.025C265.571 388.102 249.363 373.335 240.384 365.813C231.406 358.292 222.994 347.817 224.018 330.971Z" fill="#B57400"/>
<path d="M246.221 425.757H246.063C238.985 423.921 232.309 420.789 226.373 416.518C226.242 416.414 226.157 416.261 226.138 416.095C226.119 415.928 226.167 415.76 226.271 415.628C226.376 415.497 226.528 415.412 226.695 415.393C226.862 415.374 227.029 415.421 227.161 415.526C232.958 419.679 239.473 422.723 246.378 424.504C246.543 424.549 246.683 424.656 246.769 424.804C246.855 424.952 246.878 425.127 246.835 425.292C246.797 425.426 246.717 425.544 246.606 425.628C246.495 425.711 246.36 425.757 246.221 425.757Z" fill="#B57400"/>
<path d="M237.384 430.726C235.872 430.726 233.753 429.072 233.084 428.505C232.956 428.398 232.875 428.244 232.858 428.078C232.842 427.911 232.892 427.745 232.997 427.615C233.107 427.487 233.262 427.408 233.43 427.393C233.598 427.378 233.765 427.43 233.895 427.536C235.163 428.6 236.959 429.663 237.51 429.45C237.51 429.45 237.597 429.45 237.636 429.206C237.841 428.095 233.037 424.772 228.413 422.354C228.339 422.317 228.273 422.265 228.219 422.201C228.166 422.138 228.125 422.064 228.1 421.985C228.075 421.906 228.066 421.822 228.074 421.74C228.082 421.657 228.106 421.577 228.146 421.503C228.184 421.43 228.236 421.365 228.3 421.311C228.363 421.258 228.436 421.218 228.515 421.193C228.594 421.168 228.678 421.159 228.76 421.167C228.843 421.174 228.923 421.197 228.996 421.236C231.438 422.511 239.361 426.867 238.88 429.442C238.849 429.708 238.745 429.961 238.579 430.172C238.414 430.383 238.194 430.545 237.943 430.639C237.763 430.701 237.574 430.73 237.384 430.726Z" fill="#B57400"/>
<path d="M232.753 436.468C232.649 436.468 232.547 436.443 232.456 436.393C232.365 436.344 232.289 436.272 232.233 436.185L222.963 422.142C222.871 422.002 222.839 421.831 222.873 421.667C222.906 421.503 223.004 421.36 223.144 421.268C223.284 421.176 223.455 421.143 223.619 421.177C223.783 421.211 223.926 421.309 224.018 421.449L233.28 435.531C233.327 435.599 233.36 435.676 233.377 435.758C233.394 435.839 233.394 435.923 233.378 436.004C233.362 436.086 233.33 436.163 233.283 436.232C233.237 436.301 233.177 436.36 233.107 436.405C232.997 436.46 232.874 436.482 232.753 436.468Z" fill="#B57400"/>
<path d="M293.404 399.026C293.282 399.026 293.162 398.991 293.06 398.924C292.958 398.857 292.877 398.762 292.828 398.65C292.779 398.538 292.763 398.415 292.783 398.294C292.803 398.173 292.857 398.061 292.94 397.971C297.783 392.608 309.219 380.203 311.55 380.203H311.605C311.795 380.214 311.977 380.278 312.132 380.388C312.287 380.498 312.407 380.65 312.48 380.825C313.102 382.337 309.195 387.236 306.817 390.024C306.707 390.15 306.553 390.228 306.386 390.241C306.22 390.255 306.055 390.202 305.927 390.095C305.864 390.042 305.812 389.976 305.774 389.902C305.736 389.828 305.713 389.748 305.707 389.665C305.7 389.582 305.71 389.499 305.735 389.42C305.761 389.341 305.802 389.268 305.856 389.205C308.337 386.299 310.92 382.755 311.267 381.542C309.337 382.44 301.099 390.812 293.877 398.822C293.816 398.886 293.743 398.937 293.662 398.973C293.58 399.008 293.493 399.026 293.404 399.026Z" fill="#B57400"/>
<path d="M296.917 400.38C296.764 400.382 296.616 400.329 296.499 400.23C296.382 400.131 296.306 399.993 296.284 399.841C296.261 399.69 296.295 399.535 296.378 399.407C296.462 399.278 296.589 399.185 296.736 399.143C297.295 398.978 310.362 395.064 315.008 394.678C317.52 394.504 319.989 393.938 322.325 393C322.401 392.96 322.484 392.935 322.569 392.928C322.655 392.921 322.741 392.931 322.822 392.959C322.904 392.986 322.979 393.029 323.042 393.087C323.106 393.144 323.158 393.214 323.194 393.292C323.23 393.369 323.25 393.454 323.252 393.54C323.254 393.626 323.239 393.711 323.207 393.79C323.175 393.87 323.127 393.942 323.066 394.003C323.005 394.063 322.932 394.111 322.853 394.142C320.389 395.155 317.777 395.762 315.119 395.938C310.606 396.316 297.24 400.309 297.099 400.348C297.041 400.371 296.979 400.382 296.917 400.38Z" fill="#B57400"/>
<path d="M290.128 394.206C289.968 394.205 289.815 394.143 289.698 394.034C289.581 393.924 289.51 393.775 289.498 393.615C289.498 393.379 289.128 387.779 293.066 385.212C296.594 382.904 300.201 378.179 300.241 378.124C300.345 377.991 300.498 377.905 300.666 377.885C300.833 377.865 301.002 377.913 301.135 378.017C301.267 378.122 301.353 378.275 301.373 378.442C301.393 378.61 301.345 378.779 301.241 378.911C301.091 379.116 297.468 383.857 293.751 386.283C290.435 388.449 290.75 393.489 290.758 393.545C290.769 393.71 290.714 393.874 290.605 393.999C290.495 394.125 290.341 394.202 290.175 394.214L290.128 394.206Z" fill="#B57400"/>
<path d="M298.051 296.262C298.484 295.882 298.829 295.411 299.06 294.883C299.292 294.355 299.404 293.783 299.39 293.206C299.579 290.119 297.461 289.158 297.461 289.158C297.461 289.158 239.266 293.403 234.493 296.246C229.72 299.09 234.493 302.366 234.493 302.366C230.5 308.801 227.475 315.788 225.515 323.103C236.659 337.162 268.367 307.43 275.747 303.232C283.126 299.035 288.923 302.665 298.051 296.262Z" fill="#B57400"/>
<path d="M176.275 298.105C176.275 298.105 160.862 311.494 158.719 313.069C156.577 314.644 149.016 315.637 147.591 317.921C146.165 320.205 149.016 324.221 149.3 327.198C149.583 330.176 155.443 327.198 155.443 327.198C155.443 327.198 159.751 327.624 161.744 325.623C163.736 323.623 164.894 318.779 164.894 318.779L184.41 306.367C184.41 306.367 183.843 296.995 176.275 298.105Z" fill="#AD6E47"/>
<path d="M245.63 271.201L244.488 271.02C244.567 270.531 246.488 258.867 254.364 251.582L255.152 252.425C247.567 259.45 245.646 271.083 245.63 271.201Z" fill="#0C193A"/>
<path d="M181.315 291.694L174.841 298.224C174.841 298.224 176.7 304.02 183.253 309.329L190.231 304.674C190.231 304.674 187.679 290.466 181.315 291.694Z" fill="#F59D00"/>
<path d="M251.497 226.963C260.531 223.38 272.392 211.652 288.899 210.747C304.066 210.009 318.923 215.21 330.319 225.246C340.163 234.083 350.725 240.927 353.481 244.306C356.238 247.684 361.294 248.244 362.019 250.874C362.743 253.505 367.374 250.725 368.532 252.032C369.69 253.339 379.968 250.725 384.89 253.765C384.89 253.765 393.144 266.65 390.971 271.139C388.797 275.628 383.15 287.347 370.415 287.78C357.679 288.214 358.254 285.756 352.174 283.149C346.094 280.543 335.532 278.377 330.61 272.297C325.688 266.216 312.496 262.058 311.503 259.695C311.503 259.695 304.549 270.115 303.391 276.849C302.233 283.583 306.045 286.182 299.004 290.238C291.963 294.294 272.415 298.2 258.522 299.208C244.629 300.216 236.163 301.232 232.579 296.46C228.996 291.687 234.493 285.433 234.493 285.433C234.493 285.433 235.509 267.193 240.14 261.554C244.771 255.915 245.858 229.184 251.497 226.963Z" fill="#ED3232"/>
<path d="M302.431 244.587H302.328C295.634 242.744 293.09 238.554 292.987 238.373L292.861 238.153L293.058 237.995C294.24 236.985 295.142 235.688 295.68 234.229C296.218 232.77 296.373 231.198 296.13 229.663C296.088 229.178 295.93 228.71 295.669 228.299C295.409 227.888 295.054 227.545 294.633 227.3C292.105 225.906 287.411 227.906 287.364 227.93L287.151 228.016L287.017 227.835C282.079 221.149 283.662 211.493 283.678 211.398L284.253 211.501C284.253 211.595 282.717 220.834 287.348 227.308C288.341 226.914 292.436 225.425 294.909 226.796C295.406 227.077 295.827 227.474 296.138 227.952C296.449 228.43 296.641 228.976 296.697 229.544C296.941 231.13 296.787 232.752 296.249 234.264C295.712 235.776 294.808 237.131 293.617 238.208C294.208 239.058 296.768 242.366 302.375 243.926C303.218 243.532 309.464 240.578 311.212 238.255C310.488 237.231 307.069 232.104 309.227 229.757C309.812 229.079 310.563 228.565 311.407 228.265C312.251 227.966 313.158 227.891 314.04 228.048C313.957 222.94 312.077 218.024 308.731 214.163L309.18 213.793C312.709 217.87 314.625 223.097 314.567 228.489V228.851L314.213 228.733C313.391 228.524 312.526 228.551 311.718 228.81C310.911 229.069 310.192 229.55 309.645 230.198C307.613 232.403 311.748 238.074 311.787 238.129L311.905 238.294L311.795 238.46C310.039 241.098 302.816 244.406 302.509 244.548L302.431 244.587Z" fill="#0C193A"/>
<path d="M386.702 251.055C386.702 251.055 380.701 252.165 379.283 254.055C377.865 255.946 374.865 260.529 379.283 267.444C383.701 274.359 388.734 273.438 390.309 272.335C391.884 271.233 396.311 266.657 394.247 260.521C392.184 254.386 390.64 251.055 386.702 251.055Z" fill="#F59D00"/>
<path d="M345.811 275.548C343.393 270.035 343.298 267.854 338.959 264.562C334.619 261.27 329.594 259.049 328.247 249.204C326.901 239.359 321.608 226.907 321.293 230.577C320.876 235.618 320.994 238.563 320.71 245.132C320.427 251.7 313 255.481 311.503 259.679C312.512 261.994 325.68 266.192 330.61 272.28C335.541 278.368 346.094 280.526 352.174 283.133C352.781 283.393 353.301 283.645 353.749 283.92C353.749 283.92 348.221 281.054 345.811 275.548Z" fill="#C61717"/>
<path d="M356.616 263.214C356.419 259.126 357.183 256.22 358.884 254.55C359.309 254.121 359.816 253.783 360.375 253.556C360.934 253.328 361.534 253.217 362.137 253.227L362.09 253.802C361.035 253.811 360.026 254.232 359.278 254.976C357.703 256.48 357.01 259.307 357.191 263.151L356.616 263.214Z" fill="#0C193A"/>
<path d="M349.489 256.93C349.217 256.938 348.947 256.882 348.701 256.765C348.459 256.625 348.258 256.422 348.119 256.179C347.981 255.935 347.91 255.659 347.914 255.379C347.764 253.323 349.638 253.134 351.796 252.921C352.901 252.841 353.997 252.667 355.073 252.401C358.223 251.519 358.641 250.574 358.641 250.566L359.2 250.732C359.16 250.858 358.759 251.976 355.262 252.961C354.156 253.237 353.028 253.416 351.891 253.496C349.607 253.725 348.418 253.906 348.528 255.331C348.515 255.511 348.551 255.69 348.631 255.851C348.711 256.012 348.834 256.148 348.985 256.245C349.772 256.631 351.348 255.859 351.844 255.52L352.151 256.017C351.347 256.525 350.435 256.838 349.489 256.93Z" fill="#0C193A"/>
<path d="M384.891 253.739C384.891 253.739 415.386 236.948 416.449 235.696C417.512 234.443 416.638 228.749 420.017 227.205C423.396 225.662 424.356 227.3 424.742 231.64C425.128 235.979 420.497 241.091 420.497 241.091C420.497 241.091 395.602 263.773 392.806 266.986C390.01 270.2 386.143 267.561 383.536 263.222C380.929 258.882 381.441 256.189 384.891 253.739Z" fill="#AD6E47"/>
<path d="M418.835 237.603V237.06C419.064 237.064 419.292 237.02 419.503 236.932C419.715 236.844 419.906 236.713 420.064 236.548C421.277 235.335 421.285 232.46 421.285 232.429V231.137L421.836 232.31C422.029 232.705 422.336 233.031 422.718 233.248C422.896 232.25 422.761 231.221 422.332 230.302C422.253 230.044 422.083 229.823 421.855 229.679C421.627 229.535 421.355 229.476 421.088 229.515C420.858 229.537 420.626 229.506 420.41 229.424C420.194 229.342 420 229.211 419.844 229.042L420.285 228.68C420.466 228.9 420.71 228.916 421.112 228.94C421.486 228.903 421.862 228.993 422.18 229.194C422.498 229.395 422.74 229.696 422.868 230.05C423.388 231.263 423.592 233.145 423.073 233.657C422.997 233.734 422.9 233.786 422.794 233.804C422.688 233.822 422.579 233.807 422.482 233.76C422.229 233.639 422.001 233.471 421.813 233.263C421.718 234.287 421.411 235.988 420.474 236.934C420.26 237.15 420.005 237.321 419.723 237.437C419.442 237.552 419.14 237.608 418.835 237.603Z" fill="#704226"/>
<path d="M279.591 296.442L279.134 296.079C283.245 290.818 284.387 284.549 285.6 277.91C286.009 275.649 286.443 273.318 286.986 271.042C288.325 265.529 290.869 264.237 293.554 262.875C295.565 261.995 297.362 260.692 298.823 259.055C301.974 255.393 301.926 252.258 301.895 248.942C301.834 247.363 301.916 245.781 302.139 244.217L302.706 244.311C302.497 245.838 302.418 247.379 302.47 248.919C302.509 252.353 302.541 255.59 299.264 259.417C297.75 261.1 295.895 262.442 293.822 263.355C291.137 264.71 288.821 265.883 287.522 271.136C286.97 273.405 286.553 275.728 286.135 277.973C284.907 284.722 283.749 291.062 279.591 296.442Z" fill="#0C193A"/>
<path d="M264.02 266.625C269.533 260.836 279.653 256.78 281.969 248.968C284.284 241.155 282.119 241.147 281.244 234.059C280.37 226.97 277.488 227.687 271.659 225.568L245.386 243.265C243.85 250.842 242.424 258.773 240.14 261.561C235.509 267.2 234.493 285.441 234.493 285.441C234.493 285.441 228.98 291.662 232.58 296.467C233.427 297.569 234.564 298.414 235.864 298.908C249.308 299.05 258.932 271.989 264.02 266.625Z" fill="#C61717"/>
<path d="M123.885 484.361C125.838 485.054 136.73 474.91 136.73 474.91C138.054 474.448 139.341 473.887 140.582 473.232C141.141 464.766 148.127 457.339 148.127 457.339L144.189 455.055C143.352 454.57 142.367 454.409 141.42 454.604C140.473 454.799 139.631 455.335 139.054 456.11C136.652 459.34 132.548 464.774 128.815 469.405C123.058 476.485 121.932 483.637 123.885 484.361Z" fill="#0C193A"/>
<path d="M318.017 174.564C325.255 174.612 327.184 176.14 327.57 179.723C327.956 183.307 325.83 184.646 326.216 187.252C326.602 189.859 329.594 192.269 329.689 196.609C329.784 200.949 335.202 206.651 333.265 213.889C333.265 213.889 330.949 213.692 326.602 215.141C322.254 216.59 319.947 215.724 315.985 215.141C312.023 214.558 305.266 213.18 303.77 213.432C302.273 213.684 294.618 211.975 294.925 204.768C295.232 197.562 318.017 174.564 318.017 174.564Z" fill="#0C193A"/>
<path d="M314.827 177.604C318.938 179.533 319.025 183.117 319.316 186.141C319.608 189.166 321.057 192.221 323.947 192.655C323.365 194.786 322.977 196.966 322.79 199.168C322.648 202.066 323.514 204.232 321.34 205.39C319.167 206.548 312.37 207.564 312.37 207.564L306.581 219.732C306.581 219.732 308.944 232.034 303.431 239.996C302.131 241.879 302.714 232.034 301.698 227.986C300.682 223.938 293.594 216.833 290.262 211.919C286.931 207.004 290.412 189.914 294.988 185.141C299.564 180.368 307.447 174.131 314.827 177.604Z" fill="#AD6E47"/>
<path d="M298.398 204.453C298.398 204.453 296.184 209.273 306.581 219.724L312.369 207.564C309.953 208.056 307.459 208.033 305.052 207.497C302.645 206.961 300.377 205.924 298.398 204.453Z" fill="#15244F"/>
<path d="M316.859 179.195C312.134 180.66 308.605 180.353 308.196 186.575C307.786 192.797 308.196 195.695 306.896 195.553C305.597 195.412 305.156 191.93 303.131 190.631C301.107 189.331 299.509 191.064 299.193 194.104C298.878 197.144 300.934 198.593 303.974 198.16L305.856 213.502C305.856 213.502 305.218 212.778 299.17 214.369C293.121 215.96 290.365 218.307 284.576 215.093C278.787 211.88 279.512 212.486 273.865 212.195C268.218 211.904 267.351 206.548 272.849 199.46C278.346 192.372 277.488 187.299 282.119 184.118C286.75 180.936 281.394 179.337 291.239 177.171C301.084 175.005 313.386 174.848 318.017 174.564C322.648 174.281 320.663 177.99 316.859 179.195Z" fill="#0C193A"/>
<path d="M179.748 292.978C179.748 292.978 180.788 279.258 193.531 268.256C206.274 257.253 215.819 254.079 225.373 245.967C234.926 237.855 253.167 221.355 266.768 223.962C280.37 226.569 281.827 240.17 276.33 249.44C270.832 258.71 249.111 270.862 244.771 276.36C240.431 281.857 230.87 284.755 230.87 284.755C230.87 284.755 216.583 301.468 210.322 303.216C197.579 306.831 188.026 304.949 188.026 304.949C184.304 301.718 181.457 297.601 179.748 292.978Z" fill="#ED3232"/>
<path d="M231.603 281.645C231.281 281.44 231.008 281.166 230.804 280.844C230.6 280.521 230.469 280.158 230.421 279.779C230.091 277.818 231.39 275.227 234.281 272.076L234.706 272.462C231.28 276.203 230.768 278.44 230.989 279.661C231.022 279.956 231.119 280.24 231.273 280.494C231.426 280.748 231.633 280.966 231.879 281.133L231.603 281.645Z" fill="#0C193A"/>
<path d="M228.697 274.154H228.122V283.566H228.697V274.154Z" fill="#0C193A"/>
<g opacity="0.77">
<path d="M473.454 224.442C529.922 224.442 575.699 178.665 575.699 122.197C575.699 65.7295 529.922 19.9531 473.454 19.9531C416.986 19.9531 371.21 65.7295 371.21 122.197C371.21 178.665 416.986 224.442 473.454 224.442Z" fill="#E1F2F9"/>
</g>
<path d="M388.047 305.04L407.396 312.885L444.976 220.198L425.627 212.353L388.047 305.04Z" fill="#0C193A"/>
<path d="M373.83 380.177L365.262 376.703C361.075 375.005 357.734 371.714 355.973 367.553C354.213 363.392 354.178 358.702 355.875 354.515L384.181 284.702L424.324 300.978L396.019 370.791C395.178 372.864 393.937 374.751 392.367 376.345C390.797 377.939 388.929 379.208 386.868 380.079C384.808 380.951 382.596 381.408 380.359 381.425C378.122 381.442 375.904 381.018 373.83 380.177Z" fill="#728BC4"/>
<path d="M432.012 224.458C375.652 201.618 348.394 137.154 371.242 80.7943C379.442 60.5905 393.448 43.2717 411.49 31.0272C429.532 18.7826 450.799 12.1623 472.603 12.0029C494.407 11.8436 515.769 18.1526 533.988 30.1321C552.206 42.1117 566.464 59.2241 574.959 79.3058C583.454 99.3876 585.804 121.537 581.712 142.954C577.62 164.371 567.27 184.094 551.97 199.63C536.67 215.166 517.108 225.816 495.756 230.235C474.404 234.655 452.221 232.644 432.012 224.458ZM437.107 36.3115C425.81 41.0529 415.566 47.9884 406.968 56.7163C398.37 65.4442 391.589 75.7912 387.017 87.158C379.047 106.829 378.027 128.63 384.125 148.96C390.224 169.289 403.076 186.929 420.558 198.964C438.04 211 459.105 216.71 480.272 215.152C501.439 213.594 521.441 204.861 536.972 190.395C552.503 175.93 562.634 156.598 565.69 135.595C568.747 114.592 564.545 93.1747 553.781 74.8828C543.016 56.5909 526.333 42.5192 506.488 34.9933C486.643 27.4674 464.824 26.9378 444.637 33.4919C442.111 34.3162 439.601 35.2561 437.107 36.3115Z" fill="#839ADD"/>
<path d="M405.1 101.956L411.062 134.247C411.629 137.287 410.637 140.8 407.258 141.737C404.501 142.524 400.374 141.209 399.768 137.933L393.806 105.642C393.247 102.594 394.231 99.0891 397.61 98.1519C400.374 97.3643 404.501 98.6795 405.1 101.956Z" fill="white"/>
<path d="M425.112 159.184C428.125 162.185 430.22 165.982 431.153 170.131C431.573 171.638 431.448 173.245 430.799 174.668C430.084 176.071 428.842 177.134 427.345 177.623C425.848 178.112 424.218 177.986 422.813 177.275L421.561 176.416C420.767 175.722 420.178 174.823 419.859 173.817C419.581 172.417 419.129 171.057 418.513 169.769L419.206 171.21C418.557 169.877 417.739 168.633 416.772 167.509L417.78 168.674C417.599 168.47 417.41 168.265 417.221 168.068C416.083 166.961 415.379 165.483 415.236 163.901C415.199 163.122 415.316 162.343 415.58 161.609C415.844 160.875 416.251 160.2 416.776 159.623C417.301 159.045 417.935 158.578 418.641 158.245C419.347 157.913 420.112 157.724 420.891 157.687C422.441 157.608 423.959 158.146 425.112 159.184Z" fill="white"/>
<path d="M379.393 332.041C378.657 340.115 376.017 347.899 371.691 354.755C370.864 356.063 369.186 356.897 367.698 356.055C366.406 355.33 365.508 353.463 366.398 352.062C370.504 345.671 372.973 338.368 373.589 330.797C373.723 329.222 375.7 328.151 377.117 328.521C377.876 328.708 378.535 329.179 378.958 329.837C379.381 330.494 379.537 331.288 379.393 332.057V332.041Z" fill="white"/>
<path d="M369.571 604.967V575.876H373.094V590.308H373.435L386.503 575.876H391.105L378.889 589.001L391.105 604.967H386.844L376.73 591.444L373.094 595.535V604.967H369.571ZM398.563 591.842V604.967H395.21V575.876H398.563V586.558H398.847C399.358 585.431 400.125 584.536 401.148 583.873C402.18 583.201 403.553 582.865 405.267 582.865C406.754 582.865 408.056 583.163 409.173 583.759C410.291 584.347 411.157 585.251 411.773 586.472C412.398 587.685 412.71 589.228 412.71 591.103V604.967H409.358V591.33C409.358 589.597 408.908 588.258 408.009 587.311C407.118 586.354 405.883 585.876 404.301 585.876C403.203 585.876 402.218 586.108 401.347 586.572C400.485 587.036 399.803 587.713 399.301 588.603C398.809 589.493 398.563 590.573 398.563 591.842ZM427.707 605.421C425.737 605.421 424.009 604.953 422.522 604.015C421.045 603.078 419.889 601.766 419.056 600.08C418.232 598.395 417.82 596.425 417.82 594.171C417.82 591.899 418.232 589.915 419.056 588.22C419.889 586.525 421.045 585.208 422.522 584.271C424.009 583.333 425.737 582.865 427.707 582.865C429.676 582.865 431.4 583.333 432.877 584.271C434.364 585.208 435.519 586.525 436.343 588.22C437.176 589.915 437.593 591.899 437.593 594.171C437.593 596.425 437.176 598.395 436.343 600.08C435.519 601.766 434.364 603.078 432.877 604.015C431.4 604.953 429.676 605.421 427.707 605.421ZM427.707 602.41C429.203 602.41 430.434 602.026 431.4 601.259C432.366 600.492 433.081 599.484 433.545 598.234C434.009 596.984 434.241 595.63 434.241 594.171C434.241 592.713 434.009 591.354 433.545 590.095C433.081 588.835 432.366 587.817 431.4 587.041C430.434 586.264 429.203 585.876 427.707 585.876C426.211 585.876 424.979 586.264 424.014 587.041C423.048 587.817 422.333 588.835 421.869 590.095C421.405 591.354 421.173 592.713 421.173 594.171C421.173 595.63 421.405 596.984 421.869 598.234C422.333 599.484 423.048 600.492 424.014 601.259C424.979 602.026 426.211 602.41 427.707 602.41ZM430.661 580.535L427.707 576.558L424.752 580.535H421.57V580.308L426.173 574.399H429.241L433.843 580.308V580.535H430.661ZM446.063 591.842V604.967H442.71V583.149H445.949V586.558H446.233C446.744 585.45 447.521 584.56 448.563 583.887C449.604 583.205 450.949 582.865 452.597 582.865C454.074 582.865 455.367 583.168 456.474 583.774C457.582 584.37 458.444 585.279 459.06 586.501C459.675 587.713 459.983 589.247 459.983 591.103V604.967H456.631V591.33C456.631 589.616 456.186 588.281 455.295 587.325C454.405 586.359 453.184 585.876 451.631 585.876C450.561 585.876 449.604 586.108 448.761 586.572C447.928 587.036 447.27 587.713 446.787 588.603C446.304 589.493 446.063 590.573 446.063 591.842ZM474.916 613.603C473.296 613.603 471.904 613.395 470.739 612.978C469.575 612.571 468.604 612.031 467.827 611.359C467.06 610.696 466.45 609.986 465.995 609.228L468.666 607.353C468.969 607.751 469.352 608.205 469.816 608.717C470.28 609.238 470.915 609.687 471.72 610.066C472.534 610.454 473.599 610.649 474.916 610.649C476.677 610.649 478.13 610.222 479.276 609.37C480.422 608.518 480.995 607.183 480.995 605.365V600.933H480.711C480.465 601.33 480.114 601.823 479.66 602.41C479.215 602.988 478.571 603.504 477.728 603.958C476.895 604.403 475.768 604.626 474.347 604.626C472.586 604.626 471.005 604.209 469.603 603.376C468.211 602.543 467.108 601.33 466.293 599.74C465.488 598.149 465.086 596.217 465.086 593.944C465.086 591.709 465.479 589.763 466.265 588.106C467.051 586.439 468.145 585.151 469.546 584.242C470.948 583.324 472.567 582.865 474.404 582.865C475.825 582.865 476.952 583.101 477.785 583.575C478.628 584.039 479.272 584.569 479.717 585.166C480.171 585.753 480.522 586.236 480.768 586.615H481.109V583.149H484.347V605.592C484.347 607.467 483.921 608.991 483.069 610.166C482.226 611.349 481.09 612.216 479.66 612.765C478.239 613.324 476.658 613.603 474.916 613.603ZM474.802 601.615C476.147 601.615 477.283 601.307 478.211 600.691C479.139 600.076 479.845 599.19 480.327 598.035C480.81 596.88 481.052 595.497 481.052 593.887C481.052 592.315 480.815 590.928 480.342 589.725C479.868 588.523 479.167 587.58 478.239 586.899C477.311 586.217 476.166 585.876 474.802 585.876C473.381 585.876 472.198 586.236 471.251 586.955C470.313 587.675 469.608 588.641 469.134 589.853C468.67 591.065 468.438 592.41 468.438 593.887C468.438 595.402 468.675 596.742 469.148 597.907C469.631 599.062 470.342 599.972 471.279 600.634C472.226 601.288 473.4 601.615 474.802 601.615ZM511.222 583.149V585.99H499.916V583.149H511.222ZM503.211 577.921H506.563V598.717C506.563 599.664 506.701 600.374 506.975 600.847C507.259 601.311 507.619 601.624 508.055 601.785C508.5 601.936 508.969 602.012 509.461 602.012C509.83 602.012 510.133 601.993 510.37 601.955C510.607 601.908 510.796 601.87 510.938 601.842L511.62 604.853C511.393 604.938 511.076 605.024 510.668 605.109C510.261 605.204 509.745 605.251 509.12 605.251C508.173 605.251 507.245 605.047 506.336 604.64C505.436 604.233 504.688 603.613 504.092 602.779C503.505 601.946 503.211 600.895 503.211 599.626V577.921ZM516.265 604.967V583.149H519.617V604.967H516.265ZM516.549 580.194L512.117 573.603H516.038L519.504 580.194H516.549ZM525.757 604.967V583.149H528.996V586.558H529.28C529.734 585.393 530.468 584.489 531.482 583.845C532.495 583.191 533.712 582.865 535.132 582.865C536.572 582.865 537.769 583.191 538.726 583.845C539.692 584.489 540.445 585.393 540.984 586.558H541.212C541.77 585.431 542.608 584.536 543.726 583.873C544.843 583.201 546.183 582.865 547.746 582.865C549.697 582.865 551.292 583.475 552.533 584.697C553.773 585.909 554.394 587.798 554.394 590.365V604.967H551.041V590.365C551.041 588.755 550.601 587.604 549.72 586.913C548.84 586.222 547.803 585.876 546.609 585.876C545.075 585.876 543.887 586.34 543.044 587.268C542.201 588.186 541.78 589.351 541.78 590.762V604.967H538.371V590.024C538.371 588.783 537.968 587.784 537.163 587.026C536.358 586.259 535.322 585.876 534.053 585.876C533.181 585.876 532.367 586.108 531.609 586.572C530.861 587.036 530.255 587.68 529.791 588.504C529.337 589.318 529.109 590.26 529.109 591.33V604.967H525.757ZM581.261 583.149V585.99H569.955V583.149H581.261ZM573.25 577.921H576.602V598.717C576.602 599.664 576.74 600.374 577.014 600.847C577.298 601.311 577.658 601.624 578.094 601.785C578.539 601.936 579.008 602.012 579.5 602.012C579.869 602.012 580.172 601.993 580.409 601.955C580.646 601.908 580.835 601.87 580.977 601.842L581.659 604.853C581.432 604.938 581.115 605.024 580.707 605.109C580.3 605.204 579.784 605.251 579.159 605.251C578.212 605.251 577.284 605.047 576.375 604.64C575.475 604.233 574.727 603.613 574.131 602.779C573.544 601.946 573.25 600.895 573.25 599.626V577.921ZM590.125 591.842V604.967H586.773V575.876H590.125V586.558H590.409C590.92 585.431 591.688 584.536 592.71 583.873C593.742 583.201 595.116 582.865 596.83 582.865C598.316 582.865 599.618 583.163 600.736 583.759C601.853 584.347 602.72 585.251 603.335 586.472C603.96 587.685 604.273 589.228 604.273 591.103V604.967H600.92V591.33C600.92 589.597 600.471 588.258 599.571 587.311C598.681 586.354 597.445 585.876 595.864 585.876C594.765 585.876 593.78 586.108 592.909 586.572C592.047 587.036 591.366 587.713 590.864 588.603C590.371 589.493 590.125 590.573 590.125 591.842ZM616.826 605.478C615.443 605.478 614.189 605.218 613.062 604.697C611.935 604.167 611.04 603.404 610.377 602.41C609.714 601.406 609.383 600.194 609.383 598.774C609.383 597.524 609.629 596.51 610.121 595.734C610.614 594.948 611.272 594.332 612.096 593.887C612.92 593.442 613.829 593.111 614.823 592.893C615.827 592.666 616.836 592.486 617.849 592.353C619.175 592.183 620.249 592.055 621.073 591.97C621.907 591.875 622.513 591.719 622.891 591.501C623.28 591.283 623.474 590.904 623.474 590.365V590.251C623.474 588.849 623.09 587.76 622.323 586.984C621.566 586.207 620.415 585.819 618.871 585.819C617.271 585.819 616.016 586.169 615.107 586.87C614.198 587.571 613.559 588.319 613.19 589.115L610.008 587.978C610.576 586.652 611.334 585.62 612.281 584.882C613.237 584.133 614.279 583.613 615.406 583.319C616.542 583.016 617.659 582.865 618.758 582.865C619.459 582.865 620.264 582.95 621.173 583.12C622.091 583.281 622.977 583.617 623.829 584.129C624.691 584.64 625.406 585.412 625.974 586.444C626.542 587.476 626.826 588.859 626.826 590.592V604.967H623.474V602.012H623.303C623.076 602.486 622.697 602.992 622.167 603.532C621.637 604.072 620.931 604.531 620.05 604.91C619.17 605.289 618.095 605.478 616.826 605.478ZM617.337 602.467C618.663 602.467 619.781 602.206 620.69 601.686C621.608 601.165 622.3 600.492 622.764 599.669C623.237 598.845 623.474 597.978 623.474 597.069V594.001C623.332 594.171 623.019 594.328 622.536 594.47C622.063 594.602 621.514 594.721 620.889 594.825C620.273 594.919 619.672 595.005 619.085 595.08C618.507 595.147 618.038 595.204 617.678 595.251C616.807 595.365 615.993 595.549 615.235 595.805C614.487 596.051 613.881 596.425 613.417 596.927C612.962 597.419 612.735 598.092 612.735 598.944C612.735 600.109 613.166 600.99 614.028 601.586C614.899 602.173 616.002 602.467 617.337 602.467ZM611.656 580.421L617.451 575.251H620.576L626.371 580.421H622.281L619.042 577.41L615.803 580.421H611.656ZM624.837 576.955L627.621 571.842H631.769L627.792 576.955H624.837ZM634.322 613.149C633.754 613.149 633.248 613.101 632.803 613.007C632.358 612.921 632.05 612.836 631.879 612.751L632.732 609.796C633.546 610.005 634.266 610.08 634.891 610.024C635.516 609.967 636.07 609.687 636.553 609.186C637.045 608.693 637.495 607.893 637.902 606.785L638.527 605.08L630.459 583.149H634.095L640.118 600.535H640.345L646.368 583.149H650.004L640.743 608.149C640.326 609.276 639.81 610.208 639.195 610.947C638.579 611.695 637.864 612.249 637.05 612.609C636.245 612.969 635.336 613.149 634.322 613.149ZM668.179 583.149L673.406 592.069L678.634 583.149H682.497L675.452 594.058L682.497 604.967H678.634L673.406 596.501L668.179 604.967H664.315L671.247 594.058L664.315 583.149H668.179ZM695.53 605.421C693.428 605.421 691.614 604.957 690.09 604.029C688.574 603.092 687.405 601.785 686.581 600.109C685.767 598.423 685.359 596.463 685.359 594.228C685.359 591.993 685.767 590.024 686.581 588.319C687.405 586.605 688.551 585.27 690.019 584.313C691.496 583.347 693.219 582.865 695.189 582.865C696.325 582.865 697.447 583.054 698.555 583.433C699.663 583.811 700.672 584.427 701.581 585.279C702.49 586.122 703.215 587.24 703.754 588.632C704.294 590.024 704.564 591.738 704.564 593.774V595.194H687.746V592.296H701.155C701.155 591.065 700.909 589.967 700.416 589.001C699.933 588.035 699.242 587.273 698.342 586.714C697.452 586.155 696.401 585.876 695.189 585.876C693.854 585.876 692.698 586.207 691.723 586.87C690.757 587.524 690.014 588.376 689.493 589.427C688.972 590.478 688.712 591.605 688.712 592.808V594.74C688.712 596.387 688.996 597.784 689.564 598.93C690.142 600.066 690.942 600.933 691.965 601.529C692.987 602.116 694.176 602.41 695.53 602.41C696.411 602.41 697.206 602.287 697.916 602.041C698.636 601.785 699.256 601.406 699.777 600.904C700.298 600.393 700.7 599.758 700.984 599.001L704.223 599.91C703.882 601.008 703.309 601.974 702.504 602.808C701.699 603.632 700.705 604.276 699.521 604.74C698.338 605.194 697.007 605.421 695.53 605.421ZM714.095 575.876L713.811 596.785H710.516L710.232 575.876H714.095ZM712.163 605.194C711.463 605.194 710.861 604.943 710.359 604.441C709.858 603.939 709.607 603.338 709.607 602.637C709.607 601.936 709.858 601.335 710.359 600.833C710.861 600.331 711.463 600.08 712.163 600.08C712.864 600.08 713.465 600.331 713.967 600.833C714.469 601.335 714.72 601.936 714.72 602.637C714.72 603.101 714.602 603.527 714.365 603.916C714.138 604.304 713.83 604.616 713.442 604.853C713.063 605.08 712.637 605.194 712.163 605.194Z" fill="#023EC5"/>
<defs>
<linearGradient id="paint0_linear_2794_14137" x1="313.609" y1="466.369" x2="214.052" y2="141.442" gradientUnits="userSpaceOnUse">
<stop stop-color="#FDFDFE" stop-opacity="0"/>
<stop offset="0.2" stop-color="#FAFBFC" stop-opacity="0.02"/>
<stop offset="0.36" stop-color="#F0F5F6" stop-opacity="0.08"/>
<stop offset="0.5" stop-color="#DFEAEC" stop-opacity="0.19"/>
<stop offset="0.64" stop-color="#C8DBDD" stop-opacity="0.34"/>
<stop offset="0.77" stop-color="#AAC7CB" stop-opacity="0.54"/>
<stop offset="0.9" stop-color="#85AFB4" stop-opacity="0.77"/>
<stop offset="1" stop-color="#62989E"/>
</linearGradient>
<linearGradient id="paint1_linear_2794_14137" x1="341.13" y1="427.896" x2="245.813" y2="116.889" gradientUnits="userSpaceOnUse">
<stop stop-color="#FDFDFE" stop-opacity="0"/>
<stop offset="0.2" stop-color="#FAFBFC" stop-opacity="0.02"/>
<stop offset="0.36" stop-color="#F0F5F6" stop-opacity="0.08"/>
<stop offset="0.5" stop-color="#DFEAEC" stop-opacity="0.19"/>
<stop offset="0.64" stop-color="#C8DBDD" stop-opacity="0.34"/>
<stop offset="0.77" stop-color="#AAC7CB" stop-opacity="0.54"/>
<stop offset="0.9" stop-color="#85AFB4" stop-opacity="0.77"/>
<stop offset="1" stop-color="#62989E"/>
</linearGradient>
<linearGradient id="paint2_linear_2794_14137" x1="503.373" y1="459.614" x2="403.815" y2="134.688" gradientUnits="userSpaceOnUse">
<stop stop-color="#FDFDFE" stop-opacity="0"/>
<stop offset="0.2" stop-color="#FAFBFC" stop-opacity="0.02"/>
<stop offset="0.36" stop-color="#F0F5F6" stop-opacity="0.08"/>
<stop offset="0.5" stop-color="#DFEAEC" stop-opacity="0.19"/>
<stop offset="0.64" stop-color="#C8DBDD" stop-opacity="0.34"/>
<stop offset="0.77" stop-color="#AAC7CB" stop-opacity="0.54"/>
<stop offset="0.9" stop-color="#85AFB4" stop-opacity="0.77"/>
<stop offset="1" stop-color="#62989E"/>
</linearGradient>
<linearGradient id="paint3_linear_2794_14137" x1="530.688" y1="421.644" x2="435.099" y2="110.721" gradientUnits="userSpaceOnUse">
<stop stop-color="#FDFDFE" stop-opacity="0"/>
<stop offset="0.2" stop-color="#FAFBFC" stop-opacity="0.02"/>
<stop offset="0.36" stop-color="#F0F5F6" stop-opacity="0.08"/>
<stop offset="0.5" stop-color="#DFEAEC" stop-opacity="0.19"/>
<stop offset="0.64" stop-color="#C8DBDD" stop-opacity="0.34"/>
<stop offset="0.77" stop-color="#AAC7CB" stop-opacity="0.54"/>
<stop offset="0.9" stop-color="#85AFB4" stop-opacity="0.77"/>
<stop offset="1" stop-color="#62989E"/>
</linearGradient>
<linearGradient id="paint4_linear_2794_14137" x1="728.014" y1="470.255" x2="628.457" y2="145.336" gradientUnits="userSpaceOnUse">
<stop stop-color="#FDFDFE" stop-opacity="0"/>
<stop offset="0.2" stop-color="#FAFBFC" stop-opacity="0.02"/>
<stop offset="0.36" stop-color="#F0F5F6" stop-opacity="0.08"/>
<stop offset="0.5" stop-color="#DFEAEC" stop-opacity="0.19"/>
<stop offset="0.64" stop-color="#C8DBDD" stop-opacity="0.34"/>
<stop offset="0.77" stop-color="#AAC7CB" stop-opacity="0.54"/>
<stop offset="0.9" stop-color="#85AFB4" stop-opacity="0.77"/>
<stop offset="1" stop-color="#62989E"/>
</linearGradient>
<linearGradient id="paint5_linear_2794_14137" x1="755.536" y1="431.798" x2="660.212" y2="120.783" gradientUnits="userSpaceOnUse">
<stop stop-color="#FDFDFE" stop-opacity="0"/>
<stop offset="0.2" stop-color="#FAFBFC" stop-opacity="0.02"/>
<stop offset="0.36" stop-color="#F0F5F6" stop-opacity="0.08"/>
<stop offset="0.5" stop-color="#DFEAEC" stop-opacity="0.19"/>
<stop offset="0.64" stop-color="#C8DBDD" stop-opacity="0.34"/>
<stop offset="0.77" stop-color="#AAC7CB" stop-opacity="0.54"/>
<stop offset="0.9" stop-color="#85AFB4" stop-opacity="0.77"/>
<stop offset="1" stop-color="#62989E"/>
</linearGradient>
<linearGradient id="paint6_linear_2794_14137" x1="944.172" y1="460.775" x2="844.322" y2="135.936" gradientUnits="userSpaceOnUse">
<stop stop-color="#FDFDFE" stop-opacity="0"/>
<stop offset="0.2" stop-color="#FAFBFC" stop-opacity="0.02"/>
<stop offset="0.36" stop-color="#F0F5F6" stop-opacity="0.08"/>
<stop offset="0.5" stop-color="#DFEAEC" stop-opacity="0.19"/>
<stop offset="0.64" stop-color="#C8DBDD" stop-opacity="0.34"/>
<stop offset="0.77" stop-color="#AAC7CB" stop-opacity="0.54"/>
<stop offset="0.9" stop-color="#85AFB4" stop-opacity="0.77"/>
<stop offset="1" stop-color="#62989E"/>
</linearGradient>
<linearGradient id="paint7_linear_2794_14137" x1="971.779" y1="421.452" x2="876.462" y2="110.446" gradientUnits="userSpaceOnUse">
<stop stop-color="#FDFDFE" stop-opacity="0"/>
<stop offset="0.2" stop-color="#FAFBFC" stop-opacity="0.02"/>
<stop offset="0.36" stop-color="#F0F5F6" stop-opacity="0.08"/>
<stop offset="0.5" stop-color="#DFEAEC" stop-opacity="0.19"/>
<stop offset="0.64" stop-color="#C8DBDD" stop-opacity="0.34"/>
<stop offset="0.77" stop-color="#AAC7CB" stop-opacity="0.54"/>
<stop offset="0.9" stop-color="#85AFB4" stop-opacity="0.77"/>
<stop offset="1" stop-color="#62989E"/>
</linearGradient>
<radialGradient id="paint8_radial_2794_14137" cx="0" cy="0" r="1" gradientUnits="userSpaceOnUse" gradientTransform="translate(564.877 342.714) scale(15.4209 15.4209)">
<stop stop-color="#FF0050"/>
<stop offset="0.3" stop-color="#FA1348"/>
<stop offset="0.72" stop-color="#F52740"/>
<stop offset="1" stop-color="#F32E3D"/>
</radialGradient>
<radialGradient id="paint9_radial_2794_14137" cx="0" cy="0" r="1" gradientUnits="userSpaceOnUse" gradientTransform="translate(754.859 342.714) scale(15.4209 15.4209)">
<stop stop-color="#FF0050"/>
<stop offset="0.3" stop-color="#FA1348"/>
<stop offset="0.72" stop-color="#F52740"/>
<stop offset="1" stop-color="#F32E3D"/>
</radialGradient>
</defs>
</svg>
