<svg width="28" height="28" viewBox="0 0 28 28" fill="none" xmlns="http://www.w3.org/2000/svg">
<path d="M1.16699 14.0006C1.16699 16.5388 1.91965 19.02 3.3298 21.1305C4.73994 23.2409 6.74424 24.8858 9.08922 25.8571C11.4342 26.8284 14.0146 27.0826 16.504 26.5874C18.9934 26.0922 21.2801 24.87 23.0749 23.0752C24.8696 21.2804 26.0919 18.9937 26.5871 16.5043C27.0822 14.0149 26.8281 11.4345 25.8568 9.08954C24.8855 6.74455 23.2406 4.74026 21.1301 3.33012C19.0197 1.91997 16.5385 1.16731 14.0003 1.16731C10.5967 1.16731 7.3325 2.51939 4.92579 4.92611C2.51907 7.33282 1.16699 10.597 1.16699 14.0006ZM12.6485 7.95187L18.3893 13.6926C18.4708 13.7744 18.5166 13.8852 18.5166 14.0006C18.5166 14.1161 18.4708 14.2269 18.3893 14.3086L12.6485 20.0494C12.4886 20.2105 12.2712 20.3015 12.0441 20.3023C11.8171 20.3031 11.599 20.2137 11.4379 20.0537C11.2768 19.8937 11.1859 19.6763 11.1851 19.4493C11.1843 19.2222 11.2737 19.0042 11.4337 18.8431L15.9595 14.3086C16.0411 14.2269 16.0868 14.1161 16.0868 14.0006C16.0868 13.8852 16.0411 13.7744 15.9595 13.6926L11.4337 9.1582C11.3441 9.0815 11.2714 8.98712 11.22 8.88098C11.1687 8.77483 11.1398 8.65922 11.1352 8.54139C11.1307 8.42356 11.1505 8.30607 11.1936 8.19628C11.2366 8.08649 11.3018 7.98678 11.3852 7.9034C11.4686 7.82002 11.5683 7.75478 11.6781 7.71176C11.7879 7.66875 11.9054 7.6489 12.0232 7.65345C12.141 7.658 12.2566 7.68686 12.3628 7.73821C12.4689 7.78957 12.5633 7.8623 12.64 7.95187L12.6485 7.95187Z" fill="white"/>
</svg>
