<svg width="28" height="28" viewBox="0 0 28 28" fill="none" xmlns="http://www.w3.org/2000/svg">
<path d="M13.9994 1.16602C11.4612 1.16602 8.97997 1.91868 6.86954 3.32882C4.75911 4.73897 3.11423 6.74326 2.1429 9.08824C1.17158 11.4332 0.917433 14.0136 1.41261 16.503C1.90779 18.9924 3.13004 21.2791 4.92482 23.0739C6.71959 24.8687 9.00627 26.0909 11.4957 26.5861C13.9851 27.0813 16.5655 26.8271 18.9105 25.8558C21.2554 24.8845 23.2597 23.2396 24.6699 21.1292C26.08 19.0187 26.8327 16.5375 26.8327 13.9993C26.8327 10.5957 25.4806 7.33153 23.0739 4.92481C20.6672 2.5181 17.403 1.16602 13.9994 1.16602ZM20.0481 12.6476L14.3074 18.3883C14.2256 18.4699 14.1148 18.5156 13.9994 18.5156C13.8839 18.5156 13.7731 18.4699 13.6914 18.3883L7.95058 12.6476C7.78947 12.4876 7.69851 12.2702 7.69771 12.0432C7.69691 11.8161 7.78633 11.5981 7.9463 11.437C8.10627 11.2759 8.32369 11.1849 8.55072 11.1841C8.77775 11.1833 8.99581 11.2727 9.15691 11.4327L13.6914 15.9586C13.7731 16.0401 13.8839 16.0858 13.9994 16.0858C14.1148 16.0858 14.2256 16.0401 14.3074 15.9586L18.8418 11.4327C18.9185 11.3431 19.0129 11.2704 19.119 11.219C19.2252 11.1677 19.3408 11.1388 19.4586 11.1343C19.5764 11.1297 19.6939 11.1496 19.8037 11.1926C19.9135 11.2356 20.0132 11.3008 20.0966 11.3842C20.18 11.4676 20.2452 11.5673 20.2882 11.6771C20.3312 11.7869 20.3511 11.9044 20.3465 12.0222C20.342 12.14 20.3131 12.2556 20.2618 12.3618C20.2104 12.4679 20.1377 12.5623 20.0481 12.639V12.6476Z" fill="#FB4390"/>
</svg>
